<svg width="134" height="134" viewBox="0 0 134 134" fill="none" xmlns="http://www.w3.org/2000/svg">
<path d="M25.2445 90.5307C25.352 101.153 25.2445 116.282 25.2445 116.282H70.8496L60.1917 88.4207L25.2445 90.5307Z" fill="#263238"/>
<path d="M83.7753 85.0173C85.8065 85.6944 90.059 86.2461 91.7893 86.5363C92.8927 86.9662 94.7198 87.9693 95.3467 88.3276C95.9736 88.6858 94.8774 89.6746 93.5017 89.1909C92.1261 88.7073 86.695 87.6111 86.695 87.6111L83.7753 85.0173Z" fill="#F28F8F"/>
<path d="M97.2346 93.2822C96.7152 92.3365 96.2065 91.3441 95.6691 90.4485C95.447 90.0902 93.319 88.3456 92.2908 87.6828C92.0411 87.5097 91.7747 87.362 91.4955 87.2422C90.4058 86.8807 89.2957 86.584 88.1709 86.3537C86.9636 86.0349 85.7599 85.6981 84.5884 85.3112C83.6233 85.079 82.7672 84.5225 82.1631 83.7349C81.0274 82.4595 79.6553 81.091 78.5448 79.7942C76.7535 77.6447 71.0215 71.1675 69.8716 69.7632L61.4885 73.9905C61.4885 74.8861 61.4885 76.4195 63.853 78.4436C69.3664 83.1653 72.0497 85.1213 74.9157 87.5001C77.3518 89.5206 77.2694 90.4664 78.6164 91.0324C79.4767 91.3659 80.3703 91.6061 81.2818 91.7489C81.6891 91.8269 82.0921 91.9261 82.4891 92.0463C82.8903 92.1645 85.3551 93.0422 85.6847 93.1676C86.7066 93.5207 87.7046 93.9395 88.6725 94.4215C88.8129 94.4919 88.9461 94.5758 89.0701 94.6722C89.1846 94.7663 89.2891 94.872 89.3818 94.9875C89.6756 95.3278 89.8869 95.7434 90.1771 96.0837C90.3002 96.2242 90.4319 96.357 90.5712 96.4814C91.0727 96.9113 91.7928 97.2624 92.4627 97.0439C92.692 96.9686 92.8747 96.854 92.821 96.5853C92.7665 96.3658 92.677 96.1565 92.5559 95.9655C92.2729 95.4102 92.0938 95.0878 91.6639 94.2997C91.5027 93.9563 91.3096 93.6288 91.0871 93.3216C90.6751 92.9168 90.5819 92.7771 90.238 92.4332C90.5963 92.6123 92.366 93.8053 92.4807 93.9271C92.6992 94.1635 93.1183 95.0269 93.3834 95.4317C93.5204 95.6768 93.7046 95.8922 93.9254 96.0656C94.1461 96.239 94.3991 96.3669 94.6696 96.442C95.472 96.5853 95.7443 96.2342 95.7443 96.1912C95.5318 95.552 95.2645 94.9323 94.9454 94.3391C94.6481 93.662 94.3937 93.0816 94.1644 92.6804C93.8361 92.1741 93.4515 91.7066 93.018 91.2868C93.3512 91.4588 94.3041 92.0714 94.426 92.1645C94.629 92.3444 94.8073 92.5504 94.9562 92.7771C95.3144 93.3324 95.5616 93.7336 96.0596 93.9844C96.2111 94.0733 96.3789 94.1308 96.553 94.1536C96.7272 94.1764 96.9042 94.1639 97.0734 94.117C97.2155 94.0656 97.3357 93.9669 97.4137 93.8375C97.3951 93.6416 97.334 93.4521 97.2346 93.2822Z" fill="#FFB573"/>
<path d="M62.0295 44.0945C64.5838 44.7501 66.0526 45.1227 67.2599 47.4047C68.0588 48.9165 68.9688 53.5272 69.4094 59.3738C69.9862 66.897 69.9898 69.3761 69.9898 69.3761L72.8379 73.0589C72.8379 73.0589 67.9298 74.4131 65.5081 80.0627C65.5081 80.0627 63.8852 78.7443 62.1871 77.168C60.489 75.5918 60.1558 74.5492 59.6113 71.2677C58.9378 67.2087 58.5115 55.7376 58.5115 55.7376L62.0295 44.0945Z" fill="#37474F"/>
<path d="M65.5188 80.0772C67.9406 74.4276 72.8378 73.0591 72.8378 73.0591L75.3456 76.054C75.3456 76.054 70.3874 77.3867 68.5388 82.3592L65.5188 80.0772Z" fill="#263238"/>
<path d="M75.0304 87.5967C75.4628 87.9829 75.8608 88.406 76.2198 88.8613C77.0187 89.9862 77.1656 91.4801 78.011 92.5728C78.7275 93.5078 79.8596 94.0058 80.834 94.6864C81.6764 95.2663 82.4193 95.9789 83.0337 96.7965C83.2451 97.076 83.3919 97.3948 83.5961 97.6742C83.6464 97.7504 83.7117 97.8155 83.7881 97.8654C83.8645 97.9154 83.9504 97.949 84.0404 97.9644C84.1645 97.972 84.2884 97.9453 84.3983 97.8872C84.5083 97.829 84.6001 97.7417 84.6637 97.6348C84.7686 97.4741 84.8529 97.3007 84.9145 97.119C84.9569 96.977 84.9797 96.83 84.9826 96.6819C85.0327 95.4961 84.4631 94.69 83.8469 93.7586C83.2324 92.8228 82.8099 91.7744 82.6038 90.6741" fill="#FFB573"/>
<path d="M91.3594 96.6461C90.6931 96.1804 90.188 95.2131 89.7867 94.6292C89.3855 94.0452 88.0492 93.5544 87.0999 93.1173C86.1505 92.6803 84.0153 91.3261 83.3884 91.0395C82.7615 90.7529 82.8259 91.6019 83.0481 92.236C83.9186 92.5334 85.4304 93.0744 85.6848 93.1711C86.7067 93.5242 87.7047 93.943 88.6726 94.425C88.8137 94.4961 88.948 94.5801 89.0738 94.6757C89.1862 94.7708 89.2894 94.8764 89.3819 94.991C89.6757 95.3313 89.887 95.7469 90.1772 96.0872C90.3003 96.2277 90.432 96.3605 90.5713 96.4849C91.0693 96.9148 91.7929 97.2659 92.4628 97.0473C92.5468 97.0219 92.6256 96.9819 92.6957 96.9291C92.4654 96.9755 92.2281 96.9743 91.9983 96.9257C91.7685 96.877 91.5511 96.7819 91.3594 96.6461Z" fill="#F28F8F"/>
<path d="M94.3328 95.9868C93.6378 95.4781 93.4551 94.5109 93.1578 93.9735C92.8604 93.4361 92.4413 92.9883 91.4776 92.3829C90.2785 91.7348 89.0469 91.1489 87.7876 90.6274C87.7876 90.6274 89.7472 92.0604 90.2452 92.4509C90.6034 92.6301 92.3732 93.823 92.4878 93.9448C92.7064 94.1813 93.1255 95.0447 93.3906 95.4495C93.5276 95.6945 93.7118 95.9099 93.9326 96.0833C94.1533 96.2567 94.4062 96.3847 94.6767 96.4597C94.8418 96.5066 95.0149 96.518 95.1846 96.4933C95.3544 96.4686 95.5171 96.4084 95.6619 96.3164C95.4297 96.3595 95.1909 96.3524 94.9617 96.2955C94.7324 96.2387 94.518 96.1334 94.3328 95.9868Z" fill="#F28F8F"/>
<path d="M96.2316 93.7262C95.7659 93.368 95.1032 91.6412 94.4404 91.2902C94.0821 91.0967 92.3375 89.9181 90.5391 89.4058C91.449 90.0793 92.427 90.8029 93.0468 91.2902C93.38 91.4621 94.3329 92.0747 94.4547 92.1679C94.6577 92.3477 94.836 92.5537 94.9849 92.7805C95.3432 93.3357 95.5904 93.737 96.0883 93.9878C96.2398 94.0766 96.4076 94.1342 96.5818 94.1569C96.756 94.1797 96.9329 94.1673 97.1022 94.1203C97.1667 94.0963 97.2271 94.0625 97.2813 94.02C97.1452 94.1203 96.6902 94.0845 96.2316 93.7262Z" fill="#F28F8F"/>
<path d="M44.658 44.0943C41.1651 45.0293 35.4581 47.0068 35.4581 47.0068C35.4581 47.0068 31.1018 51.3846 28.5583 60.0435C26.767 66.0943 24.8361 79.6075 25.2445 90.5305C30.2599 97.0184 49.6878 98.283 60.1917 88.4204C60.1917 88.4204 59.2459 81.2554 62.18 71.4537C65.8735 59.1228 65.7624 52.8248 64.4978 49.0453C63.7419 46.8098 62.9502 44.8143 62.0295 44.0943C61.4527 43.6823 51.5758 42.2493 44.658 44.0943Z" fill="#455A64"/>
<path d="M41.2261 106.695C44.2246 106.673 45.7472 106.265 46.8076 106.451C47.868 106.638 49.7273 106.412 50.2289 106.48C50.605 106.964 50.2289 107.913 48.846 108.422C47.2662 108.999 44.959 109.6 44.959 109.6L41.2261 106.695Z" fill="#F28F8F"/>
<path d="M33.0042 82.0904L37.4214 62.3114C37.4214 62.3114 39.7249 53.8496 35.4725 47.9814C29.1852 49.8408 26.982 51.2057 25.4989 58.7289C24.6319 63.1461 23.4246 67.5526 21.5581 79.0094C21.2429 80.9475 20.7091 80.9117 22.4645 86.0777C22.9374 87.4677 24.1268 91.3475 25.6887 95.3456C27.48 99.9706 29.4324 105.119 30.346 107.927C30.6147 108.744 30.8081 109.36 31.0374 110.249C31.5354 112.194 32.2304 113.308 33.323 114.111C35.0355 115.375 37.6758 115.683 40.1907 117.091C42.0607 118.141 43.2788 120.316 44.1923 120.645C45.5966 121.136 46.1412 120.559 46.1412 120.559C46.1412 120.559 44.461 117.048 43.3612 115.902C42.7693 115.319 42.145 114.77 41.4911 114.258C42.4405 114.476 43.374 114.759 44.2855 115.103C45.2384 115.519 47.0655 118.367 48.7206 119.198C49.7595 119.721 51.2283 119.198 51.1603 118.84C50.9839 118.425 50.7298 118.048 50.4115 117.729C50.5876 117.924 50.8147 118.065 51.0671 118.137C51.6152 118.284 52.1419 118.324 52.6183 117.926C52.8619 117.715 52.1634 116.665 51.2856 115.25C50.0819 113.297 50.2109 113.14 48.6274 111.915C48.4698 111.793 47.9109 111.435 47.9109 111.435C47.9109 111.435 48.76 111.646 49.4729 111.868C50.1858 112.09 51.2641 113.681 52.2529 114.254C52.5471 114.44 52.896 114.52 53.2419 114.481C53.5877 114.442 53.9099 114.286 54.1552 114.039C54.1552 114.039 51.5687 110.138 50.974 109.719C50.3793 109.299 48.8245 108.73 47.5133 108.286C46.2021 107.841 41.1938 106.731 40.1728 106.372C38.6717 105.846 38.6 105.298 38.4388 104.843C36.9772 100.877 33.0042 82.0904 33.0042 82.0904Z" fill="#FFB573"/>
<path d="M47.9289 117.94C47.0297 117.066 45.2672 114.884 44.7656 114.558C44.2641 114.232 42.7487 113.892 41.5414 113.731C40.3341 113.57 41.4984 114.261 41.4984 114.261C42.4477 114.48 43.3813 114.762 44.2927 115.107C45.2457 115.522 47.0727 118.37 48.7278 119.201C49.0484 119.342 49.394 119.418 49.7442 119.423C50.0943 119.427 50.4419 119.362 50.7663 119.23C49.5124 119.438 48.8353 118.814 47.9289 117.94Z" fill="#F28F8F"/>
<path d="M50.4115 117.747C49.8916 117.204 49.4126 116.623 48.9785 116.009C48.5343 115.404 48.1223 114.77 47.7139 114.154L47.6387 114.046C47.6136 114.017 47.5993 114.01 47.5742 113.985C47.5491 113.96 47.4381 113.888 47.3593 113.838C47.2052 113.742 47.044 113.652 46.8828 113.559L45.9083 113.007C45.2539 112.647 44.6043 112.27 43.9595 111.879C44.676 112.129 45.3674 112.412 46.0481 112.731C46.4063 112.885 46.7287 113.057 47.0655 113.229C47.2339 113.315 47.3987 113.408 47.5635 113.509C47.6459 113.555 47.7318 113.616 47.8142 113.673C47.8658 113.712 47.9127 113.757 47.9539 113.806L48.0435 113.928C48.8532 115.196 49.6055 116.475 50.4115 117.747Z" fill="#F28F8F"/>
<path d="M51.2426 112.563C50.4903 111.7 50.3649 111.603 49.2901 111.241C48.2154 110.879 46.1519 110.342 46.1519 110.342L47.9431 111.453C47.9431 111.453 48.7922 111.664 49.5051 111.886C50.218 112.108 51.2963 113.699 52.2851 114.272C52.5297 114.43 52.8145 114.513 53.1055 114.513C53.3964 114.513 53.6812 114.43 53.9259 114.272C52.4714 114.394 51.9949 113.427 51.2426 112.563Z" fill="#F28F8F"/>
<path d="M35.4582 47.0071C32.5922 47.9815 30.002 48.7983 28.2287 51.3526C26.3407 54.0861 25.4773 56.8983 24.1411 63.8305C22.8048 70.7626 21.3324 78.053 21.0816 79.9266C20.8308 81.8002 21.1855 82.8105 21.7695 84.6161C22.3534 86.4217 23.8366 90.5917 23.8366 90.5917C23.8366 90.5917 25.5669 88.8004 29.3142 87.7257C33.0615 86.6509 34.3834 87.3137 34.3834 87.3137L33.237 82.0331C33.237 82.0331 36.9413 65.8474 37.5826 63.1713C38.2238 60.4952 39.6031 52.6173 35.4582 47.0071Z" fill="#37474F"/>
<path d="M34.3835 87.3208C34.3835 87.3208 33.0723 86.6724 29.3143 87.7472C25.5563 88.8219 23.8367 90.6132 23.8367 90.6132L25.3198 94.776C25.3198 94.776 28.9955 92.2683 35.2326 91.8276L34.3835 87.3208Z" fill="#263238"/>
<path d="M66.5793 27.0706C68.2273 24.0935 67.2958 19.8518 65.8628 17.7561C63.7886 14.7396 60.267 13.1884 54.7571 13.0093C50.562 12.8732 46.2953 14.213 45.1095 18.4188C40.8857 19.3431 40.7209 24.3049 41.312 26.809C42.5337 31.8998 45.3961 36.0949 46.1054 39.2976L66.5793 27.0706Z" fill="#263238"/>
<path d="M65.4759 38.6673C64.591 40.9852 63.047 42.608 60.8187 42.7334C59.486 42.8158 57.0678 42.4038 57.0678 42.4038L56.0611 46.3446C57.3902 49.6763 56.3012 51.8544 54.5601 54.7491C50.8665 48.3794 46.134 49.1676 44.1279 45.4704L46.134 34.6692C46.134 34.6692 44.8623 36.1524 42.7773 34.4973C41.3443 33.3545 40.5024 30.6855 41.8351 28.407C43.1677 26.1286 45.2671 27.3609 45.8797 28.1276C46.4923 28.8942 47.1515 30.2986 47.7354 30.166C48.0702 30.0969 48.3824 29.9453 48.6439 29.7252C48.9053 29.505 49.1078 29.2231 49.2329 28.905C49.7201 27.9449 50.1249 26.6874 50.3757 24.4735C51.0206 24.2191 51.7586 23.9253 52.2243 23.3091C52.8226 22.521 52.9193 21.3889 54.4204 20.1315C56.7024 18.2256 64.5946 18.7701 66.1745 21.9227C67.1239 24.0328 66.7226 28.6936 66.6546 31.3948C66.5793 34.3074 66.2175 36.7256 65.4759 38.6673Z" fill="#FFB573"/>
<path d="M57.1824 35.0272C56.2617 35.1812 54.7714 36.2524 55.1189 36.8901C55.4664 37.5278 56.5233 37.0692 57.7413 37.5815C58.9593 38.0938 59.1456 38.7888 59.9947 38.4843C60.6789 38.2371 60.3529 36.3849 59.7439 35.7903C59.3983 35.4842 58.9899 35.2574 58.5475 35.1256C58.1051 34.9938 57.6392 34.9602 57.1824 35.0272Z" fill="#B16668"/>
<path d="M59.9877 36.1234C59.9239 36.0006 59.8418 35.8883 59.7441 35.7903C59.3984 35.4842 58.9901 35.2574 58.5477 35.1256C58.1052 34.9938 57.6393 34.9602 57.1826 35.0272C56.9851 35.0641 56.7927 35.1242 56.6094 35.2063C57.6498 35.7681 58.806 36.082 59.9877 36.1234Z" fill="#FAFAFA"/>
<path d="M57.7915 37.5926C57.7433 37.0813 57.5092 36.6055 57.1334 36.2555C56.7576 35.9055 56.2664 35.7056 55.753 35.6938C55.2587 36.0772 54.9219 36.5357 55.1082 36.8761C55.4664 37.5102 56.5125 37.0552 57.7306 37.5675L57.7915 37.5926Z" fill="#F28F8F"/>
<path d="M55.71 30.0153C55.71 30.5706 54.9935 31.0077 54.1624 30.9934C53.3313 30.979 52.6434 30.5169 52.6542 29.9616C52.6649 29.4063 53.3707 28.9728 54.1982 28.9872C55.0258 29.0015 55.7208 29.4636 55.71 30.0153Z" fill="#F28F8F"/>
<path d="M67.045 30.4633C67.045 31.0186 66.3285 31.4556 65.4974 31.4413C64.6662 31.427 63.9784 30.9648 63.9891 30.4095C63.9999 29.8543 64.7056 29.4172 65.5332 29.4351C66.3607 29.453 67.0558 29.9116 67.045 30.4633Z" fill="#F28F8F"/>
<path d="M57.0751 42.3962C54.6569 42.038 50.1466 40.4438 48.9715 38.9606C47.7964 37.4775 47.5063 34.6616 47.5063 34.6616C47.5063 34.6616 47.3665 38.1904 48.2228 39.8347C49.079 41.4791 51.5652 42.3962 53.0735 42.9264C54.5817 43.4566 56.6345 44.1087 56.6345 44.1087L57.0751 42.3962Z" fill="#F28F8F"/>
<path d="M57.2219 29.2556C57.1987 29.3798 57.1511 29.4981 57.0819 29.6037C57.0126 29.7093 56.923 29.8001 56.8183 29.8707C56.7137 29.9414 56.596 29.9906 56.4722 30.0153C56.3483 30.0401 56.2208 30.0401 56.097 30.0151C55.832 29.9719 55.5916 29.8341 55.4203 29.6273C55.2491 29.4205 55.1586 29.1587 55.1655 28.8902C55.1655 28.1737 55.7674 27.7868 56.5555 28.12C57.1825 28.3887 57.3329 28.7434 57.2219 29.2556Z" fill="#263238"/>
<path d="M55.7925 25.8271L58.1283 27.4894C57.8586 27.6437 57.5506 27.7178 57.2403 27.7032C56.9301 27.6886 56.6304 27.5859 56.3764 27.407C56.1126 27.2507 55.9105 27.0083 55.8042 26.7207C55.6979 26.433 55.6937 26.1175 55.7925 25.8271Z" fill="#263238"/>
<path d="M62.7139 29.3528C62.752 29.6005 62.8861 29.8233 63.0873 29.9728C63.2885 30.1223 63.5404 30.1866 63.7886 30.1517C64.0529 30.1191 64.2967 29.9927 64.4756 29.7954C64.6545 29.5981 64.7565 29.3431 64.7631 29.0769C64.781 28.3604 64.2006 27.952 63.4017 28.2601C62.782 28.4894 62.6208 28.8405 62.7139 29.3528Z" fill="#263238"/>
<path d="M64.5982 25.9993L62.1943 27.5612C62.3412 27.7798 63.1795 28.0341 63.9426 27.5147C64.2037 27.3697 64.4095 27.1425 64.5281 26.8684C64.6466 26.5944 64.6713 26.2888 64.5982 25.9993Z" fill="#263238"/>
<path d="M59.5291 26.9954L60.027 34.0421L63.7421 32.7847L59.5291 26.9954Z" fill="#F28F8F"/>
<path d="M44.8408 41.594C44.565 43.07 44.977 44.4206 46.7252 46.0829C48.4735 47.7452 51.3466 49.3716 52.013 50.081C52.6793 50.7903 54.5565 54.7382 54.5565 54.7382C54.5565 54.7382 52.5539 52.0083 52.0488 51.7146C51.5437 51.4208 49.0932 55.1287 48.6347 56.0458C48.1761 56.9629 48.2585 56.9629 47.0118 56.0458C44.5936 54.2546 42.2973 50.7151 41.6381 48.6551C40.8965 46.3229 41.158 45.0977 41.158 45.0977C42.1823 44.4505 42.9857 43.5072 43.4616 42.3929C44.0706 41.0316 44.5363 40.7414 44.9662 40.8775L44.8408 41.594Z" fill="#37474F"/>
<path d="M54.5671 54.7271C55.1403 53.5485 56.1112 51.288 56.3584 50.292C56.6056 49.2961 56.079 46.3226 56.079 46.3226L57.0283 42.6255C57.3714 42.9057 57.6469 43.2596 57.8344 43.6608C58.5294 45.058 59.6579 47.6016 59.8513 49.2173C60.1558 51.7788 59.8513 53.6846 59.751 53.8745C59.5146 54.3904 58.6225 50.6503 57.7842 50.6897C57.2182 50.7219 54.5671 54.7271 54.5671 54.7271Z" fill="#37474F"/>
<path d="M42.7665 17.8885C42.5868 17.7134 42.3829 17.565 42.161 17.4479C42.0581 17.3756 41.9411 17.3258 41.8177 17.3017C41.6942 17.2776 41.5671 17.2798 41.4445 17.3082C41.4282 17.3207 41.4146 17.3365 41.4046 17.3544C41.3946 17.3724 41.3884 17.3923 41.3864 17.4128C41.3844 17.4333 41.3866 17.4539 41.3929 17.4735C41.3992 17.4931 41.4095 17.5112 41.423 17.5267C41.6416 17.6915 41.9067 17.7596 42.1395 17.8849C42.3368 18.0037 42.5145 18.1523 42.6662 18.3256C42.8316 18.5069 42.9563 18.7216 43.0317 18.9552C43.1071 19.1889 43.1315 19.4359 43.1032 19.6798C42.9205 20.8799 41.5484 21.059 40.5597 21.0304C40.5202 21.0304 40.4701 21.0304 40.4701 21.0805C40.4701 21.1307 40.4701 21.1164 40.5059 21.1307C40.8607 21.3549 41.2829 21.4475 41.6989 21.3922C42.1969 21.3277 42.9707 21.1271 43.3253 20.5145C43.8197 19.6475 43.4256 18.519 42.7665 17.8885Z" fill="#2196F3"/>
<path d="M47.2123 15.8286C47.1847 15.8291 47.1581 15.8392 47.1371 15.8573C47.0862 15.9119 47.0569 15.9832 47.0547 16.0579C47.0051 16.5758 46.817 17.0708 46.5102 17.4909C46.3562 17.6983 46.155 17.8661 45.9232 17.9801C45.6914 18.0941 45.4358 18.1512 45.1775 18.1465C44.9541 18.1322 44.7382 18.0606 44.5505 17.9387C44.3976 17.8105 44.2886 17.6376 44.2389 17.4443C44.0327 16.8704 43.9367 16.2626 43.9559 15.6531C43.9559 15.5277 43.809 15.3915 43.7445 15.5635C43.6947 15.6906 43.654 15.8211 43.6227 15.954C43.5959 16.121 43.5887 16.2905 43.6012 16.4591C43.6089 16.736 43.6474 17.0111 43.7158 17.2795C43.8555 17.8061 44.1135 18.3543 44.6473 18.5907C44.8807 18.67 45.1275 18.7023 45.3734 18.6857C45.6194 18.6691 45.8596 18.6039 46.0803 18.494C46.5273 18.2883 46.8938 17.9407 47.1228 17.5052C47.2763 17.2107 47.3666 16.8873 47.3879 16.5559C47.4022 16.4735 47.4022 15.8286 47.2123 15.8286Z" fill="#2196F3"/>
<path d="M49.129 19.0205C48.133 18.5763 46.718 18.7303 46.091 19.7048C45.4641 20.6792 46.0122 21.8757 46.8792 22.4274C47.1174 22.5774 47.3808 22.683 47.6566 22.7391C47.8708 22.7842 48.09 22.8011 48.3086 22.7893C48.3238 22.7901 48.339 22.7876 48.3533 22.782C48.3675 22.7765 48.3803 22.768 48.391 22.757C48.4268 22.7105 48.3587 22.6531 48.2978 22.6281C47.4954 22.32 46.2343 21.625 46.3884 20.5896C46.4417 20.3502 46.5524 20.1273 46.7109 19.9401C46.8694 19.7529 47.071 19.607 47.2983 19.5149C47.5437 19.4023 47.8067 19.3332 48.0757 19.3107C48.4125 19.282 48.7492 19.3107 49.086 19.3107C49.1935 19.3214 49.2365 19.0671 49.129 19.0205Z" fill="#2196F3"/>
<path d="M46.0301 23.746C46.0864 23.1613 45.9383 22.5751 45.611 22.0873C45.454 21.8285 45.2141 21.6303 44.9303 21.5249C44.5909 21.4011 44.2228 21.3789 43.8709 21.461C43.5191 21.543 43.1988 21.7258 42.9492 21.987C42.6893 22.2947 42.4844 22.6449 42.3438 23.0224C42.2975 23.1223 42.2581 23.2252 42.2255 23.3304C42.1917 23.447 42.1724 23.5674 42.1682 23.6887C42.2685 23.6887 42.3366 23.592 42.3796 23.5024C42.6401 22.9629 43.0303 22.4964 43.5152 22.1446C43.6407 22.0464 43.7826 21.9712 43.9344 21.9225C44.1961 21.8558 44.4723 21.8747 44.7225 21.9763C44.9506 22.0994 45.1442 22.2776 45.2856 22.4948C45.427 22.7119 45.5118 22.961 45.5322 23.2194C45.5716 23.463 45.5931 23.7066 45.611 23.9359C45.612 24.143 45.624 24.3498 45.6468 24.5557C45.6496 24.5727 45.6577 24.5885 45.6699 24.6007C45.6821 24.6129 45.6978 24.6209 45.7149 24.6237C45.7543 24.6237 45.7829 24.5915 45.8044 24.5592C45.8679 24.459 45.9139 24.3488 45.9406 24.2332C45.9859 24.0741 46.0159 23.9109 46.0301 23.746Z" fill="#2196F3"/>
<path d="M26.6738 33.1967L31.786 32.7417L32.2554 34.3216L34.8312 32.9925L35.0891 34.4219L38.4244 33.4439L33.9427 36.7613L33.7063 35.1635L30.697 37.3488L30.1238 35.1348L27.2649 36.9762L26.6738 33.1967Z" fill="#2196F3"/>
<path opacity="0.3" d="M26.6738 33.1967L31.786 32.7417L32.2554 34.3216L34.8312 32.9925L35.0891 34.4219L38.4244 33.4439L33.9427 36.7613L33.7063 35.1635L30.697 37.3488L30.1238 35.1348L27.2649 36.9762L26.6738 33.1967Z" fill="white"/>
<path d="M36.0778 28.6753L35.7196 30.4057L38.797 32.025L34.0215 31.3909L34.2114 29.9793L30.5286 29.4563L31.6965 26.7981L36.0778 28.6753Z" fill="#2196F3"/>
<path opacity="0.3" d="M36.0778 28.6753L35.7196 30.4057L38.797 32.025L34.0215 31.3909L34.2114 29.9793L30.5286 29.4563L31.6965 26.7981L36.0778 28.6753Z" fill="white"/>
<path d="M33.7313 38.051L35.3936 38.6565L38.8006 34.9414L36.3466 40.5373L34.8097 40.0357L33.2441 43.3388L30.9585 41.3254L33.7313 38.051Z" fill="#2196F3"/>
<path opacity="0.3" d="M33.7313 38.051L35.3936 38.6565L38.8006 34.9414L36.3466 40.5373L34.8097 40.0357L33.2441 43.3388L30.9585 41.3254L33.7313 38.051Z" fill="white"/>
<path d="M70.0723 38.4487C70.5774 38.3878 71.0825 38.352 71.5912 38.3054L73.1102 38.2015C74.1241 38.1299 75.1379 38.0905 76.1518 38.0546C77.1656 38.0188 78.183 37.9973 79.1969 37.9973H80.7194C81.2281 37.9973 81.7333 37.9973 82.242 38.0439C81.7369 38.1048 81.2317 38.1406 80.723 38.1872L79.204 38.2947C78.1902 38.3627 77.1763 38.4021 76.1625 38.438C75.1487 38.4738 74.1312 38.4953 73.1174 38.4953H71.5948C71.0897 38.4774 70.581 38.4774 70.0723 38.4487Z" fill="#2196F3"/>
<path d="M67.6539 37.4132C68.2343 37.2412 68.8218 37.0979 69.4022 36.9403L71.1612 36.5068C72.3327 36.2202 73.5113 35.9623 74.6899 35.7044C75.8686 35.4464 77.0544 35.21 78.2402 34.9879L80.0314 34.6618C80.6297 34.5687 81.2208 34.4612 81.8227 34.3752C81.2423 34.5472 80.6548 34.6905 80.0708 34.8481L78.3118 35.2816C77.1404 35.5682 75.9617 35.8262 74.7831 36.0841C73.6044 36.342 72.4222 36.5785 71.2364 36.8006L69.4452 37.1266C68.8469 37.2341 68.2522 37.3272 67.6539 37.4132Z" fill="#2196F3"/>
<path d="M69.1694 35.0416C69.6172 34.841 70.0758 34.6618 70.5308 34.472L71.9029 33.9453C72.82 33.5871 73.7479 33.2718 74.6757 32.9458C75.6036 32.6198 76.535 32.3189 77.4737 32.0359L78.8852 31.6096C79.358 31.4806 79.8273 31.3409 80.3182 31.2227C79.8668 31.4233 79.4118 31.6024 78.9568 31.7887L77.5811 32.3189C76.664 32.6771 75.7397 32.9924 74.8119 33.3148C73.884 33.6373 72.9525 33.9418 72.0104 34.2284L70.6024 34.6511C70.1152 34.7801 69.6459 34.9234 69.1694 35.0416Z" fill="#2196F3"/>
<path d="M85.9104 42.5505C86.0947 43.314 86.3891 44.0465 86.7845 44.7251C87.3838 45.7209 88.2104 46.5606 89.1968 47.1752C90.1832 47.7898 91.3012 48.1619 92.4592 48.261C93.2176 48.3101 93.9791 48.2486 94.7197 48.0783C95.8133 47.8135 96.8279 47.2915 97.679 46.5556C98.5302 45.8197 99.1934 44.8912 99.6134 43.8474L100.498 44.2307C99.795 45.7544 98.6258 47.0152 97.1594 47.8311C96.4383 48.2301 95.6583 48.5119 94.8487 48.6659C94.0434 48.8089 93.2216 48.8342 92.409 48.7411C90.7934 48.5268 89.2878 47.8041 88.1101 46.6776C87.5317 46.1287 87.0476 45.4884 86.6771 44.7824C86.3127 44.0804 86.0543 43.3283 85.9104 42.5505Z" fill="#2196F3"/>
<path d="M97.9619 42.8337C98.8519 43.3886 99.8331 43.7816 100.86 43.9944C101.857 44.1966 102.883 44.2075 103.884 44.0267C105.864 43.6717 107.63 42.5657 108.813 40.9395C109.997 39.3133 110.506 37.2927 110.236 35.2997C109.937 33.238 108.882 31.361 107.276 30.0334C108.238 30.5441 109.073 31.2639 109.72 32.14C110.38 33.0367 110.841 34.0638 111.074 35.1528C111.312 36.2567 111.312 37.3986 111.074 38.5025C110.835 39.6139 110.365 40.6629 109.696 41.5817C109.026 42.5005 108.172 43.2687 107.187 43.8368L106.829 44.041C106.703 44.1091 106.571 44.1556 106.442 44.2165L106.055 44.3813C105.926 44.4386 105.786 44.4709 105.654 44.5175C105.123 44.7025 104.572 44.8227 104.013 44.8757C102.906 44.9915 101.787 44.8693 100.731 44.5175C99.6957 44.1663 98.7502 43.5914 97.9619 42.8337Z" fill="#2196F3"/>
<path d="M110.175 33.2935L109.497 32.4337C110.848 31.3784 111.789 29.8859 112.158 28.2124C112.528 26.5388 112.303 24.7889 111.523 23.263C110.743 21.7371 109.455 20.5305 107.882 19.8506C106.309 19.1706 104.548 19.0596 102.902 19.5367C102.431 19.6721 101.973 19.8533 101.537 20.0777L101.036 19.1068C101.535 18.8473 102.06 18.6396 102.601 18.4871C104.491 17.9394 106.512 18.0668 108.319 18.8474C110.125 19.628 111.603 21.013 112.499 22.7647C113.394 24.5164 113.653 26.5254 113.229 28.4467C112.804 30.368 111.725 32.0817 110.175 33.2935Z" fill="#2196F3"/>
<path d="M88.4325 19.551C87.2364 19.4405 86.0312 19.6166 84.9167 20.0645C83.8022 20.5124 82.8104 21.2194 82.0234 22.1268C81.2173 23.0614 80.6473 24.1757 80.3611 25.3762C80.0692 26.5985 80.0692 27.8724 80.3611 29.0948C79.7712 27.2238 79.8766 25.2027 80.6579 23.4032C81.4391 21.6037 82.8438 20.1468 84.6135 19.3003C85.8212 18.7109 87.1538 18.4232 88.497 18.462L88.4325 19.551Z" fill="#2196F3"/>
<path d="M100.366 25.1541C100.906 24.1634 101.202 23.058 101.229 21.9298C101.256 20.8432 101.023 19.7659 100.548 18.788C100.075 17.8324 99.3755 17.0071 98.51 16.3841C98.0844 16.0755 97.6238 15.8182 97.1379 15.6175C96.1526 15.2444 95.0955 15.0999 94.0462 15.1947C93.5252 15.2535 93.0129 15.3737 92.5201 15.553C91.521 15.9225 90.6271 16.53 89.9156 17.3227C89.1979 18.1393 88.6836 19.114 88.4145 20.1672C88.1428 21.259 88.1342 22.3996 88.3895 23.4954C87.9074 22.4225 87.7337 21.2365 87.8879 20.0705C88.0568 18.8855 88.5281 17.7639 89.2564 16.814C90.3984 15.3494 92.0719 14.3942 93.9137 14.1558C94.5261 14.077 95.1462 14.077 95.7587 14.1558C96.373 14.2424 96.9746 14.4036 97.5499 14.6359C97.8326 14.7578 98.1078 14.8966 98.3739 15.0514L98.768 15.2879C98.8969 15.3774 99.0151 15.4742 99.1262 15.5637C100.095 16.3109 100.851 17.2991 101.319 18.4297C101.774 19.5492 101.925 20.7691 101.756 21.9656C101.598 23.137 101.116 24.2411 100.366 25.1541Z" fill="#2196F3"/>
<path d="M80.8161 39.7886C80.6539 40.5345 80.7342 41.3127 81.0453 42.0097C81.3327 42.693 81.7978 43.2867 82.3923 43.7293C82.9679 44.1602 83.6589 44.4097 84.3771 44.4458C85.0857 44.4699 85.7918 44.348 86.4513 44.0876L86.7594 44.9975C85.9579 45.2275 85.1171 45.2873 84.2911 45.1731C83.467 45.0393 82.7006 44.6654 82.0878 44.0983C81.4914 43.5552 81.0532 42.8607 80.8196 42.0885C80.5757 41.3415 80.5744 40.5364 80.8161 39.7886Z" fill="#2196F3"/>
<path d="M84.2553 34.4646C84.2495 34.4262 84.2516 34.387 84.2615 34.3495C84.2713 34.3119 84.2887 34.2767 84.3126 34.2461C84.3609 34.1838 84.4316 34.1427 84.5096 34.1314L85.8889 33.9559C85.9671 33.9467 86.0459 33.9686 86.1081 34.0168C86.1704 34.0651 86.2113 34.1358 86.2221 34.2138L86.3618 35.3172C86.3677 35.3559 86.3653 35.3954 86.3548 35.4331C86.3443 35.4707 86.3259 35.5058 86.3009 35.5358C86.2779 35.5668 86.2489 35.5929 86.2157 35.6126C86.1825 35.6323 86.1457 35.6451 86.1074 35.6504L84.7282 35.826C84.6895 35.8319 84.65 35.8295 84.6123 35.819C84.5747 35.8085 84.5397 35.7901 84.5096 35.7651C84.4786 35.7421 84.4525 35.7131 84.4328 35.6799C84.4131 35.6467 84.4003 35.6099 84.395 35.5716L84.2553 34.4646ZM83.485 28.5105C83.4798 28.4719 83.4825 28.4325 83.4929 28.395C83.5034 28.3574 83.5214 28.3223 83.5459 28.292C83.5683 28.2604 83.5971 28.2338 83.6305 28.2141C83.6638 28.1943 83.7009 28.1818 83.7394 28.1773L85.1186 27.9982C85.1573 27.993 85.1966 27.9957 85.2342 28.0061C85.2718 28.0166 85.3068 28.0346 85.3372 28.0591C85.3683 28.0828 85.3945 28.1124 85.4141 28.1462C85.4338 28.18 85.4466 28.2174 85.4518 28.2562L86.0608 32.9671C86.0659 33.0058 86.0631 33.0451 86.0526 33.0826C86.0422 33.1201 86.0243 33.1552 85.9999 33.1857C85.9763 33.2168 85.9467 33.2429 85.9128 33.2626C85.879 33.2823 85.8417 33.2951 85.8029 33.3003L84.4272 33.4758C84.3886 33.4822 84.349 33.4801 84.3112 33.4696C84.2735 33.4591 84.2385 33.4404 84.2087 33.4149C84.1766 33.3931 84.1497 33.3644 84.1299 33.331C84.11 33.2975 84.0978 33.2602 84.0941 33.2215L83.485 28.5105Z" fill="#2196F3"/>
<path d="M87.6514 35.2746C87.6519 35.2354 87.6604 35.1968 87.6765 35.161C87.6925 35.1253 87.7157 35.0932 87.7446 35.0668C87.7713 35.0388 87.8036 35.0168 87.8394 35.002C87.8752 34.9872 87.9136 34.98 87.9523 34.9808L89.3423 35.0023C89.3813 35.0021 89.4198 35.01 89.4556 35.0254C89.4913 35.0408 89.5235 35.0634 89.5501 35.0919C89.6054 35.1483 89.6363 35.2242 89.6361 35.3032V36.4174C89.6363 36.4563 89.6284 36.4949 89.613 36.5306C89.5976 36.5664 89.575 36.5986 89.5465 36.6252C89.4901 36.6805 89.4142 36.7114 89.3352 36.7112L87.9452 36.6897C87.9061 36.6887 87.8676 36.68 87.8319 36.664C87.7962 36.648 87.7641 36.6251 87.7374 36.5965C87.7095 36.5689 87.6875 36.536 87.6728 36.4996C87.658 36.4633 87.6507 36.4244 87.6514 36.3851V35.2746ZM87.7446 29.2703C87.7447 29.2309 87.7527 29.1919 87.7681 29.1556C87.7835 29.1194 87.8059 29.0865 87.8341 29.059C87.8618 29.0314 87.8948 29.0098 87.9312 28.9956C87.9676 28.9815 88.0065 28.975 88.0455 28.9766L89.4355 28.998C89.4744 28.9983 89.5128 29.0064 89.5485 29.0217C89.5842 29.0371 89.6164 29.0595 89.6433 29.0876C89.671 29.1153 89.6929 29.1483 89.7076 29.1846C89.7224 29.2209 89.7297 29.2598 89.7293 29.299L89.654 34.0494C89.6538 34.0882 89.6457 34.1266 89.6303 34.1623C89.6149 34.198 89.5925 34.2303 89.5645 34.2571C89.537 34.2849 89.5039 34.3066 89.4675 34.3208C89.4311 34.335 89.3921 34.3414 89.3531 34.3395L87.9631 34.318C87.9242 34.3182 87.8856 34.3103 87.8499 34.2949C87.8141 34.2795 87.7819 34.2569 87.7553 34.2285C87.7276 34.201 87.7059 34.1679 87.6917 34.1315C87.6775 34.0951 87.6711 34.0562 87.6729 34.0171L87.7446 29.2703Z" fill="#2196F3"/>
<g opacity="0.2">
<path opacity="0.2" d="M87.6514 35.2746C87.6519 35.2354 87.6604 35.1968 87.6765 35.161C87.6925 35.1253 87.7157 35.0932 87.7446 35.0668C87.7713 35.0388 87.8036 35.0168 87.8394 35.002C87.8752 34.9872 87.9136 34.98 87.9523 34.9808L89.3423 35.0023C89.3813 35.0021 89.4198 35.01 89.4556 35.0254C89.4913 35.0408 89.5235 35.0634 89.5501 35.0919C89.6054 35.1483 89.6363 35.2242 89.6361 35.3032V36.4174C89.6363 36.4563 89.6284 36.4949 89.613 36.5306C89.5976 36.5664 89.575 36.5986 89.5465 36.6252C89.4901 36.6805 89.4142 36.7114 89.3352 36.7112L87.9452 36.6897C87.9061 36.6887 87.8676 36.68 87.8319 36.664C87.7962 36.648 87.7641 36.6251 87.7374 36.5965C87.7095 36.5689 87.6875 36.536 87.6728 36.4996C87.658 36.4633 87.6507 36.4244 87.6514 36.3851V35.2746ZM87.7446 29.2703C87.7447 29.2309 87.7527 29.1919 87.7681 29.1556C87.7835 29.1194 87.8059 29.0865 87.8341 29.059C87.8618 29.0314 87.8948 29.0098 87.9312 28.9956C87.9676 28.9815 88.0065 28.975 88.0455 28.9766L89.4355 28.998C89.4744 28.9983 89.5128 29.0064 89.5485 29.0217C89.5842 29.0371 89.6164 29.0595 89.6433 29.0876C89.671 29.1153 89.6929 29.1483 89.7076 29.1846C89.7224 29.2209 89.7297 29.2598 89.7293 29.299L89.654 34.0494C89.6538 34.0882 89.6457 34.1266 89.6303 34.1623C89.6149 34.198 89.5925 34.2303 89.5645 34.2571C89.537 34.2849 89.5039 34.3066 89.4675 34.3208C89.4311 34.335 89.3921 34.3414 89.3531 34.3395L87.9631 34.318C87.9242 34.3182 87.8856 34.3103 87.8499 34.2949C87.8141 34.2795 87.7819 34.2569 87.7553 34.2285C87.7276 34.201 87.7059 34.1679 87.6917 34.1315C87.6775 34.0951 87.6711 34.0562 87.6729 34.0171L87.7446 29.2703Z" fill="white"/>
</g>
<path d="M97.0699 35.6758C96.0668 36.2598 94.9598 36.7111 93.8134 36.249C93.3395 36.0585 92.936 35.7264 92.6578 35.2982C92.3795 34.8699 92.2401 34.3663 92.2586 33.8559C92.2944 33.2233 92.5775 32.6301 93.0467 32.2044C93.5327 31.8115 94.1457 31.6102 94.7699 31.6383C95.041 31.6414 95.3078 31.7059 95.5503 31.827C95.7927 31.9482 96.0046 32.1228 96.1698 32.3377C96.335 32.5525 96.4493 32.8021 96.5041 33.0676C96.5588 33.3331 96.5526 33.6075 96.4859 33.8702C96.3032 34.5366 95.3252 34.6655 94.8093 34.3431C94.6745 34.2411 94.572 34.1023 94.5142 33.9434C94.4563 33.7845 94.4456 33.6123 94.4833 33.4475C94.5279 33.3228 94.6156 33.2182 94.7306 33.1526C94.8455 33.0869 94.9802 33.0644 95.1102 33.0892C95.2786 33.143 95.2464 32.8313 95.1676 32.7668C95.0365 32.6765 94.879 32.6324 94.7201 32.6415C94.5612 32.6505 94.4098 32.7123 94.2899 32.817C94.155 32.9154 94.0446 33.0435 93.9669 33.1913C93.8893 33.3391 93.8466 33.5027 93.842 33.6696C93.842 34.3503 94.3257 35.0668 95.4757 35.0489C95.8528 35.0649 96.2226 34.9415 96.5147 34.7024C96.8067 34.4632 97.0005 34.1249 97.0591 33.752C97.0955 33.3956 97.0516 33.0356 96.9308 32.6984C96.8099 32.3611 96.615 32.0553 96.3605 31.8031C96.0919 31.5226 95.7618 31.3083 95.3963 31.1772C95.0307 31.046 94.6397 31.0015 94.254 31.0472C93.6675 31.1084 93.1135 31.3469 92.6659 31.7308C92.2183 32.1147 91.8983 32.6259 91.7485 33.1963C91.5987 33.7667 91.6262 34.3691 91.8275 34.9235C92.0287 35.4778 92.394 35.9577 92.8748 36.2992C93.4987 36.8238 94.2957 37.0971 95.1102 37.0658C95.5276 37.0708 95.9408 36.9823 96.3196 36.8069C96.6983 36.6315 97.033 36.3735 97.2991 36.052C97.3959 35.9051 97.2597 35.5647 97.0699 35.6758Z" fill="#2196F3"/>
<path d="M103.558 35.6901C102.984 34.576 102.483 33.4332 102.006 32.276C101.774 31.7136 101.559 31.1439 101.354 30.5707C101.149 29.9153 100.888 29.2789 100.573 28.6684C100.498 28.5395 100.373 28.604 100.362 28.7329C100.375 29.4002 100.51 30.0595 100.76 30.6782C100.97 31.3326 101.199 31.9823 101.448 32.6271C101.684 33.2397 101.953 33.8451 102.232 34.4434C102.368 34.7408 102.512 35.0381 102.658 35.3355C102.805 35.6328 102.909 35.9481 103.242 36.1021C103.272 36.1239 103.308 36.1357 103.344 36.1357C103.381 36.1357 103.417 36.1239 103.447 36.1021L103.525 36.034C103.566 35.9872 103.591 35.9289 103.597 35.8673C103.602 35.8056 103.589 35.7437 103.558 35.6901Z" fill="#2196F3"/>
<path d="M106.209 34.7266C105.639 33.6124 105.134 32.4696 104.658 31.3124C104.425 30.75 104.21 30.1804 104.006 29.6072C103.802 28.9512 103.541 28.3146 103.225 27.7049C103.149 27.5759 103.024 27.6404 103.013 27.7729C103.026 28.439 103.161 29.0971 103.411 29.7146C103.623 30.3714 103.853 31.0211 104.099 31.6635C104.339 32.2761 104.604 32.8816 104.883 33.4798C105.023 33.7772 105.163 34.0745 105.31 34.3719C105.456 34.6692 105.564 34.9845 105.893 35.1385C105.923 35.1604 105.959 35.1721 105.996 35.1721C106.032 35.1721 106.068 35.1604 106.098 35.1385L106.177 35.0705C106.217 35.0236 106.242 34.9653 106.248 34.9037C106.253 34.842 106.24 34.7801 106.209 34.7266Z" fill="#2196F3"/>
<path d="M106.768 31.0008C105.732 31.7173 104.665 32.3514 103.576 32.9711C103.045 33.2721 102.501 33.5551 101.967 33.8309C101.342 34.1164 100.742 34.4557 100.176 34.8448C100.058 34.9343 100.14 35.0526 100.269 35.0454C100.928 34.9493 101.565 34.7332 102.146 34.4077C102.773 34.1175 103.386 33.8058 103.991 33.4798C104.597 33.1538 105.138 32.8242 105.696 32.4732C105.976 32.2976 106.252 32.1149 106.528 31.9358C106.803 31.7567 107.104 31.6098 107.215 31.2623C107.231 31.2281 107.235 31.1899 107.228 31.1531C107.22 31.1163 107.201 31.083 107.172 31.0581L107.101 30.9936C107.051 30.9614 106.992 30.9448 106.933 30.9461C106.874 30.9474 106.816 30.9664 106.768 31.0008Z" fill="#2196F3"/>
<path d="M105.474 28.4932C104.439 29.2097 103.371 29.8438 102.282 30.4599C101.752 30.7609 101.216 31.0487 100.674 31.3233C100.047 31.6061 99.4475 31.9454 98.8825 32.3372C98.7643 32.4267 98.8467 32.5414 98.9756 32.5378C99.6353 32.4405 100.272 32.2232 100.853 31.8965C101.48 31.6063 102.092 31.2947 102.698 30.9687C103.303 30.6427 103.844 30.3166 104.403 29.9656C104.683 29.79 104.958 29.6073 105.234 29.4282C105.51 29.2491 105.811 29.1022 105.922 28.7511C105.938 28.7176 105.942 28.6798 105.935 28.6435C105.927 28.6072 105.907 28.5745 105.879 28.5505L105.807 28.4824C105.757 28.4516 105.698 28.4362 105.639 28.4381C105.58 28.4401 105.523 28.4592 105.474 28.4932Z" fill="#2196F3"/>
</svg>
