<svg width="134" height="134" viewBox="0 0 134 134" fill="none" xmlns="http://www.w3.org/2000/svg">
<path d="M43.9268 117.589C43.9268 117.589 46.2473 108.396 43.0423 98.9487C41.2437 93.6708 37.6081 91.0024 35.3053 90.5896C32.7253 90.1296 29.9802 92.0963 32.0884 95.6522C34.0935 99.0312 38.242 100.665 40.2441 109.215C41.5621 114.853 41.1021 118.474 41.1021 118.474L43.9268 117.589Z" fill="#2196F3"/>
<path opacity="0.5" d="M43.9268 117.589C43.9268 117.589 46.2473 108.396 43.0423 98.9487C41.2437 93.6708 37.6081 91.0024 35.3053 90.5896C32.7253 90.1296 29.9802 92.0963 32.0884 95.6522C34.0935 99.0312 38.242 100.665 40.2441 109.215C41.5621 114.853 41.1021 118.474 41.1021 118.474L43.9268 117.589Z" fill="white"/>
<path d="M42.4526 115.098C42.4324 115.096 42.4128 115.09 42.3951 115.08C42.3773 115.07 42.3616 115.057 42.349 115.041C42.3364 115.025 42.3271 115.007 42.3216 114.987C42.3161 114.968 42.3145 114.947 42.3169 114.927C44.0153 104.799 38.9527 95.8027 34.8247 92.6596C34.8083 92.649 34.7944 92.6348 34.784 92.6182C34.7737 92.6016 34.7672 92.5829 34.7649 92.5634C34.7627 92.544 34.7647 92.5243 34.771 92.5057C34.7773 92.4872 34.7875 92.4703 34.8011 92.4561C34.8329 92.4282 34.8738 92.4127 34.9161 92.4127C34.9585 92.4127 34.9993 92.4282 35.0311 92.4561C39.2239 95.6524 44.3603 104.757 42.6413 114.998C42.6279 115.035 42.6011 115.066 42.5662 115.084C42.5314 115.103 42.4909 115.108 42.4526 115.098Z" fill="white"/>
<path d="M41.0933 118.483C40.8456 116.103 39.5158 113.573 36.5201 110.764C33.5244 107.954 29.3345 105.273 30.0894 103.047C30.8442 100.821 34.2321 101.555 36.5762 102.985C38.9202 104.415 44.0271 109.788 42.5204 118.038L41.0933 118.483Z" fill="#2196F3"/>
<path opacity="0.65" d="M41.0933 118.483C40.8456 116.103 39.5158 113.573 36.5201 110.764C33.5244 107.954 29.3345 105.273 30.0894 103.047C30.8442 100.821 34.2321 101.555 36.5762 102.985C38.9202 104.415 44.0271 109.788 42.5204 118.038L41.0933 118.483Z" fill="white"/>
<path d="M41.9013 115.906C41.8654 115.902 41.832 115.886 41.8067 115.86C41.7814 115.834 41.7659 115.8 41.7627 115.764C41.5769 110.752 35.4528 104.041 32.522 102.861C32.5032 102.855 32.4859 102.845 32.4711 102.832C32.4563 102.819 32.4444 102.803 32.4361 102.785C32.4279 102.767 32.4233 102.747 32.4229 102.728C32.4224 102.708 32.4261 102.688 32.4335 102.67C32.453 102.633 32.486 102.605 32.5255 102.592C32.565 102.579 32.6081 102.581 32.6458 102.599C35.7182 103.837 41.8954 110.56 42.0811 115.764C42.0812 115.784 42.0771 115.804 42.0691 115.822C42.0611 115.841 42.0494 115.857 42.0347 115.871C42.02 115.884 42.0027 115.895 41.9838 115.901C41.9649 115.908 41.9448 115.91 41.9249 115.909L41.9013 115.906Z" fill="white"/>
<path d="M60.6036 112.58L59.946 106.748L66.5891 106.158C66.5891 106.158 66.309 110.655 66.3503 112.716C66.368 113.689 67.055 115.517 67.055 115.517C67.055 115.517 64.2745 116.959 62.8327 116.369C61.3908 115.779 60.4326 113.503 60.4738 113.087C60.5151 112.671 60.6036 112.58 60.6036 112.58Z" fill="#FFB573"/>
<path d="M74.7537 121.75C74.8451 121.75 74.9159 122.596 74.4087 123.012C73.819 123.49 71.9703 124.404 69.7471 124.082C67.5239 123.761 66.3268 123.059 65.4481 122.313C64.5694 121.567 63.3399 120.503 62.3344 120.267C61.4313 120.006 60.5878 119.572 59.8518 118.987C59.5569 118.692 59.6218 117.43 59.6218 117.43L74.7537 121.75Z" fill="#263238"/>
<path d="M60.6007 112.571C60.5183 112.573 60.439 112.603 60.3765 112.657C60.3141 112.711 60.2724 112.785 60.2587 112.866C60.185 113.214 60.0906 114.228 59.9314 114.8C59.7132 115.593 59.5451 117.224 59.6572 117.875C59.7692 118.527 61.5325 119.35 62.4996 119.724C63.6376 120.235 64.6914 120.916 65.625 121.744C66.657 122.629 68.8448 123.537 70.2985 123.551C72.0175 123.569 73.9635 123.053 74.4264 122.275C74.9925 121.313 75.4142 120.193 72.8873 118.984C72.4067 118.757 70.7319 117.74 70.1599 117.371C68.6148 116.375 67.5327 115.467 66.8457 113.739C66.7896 113.527 66.6639 113.34 66.489 113.208C66.3328 113.141 66.16 113.124 65.9936 113.158C65.5661 113.208 63.8677 113.408 63.4785 113.582C63.1335 113.739 62.6441 113.919 62.6441 114.349C62.6498 114.499 62.6797 114.648 62.7325 114.788C62.759 114.877 62.7826 114.995 62.703 115.045C62.6234 115.095 62.532 115.045 62.4642 114.977C62.2188 114.721 61.9949 114.445 61.7949 114.151C61.5958 113.89 61.3812 113.641 61.1521 113.405C61.0012 113.317 60.8564 113.218 60.7187 113.111C60.5653 112.96 60.6066 112.772 60.6007 112.571Z" fill="#455A64"/>
<path d="M65.625 121.75C65.1886 121.381 64.7227 121.025 64.2539 120.703C64.2539 120.703 67.2201 122.537 68.4379 121.75C69.2281 121.24 68.8684 120.597 68.8536 120.391C68.8389 120.184 71.6194 118.796 72.3919 118.722C72.6012 118.84 72.7722 118.94 72.8872 118.987C74.8628 119.807 75.1075 120.821 74.7537 122.086C74.2966 122.865 72.554 123.643 70.3308 123.605C68.8743 123.572 66.6688 122.608 65.625 121.75Z" fill="#37474F"/>
<path d="M68.6621 119.786C70.2366 120.438 69.5466 120.718 69.1102 120.771C68.6739 120.824 66.0261 119.247 64.4221 117.949C62.7502 116.599 61.4735 114.8 60.8366 114.302C60.6067 114.119 60.356 113.892 60.1349 113.68C60.185 113.338 60.2233 113.025 60.2587 112.86C60.2725 112.779 60.3141 112.705 60.3766 112.651C60.439 112.597 60.5183 112.567 60.6008 112.565C60.6008 112.766 60.5654 112.955 60.7158 113.108C60.8535 113.216 60.9983 113.314 61.1492 113.403C61.3783 113.638 61.5929 113.887 61.792 114.149C61.992 114.442 62.2158 114.718 62.4613 114.974C63.8147 116.737 67.0905 119.135 68.6621 119.786Z" fill="#37474F"/>
<path d="M69.0012 120.541C68.9656 120.539 68.9316 120.525 68.9039 120.503C68.8878 120.49 68.8746 120.474 68.865 120.456C68.8554 120.438 68.8496 120.418 68.8479 120.397C68.8462 120.377 68.8488 120.356 68.8554 120.337C68.8619 120.318 68.8724 120.3 68.8862 120.285C69.3432 119.754 71.4868 118.515 72.6514 118.657C72.6746 118.654 72.6981 118.657 72.7201 118.664C72.7421 118.672 72.7621 118.685 72.7785 118.701C72.7949 118.718 72.8073 118.738 72.8148 118.76C72.8222 118.782 72.8245 118.806 72.8215 118.829C72.8185 118.852 72.8103 118.874 72.7974 118.894C72.7845 118.913 72.7674 118.929 72.7473 118.941C72.7272 118.953 72.7047 118.96 72.6814 118.962C72.6582 118.964 72.6348 118.96 72.6131 118.952C71.5251 118.816 69.4877 120.052 69.125 120.473C69.111 120.493 69.0925 120.51 69.071 120.522C69.0495 120.533 69.0256 120.54 69.0012 120.541Z" fill="#263238"/>
<path d="M67.6359 119.686C67.5994 119.686 67.564 119.673 67.5356 119.651C67.52 119.638 67.5071 119.621 67.4977 119.603C67.4883 119.585 67.4826 119.565 67.481 119.545C67.4793 119.525 67.4817 119.504 67.4881 119.485C67.4944 119.466 67.5046 119.448 67.5179 119.432C67.975 118.902 70.1185 117.663 71.2832 117.805C71.3034 117.807 71.323 117.813 71.3407 117.823C71.3585 117.833 71.3742 117.846 71.3868 117.862C71.3994 117.878 71.4087 117.896 71.4142 117.916C71.4197 117.935 71.4213 117.956 71.4188 117.976C71.4167 117.996 71.4104 118.016 71.4004 118.034C71.3904 118.052 71.3769 118.068 71.3607 118.081C71.3444 118.093 71.3258 118.102 71.3059 118.108C71.286 118.113 71.2653 118.114 71.2449 118.111C70.1569 117.979 68.1194 119.211 67.7568 119.633C67.7418 119.65 67.7232 119.664 67.7023 119.673C67.6814 119.682 67.6587 119.687 67.6359 119.686Z" fill="#263238"/>
<path d="M66.2649 118.86C66.2294 118.86 66.1952 118.847 66.1676 118.825C66.1519 118.812 66.139 118.796 66.1296 118.778C66.1203 118.76 66.1146 118.74 66.1129 118.72C66.1113 118.699 66.1137 118.679 66.12 118.659C66.1264 118.64 66.1365 118.622 66.1499 118.607C66.6069 118.073 68.7505 116.838 69.9152 116.976C69.9562 116.981 69.9935 117.003 70.0189 117.035C70.0443 117.068 70.0558 117.109 70.0508 117.15C70.0487 117.171 70.0424 117.19 70.0323 117.208C70.0223 117.226 70.0087 117.242 69.9924 117.254C69.9762 117.266 69.9575 117.275 69.9376 117.28C69.9177 117.285 69.8971 117.286 69.8768 117.283C68.7888 117.15 66.7514 118.386 66.3887 118.807C66.373 118.824 66.3538 118.838 66.3325 118.847C66.3111 118.856 66.2881 118.861 66.2649 118.86Z" fill="#263238"/>
<path d="M65.0028 117.932C64.9663 117.932 64.9309 117.919 64.9026 117.896C64.8869 117.883 64.874 117.867 64.8646 117.849C64.8552 117.831 64.8496 117.811 64.8479 117.791C64.8463 117.771 64.8487 117.75 64.855 117.731C64.8614 117.711 64.8715 117.693 64.8849 117.678C65.3419 117.144 67.4914 115.909 68.6502 116.048C68.6912 116.053 68.7285 116.074 68.7539 116.106C68.7793 116.139 68.7908 116.18 68.7858 116.221C68.7837 116.242 68.7774 116.262 68.7673 116.279C68.7573 116.297 68.7437 116.313 68.7274 116.325C68.7111 116.338 68.6925 116.347 68.6726 116.352C68.6527 116.357 68.632 116.357 68.6118 116.354C67.5238 116.221 65.4864 117.457 65.1237 117.879C65.1084 117.895 65.0897 117.909 65.0689 117.918C65.0481 117.927 65.0256 117.932 65.0028 117.932Z" fill="#263238"/>
<path d="M63.7615 117.003C63.7269 117.003 63.6934 116.99 63.6672 116.967C63.6512 116.955 63.6379 116.94 63.628 116.922C63.6181 116.904 63.6119 116.885 63.6097 116.865C63.6075 116.845 63.6093 116.824 63.6152 116.805C63.621 116.786 63.6307 116.768 63.6436 116.752C64.2746 115.997 66.5155 114.965 67.6772 115.113C67.7004 115.11 67.7239 115.113 67.7459 115.12C67.7679 115.128 67.7879 115.141 67.8043 115.157C67.8207 115.174 67.8331 115.194 67.8405 115.216C67.848 115.238 67.8503 115.262 67.8473 115.285C67.8443 115.308 67.836 115.33 67.8232 115.349C67.8103 115.369 67.7932 115.385 67.7731 115.397C67.753 115.409 67.7304 115.416 67.7072 115.418C67.6839 115.42 67.6606 115.416 67.6389 115.408C66.5921 115.278 64.4456 116.269 63.8854 116.938C63.8719 116.958 63.8535 116.975 63.8318 116.986C63.8102 116.998 63.786 117.003 63.7615 117.003Z" fill="#263238"/>
<path d="M49.5939 115.319L51.1743 108.313L44.26 107.234L44.1479 114.152C44.1479 114.152 43.6202 116.009 44.0094 116.649C44.3986 117.289 48.5501 117.961 48.9305 117.534C49.3108 117.106 49.5939 115.319 49.5939 115.319Z" fill="#FFB573"/>
<path d="M48.9038 126.356C48.724 127.927 48.3938 128.944 47.7244 129.794C47.0551 130.643 45.8344 130.79 44.6344 130.383C43.4343 129.976 41.9011 129.033 41.6269 127.623C41.3526 126.214 41.4647 125.288 41.8097 123.852L48.9038 126.356Z" fill="#263238"/>
<path d="M44.1537 114.152C43.6525 114.125 43.7881 115.36 43.564 117.48C43.3075 119.771 42.2755 121.567 41.9069 123.404C41.4882 125.503 41.5678 126.473 42.3492 127.871C43.1306 129.269 46.0644 130.902 47.63 129.23C48.9068 127.868 49.0365 126.202 49.0335 124.053C49.0335 121.832 49.0041 120.267 49.1898 118.607C49.3638 117.018 50.0301 115.549 49.6056 115.319C49.5613 115.549 49.1338 117.159 48.8537 117.133C48.8429 116.936 48.8518 116.738 48.8802 116.543C48.8986 116.451 48.8982 116.356 48.8789 116.264C48.8596 116.173 48.822 116.086 48.7682 116.009C48.5284 115.823 48.2552 115.683 47.9632 115.599C47.4738 115.455 46.6039 115.272 46.1056 115.172C45.858 115.122 45.6103 115.08 45.3597 115.051C45.1484 115.021 44.934 115.021 44.7228 115.051C44.6624 115.056 44.6043 115.076 44.553 115.108C44.5018 115.141 44.4589 115.185 44.4279 115.237C44.3988 115.313 44.3857 115.394 44.3896 115.475C44.3836 115.623 44.3548 115.768 44.3041 115.906C44.2834 115.968 44.2304 116.039 44.1596 116.015C44.1345 116.002 44.1139 115.982 44.1007 115.957C44.0875 115.933 44.0823 115.904 44.0859 115.876C44.0977 115.605 44.136 114.287 44.1537 114.152Z" fill="#455A64"/>
<path d="M42.0397 122.811C41.9748 123.106 41.5797 125.117 42.1901 125.562C42.8505 126.046 43.3017 124.486 43.3017 124.486C43.3017 124.486 44.9175 124.247 47.1908 125.43C47.0551 125.748 47.3618 126.883 48.0075 126.73C48.6533 126.577 49.0159 124.268 49.0218 124.238C49.0218 126.302 48.8567 127.909 47.6183 129.23C46.0526 130.902 43.1188 129.266 42.3375 127.871C41.5561 126.476 41.4765 125.512 41.8952 123.404C41.9365 123.195 41.9866 122.997 42.0397 122.811Z" fill="#37474F"/>
<path d="M43.4756 124.646C43.4284 125.415 42.5911 125.049 42.5911 123.953C42.5911 122.856 43.1808 120.196 43.399 118.406C43.5434 115.826 43.6466 114.125 44.1479 114.152C44.1479 114.175 44.1479 114.202 44.1479 114.228C44.1479 114.255 44.0948 115.703 44.0889 115.865C43.9975 117.439 43.9769 120.5 43.7528 121.921C43.6037 122.823 43.5112 123.732 43.4756 124.646Z" fill="#37474F"/>
<path d="M46.9136 125.377C47.1733 124.506 47.3771 123.62 47.524 122.723C47.7658 121.316 48.609 118.498 49.0248 116.982C49.1604 116.734 49.585 115.319 49.585 115.319C49.9329 115.416 49.585 116.767 49.4228 117.398C49.2607 118.029 49.0631 118.707 48.8597 119.612C48.3407 121.399 48.2906 124.082 47.9574 125.111C47.6242 126.14 46.722 126.117 46.9136 125.377Z" fill="#37474F"/>
<path d="M47.2379 125.501C47.2142 125.495 47.1914 125.486 47.1701 125.474C45.9998 124.832 44.6678 124.545 43.337 124.648C43.2897 124.655 43.2418 124.644 43.2018 124.618C43.1618 124.592 43.1324 124.553 43.1188 124.507C43.1135 124.485 43.1131 124.463 43.1175 124.441C43.122 124.42 43.1311 124.399 43.1443 124.381C43.1576 124.364 43.1746 124.349 43.1941 124.339C43.2136 124.328 43.2352 124.322 43.2574 124.321C44.6802 124.201 46.1064 124.509 47.3529 125.206C47.3732 125.216 47.3912 125.23 47.4058 125.247C47.4204 125.264 47.4312 125.284 47.4376 125.306C47.444 125.327 47.4458 125.35 47.4429 125.372C47.4399 125.395 47.4324 125.416 47.4207 125.436C47.3996 125.463 47.3712 125.483 47.3388 125.495C47.3064 125.506 47.2714 125.508 47.2379 125.501Z" fill="#263238"/>
<path d="M47.7362 123.873C47.7156 123.869 47.6957 123.862 47.6772 123.852C46.3494 123.171 44.8655 122.853 43.3753 122.929C43.3274 122.934 43.2796 122.921 43.2402 122.893C43.2008 122.866 43.1724 122.825 43.16 122.779C43.1562 122.757 43.1571 122.735 43.1627 122.713C43.1683 122.692 43.1785 122.672 43.1925 122.655C43.2065 122.638 43.224 122.624 43.2438 122.614C43.2637 122.605 43.2854 122.6 43.3075 122.599C44.8782 122.513 46.4432 122.85 47.8394 123.575C47.8598 123.585 47.8781 123.598 47.8931 123.615C47.9081 123.632 47.9195 123.652 47.9267 123.674C47.9339 123.695 47.9366 123.718 47.9348 123.74C47.9329 123.763 47.9266 123.785 47.916 123.805C47.8958 123.832 47.868 123.853 47.8361 123.865C47.8042 123.877 47.7695 123.88 47.7362 123.873Z" fill="#263238"/>
<path d="M43.5876 121.352C43.5532 121.345 43.5212 121.329 43.4944 121.307C43.4676 121.284 43.4469 121.255 43.4343 121.222C43.4276 121.201 43.4257 121.179 43.4288 121.157C43.4318 121.135 43.4396 121.114 43.4517 121.095C43.4639 121.076 43.48 121.061 43.4989 121.049C43.5178 121.037 43.539 121.03 43.5611 121.028C45.8344 120.63 47.9839 121.912 48.0871 121.965C48.1071 121.975 48.1248 121.99 48.1391 122.007C48.1535 122.024 48.1641 122.044 48.1705 122.066C48.1768 122.087 48.1787 122.11 48.176 122.132C48.1734 122.154 48.1662 122.176 48.1549 122.195C48.1245 122.231 48.082 122.255 48.0353 122.262C47.9887 122.269 47.9411 122.259 47.9013 122.234C47.8807 122.234 45.7784 120.98 43.6672 121.349C43.6413 121.356 43.6141 121.357 43.5876 121.352Z" fill="#263238"/>
<path d="M43.7882 119.866C43.7548 119.858 43.7237 119.843 43.6975 119.821C43.6713 119.799 43.6508 119.771 43.6379 119.739C43.6307 119.718 43.6283 119.695 43.6309 119.673C43.6335 119.651 43.641 119.63 43.6528 119.611C43.6647 119.592 43.6806 119.576 43.6995 119.564C43.7183 119.552 43.7395 119.544 43.7617 119.541C46.2621 119.061 48.2936 120.426 48.3791 120.476C48.3987 120.487 48.4158 120.502 48.4291 120.52C48.4425 120.539 48.4518 120.559 48.4566 120.581C48.4613 120.603 48.4613 120.626 48.4566 120.648C48.4519 120.67 48.4426 120.691 48.4292 120.709C48.3971 120.744 48.353 120.766 48.3055 120.77C48.2581 120.775 48.2108 120.761 48.1727 120.733C48.155 120.733 46.1972 119.421 43.8708 119.866C43.8435 119.87 43.8156 119.87 43.7882 119.866Z" fill="#263238"/>
<path d="M44.024 118.194C43.9905 118.188 43.9591 118.173 43.9328 118.152C43.9065 118.13 43.8861 118.102 43.8737 118.07C43.866 118.049 43.863 118.027 43.865 118.005C43.867 117.983 43.8739 117.962 43.8852 117.943C43.8965 117.924 43.912 117.908 43.9304 117.896C43.9488 117.884 43.9697 117.876 43.9916 117.873C46.3504 117.389 48.5501 118.796 48.6415 118.857C48.6612 118.868 48.6785 118.883 48.6921 118.901C48.7058 118.919 48.7156 118.94 48.7209 118.962C48.7261 118.983 48.7268 119.006 48.7228 119.028C48.7187 119.051 48.7101 119.072 48.6975 119.09C48.6662 119.126 48.6231 119.148 48.5763 119.153C48.5296 119.159 48.4824 119.147 48.4439 119.12C48.4203 119.105 46.2856 117.746 44.1066 118.197C44.0791 118.2 44.0512 118.199 44.024 118.194Z" fill="#263238"/>
<path d="M46.8075 61.3048C44.6109 66.6888 46.0527 73.8892 45.8286 79.7568C45.5603 86.7772 45.4394 92.2792 45.4394 92.2792C45.3569 93.2227 44.8173 94.5437 44.3809 99.1994C43.915 104.112 43.9327 111.135 43.9327 111.135C43.9327 111.135 48.0842 112.904 50.6642 111.993C50.6642 111.993 53.4388 101.473 54.7922 95.6907C56.0542 90.2005 56.9859 81.6497 56.9859 81.6497L58.4926 89.9056C58.4926 89.9056 58.3039 93.4439 58.3923 95.9266C58.4955 98.8132 60.0524 109.855 60.0524 109.855C60.0524 109.855 63.9091 112.164 66.5922 109.962C66.5922 109.962 67.9014 93.7446 67.9869 90.286C68.1579 83.4808 68.3525 70.0974 67.5476 61.3196L46.8075 61.3048Z" fill="#37474F"/>
<path d="M56.9858 81.6498L58.7078 70.8522C58.7078 70.8522 62.4229 70.233 64.0152 68.688C63.1139 70.2525 61.6297 71.3964 59.8872 71.8695L58.0827 81.8591L58.4925 89.9057L56.9858 81.6498Z" fill="#263238"/>
<path d="M43.8618 111.365C45.0206 112.273 48.3967 113.049 50.7083 112.211L51.1742 110.251C49.4287 110.84 45.8344 110.466 43.9001 109.272L43.8618 111.365Z" fill="#455A64"/>
<path d="M60.0523 110.068C60.8337 110.861 64.4604 111.515 66.604 110.262L66.7602 108.304C65.1356 109.207 61.4057 109.053 59.8135 108.125L60.0523 110.068Z" fill="#455A64"/>
<path d="M45.7076 80.7211C45.7076 80.7211 45.3479 89.4664 45.3715 90.1033C45.3951 90.7402 50.157 91.9992 50.2749 91.5953C50.4813 90.923 50.4282 89.4193 50.8381 82.16C46.8959 81.6646 45.7076 80.7211 45.7076 80.7211Z" fill="#455A64"/>
<path d="M50.098 84.6662C49.9513 84.6314 49.8003 84.6185 49.6498 84.6279C49.4749 84.6279 49.3009 84.619 49.1279 84.6013C48.7587 84.5718 48.3922 84.5156 48.0311 84.4333C47.6231 84.3402 47.2222 84.219 46.831 84.0706C46.5126 83.9468 46.2118 83.7757 45.8904 83.6637C45.8609 83.6637 45.858 83.7109 45.8904 83.7227C46.2033 83.9342 46.541 84.1065 46.8959 84.2357C47.2183 84.3648 47.5493 84.4712 47.8866 84.5542C48.2466 84.6426 48.612 84.7076 48.9805 84.7488C49.1633 84.7694 49.3491 84.7812 49.5319 84.7871C49.7288 84.8236 49.9317 84.8094 50.1216 84.7458C50.1245 84.734 50.1275 84.6751 50.098 84.6662Z" fill="#37474F"/>
<path d="M48.0281 83.4454C47.9838 83.354 47.9485 83.298 47.8453 83.2862C47.7607 83.2767 47.6757 83.2988 47.6064 83.3481C47.5745 83.3715 47.5477 83.401 47.5274 83.4349C47.5071 83.4689 47.4939 83.5065 47.4885 83.5457C47.4814 83.6083 47.492 83.6717 47.5191 83.7286C47.5463 83.7855 47.5889 83.8336 47.6421 83.8674C47.6953 83.9012 47.7569 83.9194 47.82 83.9199C47.883 83.9203 47.9449 83.9031 47.9986 83.87C48.0276 83.8458 48.0502 83.8149 48.0646 83.78C48.079 83.7451 48.0847 83.7071 48.0811 83.6695C48.0814 83.5917 48.0632 83.5149 48.0281 83.4454ZM47.9396 83.7108C47.9111 83.7447 47.8719 83.7678 47.8285 83.7764C47.7851 83.7849 47.74 83.7785 47.7008 83.758C47.5769 83.6872 47.6035 83.4631 47.7509 83.4366C47.7976 83.4305 47.845 83.442 47.8836 83.469C47.9203 83.4967 47.9461 83.5364 47.9563 83.5812C47.9666 83.6259 47.9607 83.6729 47.9396 83.7138V83.7108Z" fill="#37474F"/>
<path d="M61.7036 38.5273C64.0978 38.9578 65.2596 39.5682 67.0582 42.4548C68.8568 45.3414 72.513 53.5826 72.513 53.5826L76.9033 62.5432L73.5 64.5C73.5 64.5 70.8647 61.3844 69.1959 59.3381C67.9604 57.8255 67.1319 56.7198 65.5161 53.8951C63.9003 51.0704 62.4732 48.1543 62.4732 48.1543L61.7036 38.5273Z" fill="#FFB573"/>
<path d="M48.6651 55.4754C48.6651 56.0946 47.0876 59.2083 46.2296 62.5666C51.3925 69.2244 66.6925 65.5918 67.8129 61.8442C67.5711 57.392 67.3647 46.1433 66.3888 44.1088C65.3083 41.8923 63.6993 39.9754 61.7036 38.5272C60.6249 38.3196 59.535 38.1748 58.4395 38.0938C56.8104 37.9247 55.1663 37.9663 53.5479 38.2176C52.1002 38.4417 49.7148 39.0697 49.7148 39.0697C48.8066 39.8363 46.2945 43.065 46.8753 46.9571C47.1466 48.7439 48.6828 51.0762 48.6651 55.4754Z" fill="#2196F3"/>
<path opacity="0.2" d="M48.6651 55.4754C48.6651 56.0946 47.0876 59.2083 46.2296 62.5666C51.3925 69.2244 66.6925 65.5918 67.8129 61.8442C67.5711 57.392 67.3647 46.1433 66.3888 44.1088C65.3083 41.8923 63.6993 39.9754 61.7036 38.5272C60.6249 38.3196 59.535 38.1748 58.4395 38.0938C56.8104 37.9247 55.1663 37.9663 53.5479 38.2176C52.1002 38.4417 49.7148 39.0697 49.7148 39.0697C48.8066 39.8363 46.2945 43.065 46.8753 46.9571C47.1466 48.7439 48.6828 51.0762 48.6651 55.4754Z" fill="white"/>
<path d="M57.3397 63.1624C57.1657 62.7821 58.9791 62.4695 59.6455 61.6439C59.9757 61.2341 59.9403 60.4409 59.2533 60.7122C57.8351 61.2842 57.0242 61.1427 56.0836 61.3844" fill="#FFB573"/>
<path d="M56.0836 61.3845C55.146 61.6263 54.397 61.6557 52.9847 61.2872C51.4839 60.895 46.3593 56.6727 46.3593 56.6727L49.8828 47.8271C49.8828 47.8271 51.5488 43.9144 49.7207 39.0729C46.2384 39.8218 45.404 41.1192 44.7553 42.2396C44.1066 43.3601 43.7617 44.3832 42.0663 49.0212C40.5949 53.049 39.8372 55.4078 39.504 57.0531C39.0941 59.0758 40.418 60.1343 42.9538 61.6145C45.4895 63.0946 47.1731 63.873 50.8765 65.6422C52.6456 66.4943 53.7513 66.6948 55.3819 67.1577C55.9945 67.3545 56.6343 67.454 57.2778 67.4526C57.867 67.4653 58.4503 67.3326 58.9761 67.0663C59.0669 67.0055 59.1663 66.9588 59.271 66.9277C59.3775 66.9132 59.4849 66.9063 59.5924 66.9071C59.792 66.9073 59.9907 66.8785 60.1821 66.8216C60.3765 66.7315 60.5612 66.6218 60.7335 66.4943C60.8141 66.4377 60.8978 66.3856 60.9841 66.338C61.0793 66.2976 61.178 66.266 61.2789 66.2437C61.5437 66.2015 61.799 66.1137 62.0338 65.9842C62.0929 65.9453 62.1408 65.8917 62.1729 65.8286C62.205 65.7655 62.22 65.6952 62.2166 65.6245C62.2166 65.6245 62.5615 65.595 62.6795 65.5773C62.8424 65.5534 63.0025 65.5129 63.1571 65.4564C63.1885 65.4488 63.2178 65.4346 63.2432 65.4148C63.2687 65.395 63.2896 65.37 63.3046 65.3414C63.3149 65.3038 63.3149 65.2641 63.3046 65.2264C63.1689 64.6367 62.5733 64.451 62.0485 64.3419C60.6804 64.047 59.7604 64.1502 58.4247 63.705C57.6994 63.4632 57.5195 63.3924 57.3485 63.1801" fill="#FFB573"/>
<path d="M46.3594 56.6726C45.565 55.9147 44.6945 55.2409 43.7617 54.6617C43.7617 54.6617 44.7731 54.5644 46.5717 56.136L46.3594 56.6726Z" fill="#F0997A"/>
<path d="M62.1458 65.648C61.7992 65.6873 61.4509 65.7089 61.1021 65.7128C60.7512 65.7128 60.4032 65.7128 60.0553 65.7276C59.8843 65.7276 59.7103 65.7276 59.5305 65.7276C59.3506 65.7276 59.1796 65.7099 59.0056 65.6892C58.6577 65.6509 58.3127 65.6008 57.9707 65.53L58.4926 65.5595L59.0145 65.589C59.1885 65.589 59.3624 65.589 59.5334 65.589C59.7044 65.589 59.8784 65.589 60.0553 65.589C60.4032 65.589 60.7541 65.589 61.1021 65.6037L62.1458 65.648Z" fill="#F0997A"/>
<path d="M61.0225 66.3173C60.7629 66.4046 60.4952 66.4658 60.2234 66.5001C59.9581 66.5325 59.6897 66.5531 59.4214 66.5649C59.1531 66.5767 58.8848 66.5649 58.6135 66.5649C58.345 66.56 58.0771 66.5374 57.8115 66.4971C58.0798 66.4971 58.3452 66.4735 58.6135 66.4617L59.4155 66.4293L60.2146 66.3939C60.477 66.3703 60.7542 66.3408 61.0225 66.3173Z" fill="#F0997A"/>
<path d="M78.6479 62.7614C79.4706 62.6228 79.503 62.5255 79.562 62.095C79.6184 61.7599 79.5944 61.4162 79.4919 61.0922C79.3893 60.7682 79.2112 60.4732 78.9723 60.2316C78.5359 59.8217 78.1172 59.3883 77.7928 59.2821C77.4685 59.176 77.1884 59.8217 77.6189 60.4969C78.2941 61.5584 78.0523 61.7884 78.0523 61.7884C77.7666 61.3343 77.4576 60.8954 77.1265 60.4733C76.8316 60.1343 76.0827 59.7038 75.6522 59.3942C75.2217 59.0846 74.6821 59.4885 75.1421 60.2787L74.3637 59.7185C73.8182 59.3234 73.4084 59.4237 73.4791 60.0753C73.4971 60.2966 73.5908 60.5048 73.7445 60.665C73.7445 60.665 73.2433 60.1638 73.0663 60.32C72.5621 60.7682 72.7479 61.2046 73.4673 62.5078C74.0806 63.6165 74.0099 64.2445 73.5735 64.4981L73.2786 64.6337C73.2786 64.6337 73.8919 64.7959 74.4787 64.9021C74.9062 64.9787 75.319 64.9964 75.5991 64.4863C75.5991 64.4863 76.1387 65.0465 76.5132 64.7399C76.7694 64.4975 76.9705 64.2028 77.1029 63.876C77.2574 63.9185 77.4208 63.9164 77.5742 63.87C77.7276 63.8235 77.8648 63.7346 77.9698 63.6135C78.1873 63.3975 78.3273 63.1155 78.3678 62.8115L78.6479 62.7614Z" fill="#FFB573"/>
<path d="M76.1273 60.2699C76.3693 60.4286 76.5954 60.6103 76.8025 60.8124C76.9783 61.0484 77.1147 61.3113 77.2065 61.5908C77.419 62.1191 77.5857 62.6646 77.7048 63.2214C77.4185 62.7296 77.1739 62.2148 76.9735 61.6822C76.8892 61.423 76.7806 61.1722 76.6492 60.9333C76.4959 60.7151 76.2836 60.5058 76.1273 60.2699Z" fill="#F0997A"/>
<path d="M74.7385 60.6503C75.0142 60.8036 75.2481 61.0223 75.4196 61.2872C75.5884 61.5484 75.7326 61.8248 75.8501 62.1127C76.0913 62.6817 76.2712 63.2748 76.3868 63.8819C76.1025 63.3402 75.8466 62.7842 75.6201 62.2159C75.4266 61.6436 75.1276 61.1125 74.7385 60.6503Z" fill="#F0997A"/>
<path d="M98.0747 32.7992C97.8611 32.6973 97.6273 32.6449 97.3906 32.6459C96.9939 32.6609 96.6083 32.781 96.2731 32.9938C95.8449 33.2454 95.4622 33.5674 95.1409 33.9462C94.791 34.3519 94.4883 34.796 94.2387 35.2701C93.9841 35.761 93.7863 36.2794 93.6489 36.8151C93.5086 37.3383 93.4363 37.8774 93.4337 38.4191C93.4218 38.8844 93.4947 39.348 93.6489 39.7872C93.7619 40.12 93.9663 40.4143 94.2387 40.6364L94.3271 40.6983C93.991 40.5096 91.5968 39.1503 91.3609 38.9734C91.0893 38.7506 90.8851 38.4565 90.7712 38.1242C90.6183 37.6847 90.5454 37.2214 90.5559 36.7561C90.5598 36.2145 90.6321 35.6756 90.7712 35.1521C90.9085 34.6164 91.1064 34.0981 91.3609 33.6071C91.6078 33.1314 91.9107 32.687 92.2631 32.2832C92.5842 31.9054 92.9658 31.5835 93.3924 31.3308C93.7276 31.118 94.1132 30.9979 94.5099 30.9829C94.7883 30.9799 95.0624 31.0523 95.3031 31.1922C95.3355 31.2129 97.3906 32.3952 98.0747 32.7992Z" fill="#263238"/>
<path d="M99.1126 10.7147C98.781 10.5388 98.3999 10.4796 98.0305 10.5467C97.7304 10.5917 97.4384 10.6801 97.1636 10.8091C97.1818 10.9854 97.1907 11.1626 97.1902 11.3398C97.1949 12.2508 97.0454 13.156 96.7479 14.0171C96.4523 14.8696 96.0843 15.6952 95.6481 16.485C95.2088 17.2782 94.7399 18.0536 94.2387 18.8026C93.7374 19.5515 93.2834 20.2916 92.8735 21.0199C92.4813 21.7195 92.1546 22.4539 91.8976 23.2136C91.6555 23.9251 91.5681 24.68 91.641 25.4279L91.9624 29.3377L94.8402 31.0036L94.5247 27.0968C94.4498 26.3493 94.5352 25.5944 94.7753 24.8825C95.0308 24.1212 95.3597 23.3865 95.7572 22.6888C96.1621 21.9595 96.6162 21.2204 97.1194 20.4714C97.6177 19.7225 98.0895 18.9471 98.5259 18.1539C98.9636 17.3644 99.3325 16.5387 99.6286 15.686C99.9249 14.8257 100.073 13.9215 100.068 13.0116C100.088 12.5081 100.003 12.0059 99.8173 11.5374C99.6812 11.192 99.4331 10.9023 99.1126 10.7147Z" fill="#263238"/>
<path d="M99.2217 3.29915C98.5796 3.02186 97.8714 2.93487 97.1813 3.04852C96.1243 3.22314 95.1117 3.60277 94.2003 4.16602C93.4076 4.62331 92.6585 5.15233 91.9624 5.74643C91.278 6.33264 90.6365 6.96723 90.0429 7.64529C89.4531 8.32196 88.9037 9.03281 88.3976 9.77414C87.8905 10.5172 87.4246 11.2631 87 12.0121L88.2207 13.8903C88.2754 14.0154 88.3697 14.119 88.489 14.1851C88.6689 14.2795 91.1073 15.7036 91.3609 15.8452C91.2456 15.7757 91.1542 15.6729 91.0985 15.5503L89.8778 13.6721C90.3024 12.9232 90.7692 12.1772 91.2783 11.4342C91.7826 10.6915 92.332 9.98051 92.9236 9.30532C93.5162 8.62729 94.1567 7.9927 94.8402 7.40646C95.5366 6.81274 96.2857 6.28375 97.0781 5.82605C97.9898 5.2614 99.0037 4.88169 100.062 4.70855C100.781 4.59321 101.519 4.6959 102.179 5.0034C101.356 4.51689 99.2984 3.33158 99.2217 3.29915Z" fill="#37474F"/>
<path d="M88.489 14.1821C88.6689 14.2765 91.1073 15.7006 91.3609 15.8422C91.2456 15.7726 91.1542 15.6698 91.0985 15.5473L89.8778 13.6691L87 12.0061L88.2207 13.8843C88.2748 14.0105 88.3692 14.1152 88.489 14.1821Z" fill="#263238"/>
<path d="M89.8777 13.6751C90.3023 12.9262 90.7691 12.1802 91.2782 11.4372C91.7832 10.695 92.3326 9.98411 92.9235 9.30835C93.5164 8.62957 94.1579 7.99494 94.843 7.40949C95.5379 6.81376 96.2871 6.28463 97.081 5.82907C97.9916 5.26451 99.0046 4.88479 100.062 4.71158C100.851 4.57605 101.663 4.71222 102.365 5.09784C103.046 5.52992 103.565 6.17604 103.839 6.93477C104.223 7.97161 104.402 9.07308 104.367 10.1782C104.376 11.3703 104.237 12.5589 103.951 13.7164C103.695 14.7499 103.35 15.7591 102.919 16.7328C102.524 17.6196 102.068 18.4777 101.554 19.3009L100.153 21.5271C99.713 22.223 99.3336 22.8765 99.0152 23.4879C98.7166 24.0373 98.5217 24.637 98.4402 25.257L98.0098 29.1697L94.8312 31.0037L94.5098 27.0998C94.4374 26.3521 94.5238 25.5975 94.7634 24.8855C95.0203 24.1252 95.348 23.3907 95.7423 22.6918C96.1492 21.9625 96.6043 21.2234 97.1075 20.4745C97.6107 19.7255 98.0805 18.952 98.5169 18.154C98.9524 17.3648 99.3203 16.5402 99.6167 15.689C99.9137 14.8288 100.063 13.9247 100.059 13.0147C100.077 12.511 99.9907 12.0091 99.8054 11.5404C99.6755 11.1889 99.4236 10.8957 99.0956 10.7144C98.7676 10.5331 98.3854 10.4757 98.0186 10.5526C97.5349 10.6347 97.0715 10.8089 96.6534 11.0657C95.993 11.4389 95.3836 11.8958 94.8401 12.425C94.3871 12.8721 93.9654 13.3499 93.5781 13.855C93.2361 14.315 92.9442 14.716 92.6935 15.0639C92.5293 15.3325 92.3115 15.5643 92.0537 15.745C91.6026 16.0074 91.2753 15.9426 91.0748 15.5592L89.8777 13.6751ZM93.4307 38.4193C93.4343 37.8775 93.5076 37.3384 93.6489 36.8153C93.7836 36.2787 93.9816 35.7601 94.2386 35.2702C94.4862 34.795 94.7891 34.3506 95.1408 33.9463C95.4606 33.5672 95.8424 33.2451 96.2701 32.994C96.6048 32.7806 96.9909 32.6615 97.3876 32.649C97.7107 32.6426 98.0272 32.7408 98.2899 32.9291C98.5713 33.1483 98.7832 33.4443 98.9002 33.7812C99.0612 34.2118 99.1382 34.6692 99.1273 35.1287C99.1265 35.6771 99.0501 36.2229 98.9002 36.7504C98.7549 37.2865 98.5502 37.8047 98.2899 38.2954C98.0415 38.7666 97.7387 39.207 97.3876 39.6075C97.0683 39.9777 96.6909 40.2934 96.2701 40.5422C95.9287 40.753 95.5411 40.8775 95.1408 40.9049C94.8179 40.9242 94.4985 40.8292 94.2386 40.6366C93.964 40.4165 93.7592 40.1215 93.6489 39.7874C93.4936 39.3484 93.4197 38.8848 93.4307 38.4193Z" fill="#B1DAFB"/>
<path d="M50.2219 23.2186C50.1445 23.4591 50.0931 23.7072 50.0686 23.9587C50.0494 24.1193 50.0494 24.2816 50.0686 24.4422C50.1419 24.8123 50.3406 25.1459 50.6311 25.3865C50.9217 25.6271 51.2864 25.7602 51.6637 25.7632C52.0391 25.7492 52.4065 25.6501 52.738 25.4733C53.0695 25.2966 53.3565 25.0469 53.5773 24.743C54.1995 23.9498 55.1283 22.0893 53.9194 21.4141C53.5138 21.2093 53.0595 21.1208 52.6068 21.1583C52.1541 21.1958 51.7205 21.3578 51.3541 21.6264C50.8182 22.0244 50.4219 22.5817 50.2219 23.2186Z" fill="#2196F3"/>
<path opacity="0.25" d="M50.2219 23.2186C50.1445 23.4591 50.0931 23.7072 50.0686 23.9587C50.0494 24.1193 50.0494 24.2816 50.0686 24.4422C50.1419 24.8123 50.3406 25.1459 50.6311 25.3865C50.9217 25.6271 51.2864 25.7602 51.6637 25.7632C52.0391 25.7492 52.4065 25.6501 52.738 25.4733C53.0695 25.2966 53.3565 25.0469 53.5773 24.743C54.1995 23.9498 55.1283 22.0893 53.9194 21.4141C53.5138 21.2093 53.0595 21.1208 52.6068 21.1583C52.1541 21.1958 51.7205 21.3578 51.3541 21.6264C50.8182 22.0244 50.4219 22.5817 50.2219 23.2186Z" fill="black"/>
<path d="M64.9499 22.3162C64.142 21.1368 62.7061 20.7417 61.8982 21.1368C61.1669 20.149 59.6868 19.5829 58.4661 19.5092C53.8044 19.2143 52.2977 21.5171 52.0441 22.3722C49.8386 22.6671 48.2523 25.9753 49.588 30.522C50.1777 32.5004 53.1734 34.8593 53.3533 35.9148L55.4821 35.2013C55.5879 34.2359 55.9595 33.3187 56.5556 32.5519C57.1516 31.7852 57.9487 31.1988 58.8582 30.8581C62.0603 29.602 63.8707 28.8207 64.3602 28.172C66.3387 26.1729 65.7607 23.4838 64.9499 22.3162Z" fill="#263238"/>
<path d="M51.5724 19.0227C50.334 19.1701 49.5526 19.7982 49.3167 20.9953C48.211 20.836 46.9962 21.0395 46.1765 21.8798C45.9056 22.1653 45.7009 22.5069 45.5771 22.8805C45.4532 23.2541 45.4133 23.6503 45.46 24.0411C45.5161 24.7812 45.8994 25.1733 46.3446 25.6893C45.9431 25.862 45.6198 26.1771 45.4369 26.574C45.2539 26.9709 45.2244 27.4214 45.3539 27.8388C45.5043 28.3548 47.4473 30.2625 45.8876 30.4158C46.5982 30.9083 47.8012 30.4896 47.7186 29.5313C47.7084 29.8164 47.7548 30.1008 47.8552 30.3679C47.9556 30.635 48.1079 30.8796 48.3034 31.0874C48.4989 31.2953 48.7337 31.4623 48.9942 31.5788C49.2547 31.6953 49.5357 31.7591 49.8209 31.7663C51.5606 31.8429 52.9729 30.8817 53.3887 29.1951L54.229 20.5559C53.887 19.4532 52.7813 18.8753 51.5724 19.0227Z" fill="#263238"/>
<path d="M64.3425 25.9223C64.4478 26.4282 64.5206 26.9403 64.5607 27.4555C64.6565 28.4835 64.686 29.5167 64.6491 30.5485C64.4958 34.2224 63.4697 35.5876 62.5026 36.0505C61.5324 36.4535 60.4655 36.5642 59.4332 36.3689L59.4774 38.5892C59.4774 38.5892 62.8181 40.8389 59.8283 41.6999C58.6872 42.0272 56.3254 41.5407 55.0045 40.5028C53.6835 39.4649 53.3297 38.8221 53.3297 38.8221L53.2707 33.5147C53.2707 33.5147 52.1178 34.591 50.7055 33.0843C49.6971 32.0139 49.4642 29.7377 50.794 29.033C51.0077 28.9009 51.2466 28.8146 51.4954 28.7795C51.7442 28.7445 51.9976 28.7614 52.2395 28.8293C52.4814 28.8972 52.7066 29.0146 52.9009 29.174C53.0951 29.3334 53.2542 29.5313 53.368 29.7554C53.8693 30.6665 54.7951 30.3185 54.7804 29.2688C54.7656 28.2192 54.8335 27.8978 55.1784 27.3582C56.3578 25.5331 55.5264 24.9817 56.6203 23.929C57.2483 23.3393 58.9496 23.1005 60.2381 24.0765C61.733 22.7526 63.7675 23.3246 64.3425 25.9223Z" fill="#FFB573"/>
<path d="M60.0642 27.2255L60.8426 31.3682L62.9037 30.401L60.0642 27.2255Z" fill="#F0997A"/>
<path d="M59.4331 36.3542C56.6232 35.7645 55.0103 34.6441 54.5002 33.5118C54.6826 34.4615 55.2312 35.3014 56.0276 35.85C57.3839 36.711 59.4479 37.0707 59.4479 37.0707L59.4331 36.3542Z" fill="#F0997A"/>
<path d="M62.3876 26.1465L63.6614 26.807C63.6226 26.8919 63.5671 26.9681 63.498 27.031C63.429 27.0938 63.3479 27.142 63.2597 27.1726C63.1715 27.2032 63.0779 27.2156 62.9848 27.209C62.8917 27.2024 62.8008 27.177 62.7178 27.1342C62.547 27.043 62.4175 26.8898 62.3561 26.7061C62.2947 26.5224 62.306 26.3221 62.3876 26.1465Z" fill="#263238"/>
<path d="M56.8975 26.9896L58.3069 26.3851C58.3528 26.4754 58.3795 26.5742 58.3853 26.6754C58.3912 26.7765 58.376 26.8777 58.3409 26.9727C58.3057 27.0677 58.2513 27.1544 58.181 27.2273C58.1107 27.3003 58.026 27.3578 57.9324 27.3965C57.7407 27.4748 57.5261 27.4763 57.3334 27.4005C57.1406 27.3247 56.9845 27.1775 56.8975 26.9896Z" fill="#263238"/>
<path d="M63.2632 28.3195C63.3694 28.6144 63.1659 28.7087 62.8858 28.809C62.6057 28.9092 62.3521 28.9712 62.2489 28.6793C62.219 28.6113 62.2034 28.538 62.2031 28.4637C62.2028 28.3895 62.2179 28.316 62.2473 28.2479C62.2767 28.1797 62.3199 28.1184 62.3741 28.0677C62.4283 28.0169 62.4924 27.978 62.5623 27.9532C62.6323 27.9283 62.7066 27.9182 62.7807 27.9235C62.8547 27.9287 62.9269 27.9491 62.9927 27.9835C63.0585 28.0179 63.1164 28.0655 63.163 28.1233C63.2095 28.1811 63.2437 28.2479 63.2632 28.3195Z" fill="#263238"/>
<path d="M62.2991 28.0806C62.4253 28.0103 62.5615 27.9596 62.703 27.9303C62.8399 27.8965 62.9817 27.8875 63.1217 27.9037C63.27 27.9195 63.4146 27.9604 63.5492 28.0246C63.5492 28.0246 63.5699 28.06 63.5492 28.06C63.4342 28.06 63.334 28.0305 63.1659 28.0246C62.8175 28.0338 62.4762 28.1247 62.1693 28.29L61.9983 28.3873C61.9983 28.3873 61.9718 28.3578 61.9777 28.3431C62.0649 28.2337 62.1745 28.1442 62.2991 28.0806Z" fill="#263238"/>
<path d="M57.8232 28.5141C57.7584 28.8089 57.9736 28.8856 58.2655 28.9475C58.5574 29.0094 58.814 29.0389 58.8788 28.7352C58.8962 28.6649 58.8992 28.5917 58.8877 28.5202C58.8761 28.4486 58.8503 28.3802 58.8118 28.3188C58.7732 28.2575 58.7227 28.2045 58.6632 28.1631C58.6037 28.1217 58.5365 28.0927 58.4656 28.0779C58.3947 28.063 58.3215 28.0626 58.2504 28.0766C58.1793 28.0907 58.1118 28.1189 58.0518 28.1596C57.9919 28.2003 57.9407 28.2527 57.9015 28.3136C57.8622 28.3745 57.8356 28.4427 57.8232 28.5141Z" fill="#263238"/>
<path d="M58.7461 28.1484C58.611 28.0964 58.4689 28.0646 58.3245 28.0541C58.1852 28.0402 58.0446 28.0501 57.9087 28.0835C57.7641 28.1218 57.6259 28.1814 57.4989 28.2605C57.4989 28.2605 57.4989 28.2988 57.4989 28.2958C57.6109 28.2693 57.7082 28.2369 57.8734 28.2103C58.03 28.1912 58.1885 28.1912 58.3451 28.2103C58.5344 28.2258 58.7202 28.2695 58.8965 28.3401L59.0793 28.4108C59.097 28.4108 59.1029 28.3784 59.0793 28.3666C58.9847 28.2715 58.8712 28.1972 58.7461 28.1484Z" fill="#263238"/>
<path d="M60.2587 32.7041C60.3266 32.6333 60.1909 32.4505 60.1408 32.4092C60.0792 32.358 60.0131 32.3126 59.9432 32.2736C59.8114 32.1964 59.6695 32.1378 59.5216 32.0996C59.2173 32.0136 58.8933 32.0291 58.5987 32.1439C58.5427 32.1645 58.5574 32.2471 58.5987 32.2824C58.6151 32.3071 58.6374 32.3274 58.6636 32.3414C58.6924 32.3505 58.7232 32.3505 58.752 32.3414C58.7963 32.3414 58.8405 32.3208 58.8847 32.3149C58.9545 32.2996 59.0256 32.2917 59.097 32.2913C59.2304 32.2888 59.3635 32.3057 59.4921 32.3414C59.615 32.3736 59.7323 32.4243 59.84 32.4918C59.9314 32.5478 60.0199 32.6097 60.1084 32.6716C60.1496 32.7011 60.188 32.7365 60.241 32.71C60.2472 32.7091 60.2532 32.7071 60.2587 32.7041Z" fill="#B16668"/>
</svg>
