<svg width="304" height="575" viewBox="0 0 304 575" fill="none" xmlns="http://www.w3.org/2000/svg">
<g filter="url(#filter0_b_764_4)">
<rect width="304" height="574" rx="20" fill="url(#paint0_linear_764_4)"/>
</g>
<path d="M125.984 46.1646H120.635V59.8172H122.585V55.6918H125.966C129.532 55.6918 131.687 53.8973 131.687 50.9374C131.687 47.959 129.532 46.1646 125.984 46.1646ZM125.928 53.9898H122.585V47.8665H125.91C128.418 47.8665 129.718 48.9765 129.718 50.9189C129.736 52.8799 128.418 53.9898 125.928 53.9898Z" fill="#00325A"/>
<path d="M154.144 46.1646H152.194V59.8172H154.144V46.1646Z" fill="#00325A"/>
<path d="M168.577 56.3393L160.348 46.1646H158.75V59.8172H160.701V49.6425L168.93 59.8172H170.527V46.1646H168.577V56.3393Z" fill="#00325A"/>
<path d="M173.146 46.1646V47.8665H177.846V59.8172H179.777V47.8665H184.477V46.1646H173.146Z" fill="#00325A"/>
<path d="M133.73 52.8797C133.73 56.6536 136.665 59.965 140.417 60.4645V58.6516C138.207 58.2631 136.368 56.6166 135.755 54.4522L135.68 54.1747L135.922 54.3227C136.2 54.5077 136.535 54.6187 136.869 54.6187C137.816 54.6187 138.615 53.8232 138.615 52.8797C138.615 51.9362 137.816 51.1408 136.869 51.1408C136.535 51.1408 136.2 51.2333 135.922 51.4368L135.68 51.5847L135.755 51.3073C136.386 49.1428 138.207 47.4964 140.417 47.1079V45.2949C136.665 45.7944 133.73 49.1058 133.73 52.8797Z" fill="#2F99EF"/>
<path d="M142.423 45.2949V47.1079C144.652 47.4964 146.472 49.1428 147.085 51.3073L147.16 51.5847L146.918 51.4183C146.621 51.2333 146.287 51.1223 145.952 51.1223C145.005 51.1223 144.206 51.9177 144.206 52.8612C144.206 53.8047 145.005 54.6002 145.952 54.6002C146.287 54.6002 146.621 54.4892 146.918 54.3042L147.16 54.1377L147.085 54.4152C146.472 56.5796 144.633 58.2261 142.423 58.6146V60.4645C146.175 59.965 149.11 56.6536 149.11 52.8797C149.11 49.1058 146.194 45.7944 142.423 45.2949Z" fill="#2F99EF"/>
<rect x="93" y="569" width="144" height="6" rx="3" fill="white"/>
<path d="M145.774 541.31V542H140.932V541.31H145.774ZM141.068 541.31V543.573H140.229L140.224 541.31H141.068ZM146.513 541.31L146.504 543.569H145.665V541.31H146.513ZM144.944 535.602V536.296H142.14V535.602H144.944ZM145.673 535.602V542H144.83V535.602H145.673ZM141.85 535.602H142.698L142.566 538.177C142.549 538.563 142.512 538.921 142.457 539.249C142.401 539.574 142.332 539.872 142.25 540.141C142.168 540.411 142.074 540.652 141.969 540.866C141.863 541.077 141.75 541.26 141.63 541.416C141.51 541.568 141.384 541.694 141.252 541.793C141.124 541.89 140.993 541.959 140.861 542H140.475V541.31H140.747C140.823 541.228 140.91 541.109 141.006 540.954C141.106 540.799 141.204 540.598 141.301 540.352C141.4 540.103 141.487 539.8 141.56 539.442C141.636 539.085 141.688 538.663 141.714 538.177L141.85 535.602ZM147.172 539.675V539.574C147.172 539.231 147.222 538.914 147.321 538.621C147.421 538.325 147.564 538.068 147.752 537.852C147.939 537.632 148.167 537.462 148.433 537.342C148.7 537.219 148.999 537.157 149.33 537.157C149.664 537.157 149.964 537.219 150.23 537.342C150.5 537.462 150.729 537.632 150.916 537.852C151.106 538.068 151.251 538.325 151.351 538.621C151.451 538.914 151.5 539.231 151.5 539.574V539.675C151.5 540.018 151.451 540.336 151.351 540.629C151.251 540.922 151.106 541.178 150.916 541.398C150.729 541.615 150.501 541.785 150.235 541.908C149.971 542.028 149.672 542.088 149.338 542.088C149.004 542.088 148.704 542.028 148.438 541.908C148.171 541.785 147.942 541.615 147.752 541.398C147.564 541.178 147.421 540.922 147.321 540.629C147.222 540.336 147.172 540.018 147.172 539.675ZM147.985 539.574V539.675C147.985 539.913 148.013 540.137 148.068 540.348C148.124 540.556 148.208 540.74 148.319 540.901C148.433 541.062 148.575 541.19 148.745 541.284C148.915 541.375 149.113 541.42 149.338 541.42C149.561 541.42 149.756 541.375 149.923 541.284C150.093 541.19 150.233 541.062 150.345 540.901C150.456 540.74 150.54 540.556 150.595 540.348C150.654 540.137 150.683 539.913 150.683 539.675V539.574C150.683 539.34 150.654 539.119 150.595 538.911C150.54 538.7 150.455 538.514 150.34 538.353C150.229 538.188 150.088 538.06 149.918 537.966C149.751 537.872 149.555 537.825 149.33 537.825C149.107 537.825 148.911 537.872 148.741 537.966C148.574 538.06 148.433 538.188 148.319 538.353C148.208 538.514 148.124 538.7 148.068 538.911C148.013 539.119 147.985 539.34 147.985 539.574ZM157.921 537.245V537.917H155.517V537.245H157.921ZM155.636 537.245V542H154.823V537.245H155.636ZM158.642 537.245V542H157.824V537.245H158.642ZM160.76 538.159V543.828H159.942V537.245H160.689L160.76 538.159ZM163.963 539.583V539.675C163.963 540.021 163.922 540.342 163.84 540.638C163.758 540.931 163.638 541.186 163.48 541.402C163.325 541.619 163.133 541.788 162.904 541.908C162.676 542.028 162.414 542.088 162.118 542.088C161.816 542.088 161.549 542.038 161.318 541.938C161.086 541.839 160.89 541.694 160.729 541.503C160.568 541.313 160.439 541.084 160.342 540.818C160.249 540.551 160.184 540.251 160.149 539.917V539.425C160.184 539.073 160.25 538.758 160.347 538.48C160.443 538.202 160.571 537.964 160.729 537.768C160.89 537.569 161.085 537.418 161.313 537.315C161.542 537.21 161.806 537.157 162.104 537.157C162.403 537.157 162.668 537.216 162.9 537.333C163.131 537.447 163.326 537.611 163.484 537.825C163.643 538.039 163.761 538.295 163.84 538.594C163.922 538.89 163.963 539.22 163.963 539.583ZM163.146 539.675V539.583C163.146 539.346 163.121 539.123 163.071 538.915C163.021 538.704 162.944 538.52 162.838 538.361C162.736 538.2 162.604 538.074 162.443 537.983C162.282 537.89 162.09 537.843 161.867 537.843C161.662 537.843 161.483 537.878 161.331 537.948C161.182 538.019 161.054 538.114 160.949 538.234C160.843 538.351 160.757 538.486 160.689 538.638C160.625 538.788 160.577 538.943 160.544 539.104V540.242C160.603 540.447 160.685 540.641 160.791 540.822C160.896 541.001 161.037 541.146 161.212 541.257C161.388 541.366 161.609 541.42 161.876 541.42C162.096 541.42 162.285 541.375 162.443 541.284C162.604 541.19 162.736 541.062 162.838 540.901C162.944 540.74 163.021 540.556 163.071 540.348C163.121 540.137 163.146 539.913 163.146 539.675ZM164.785 539.675V539.574C164.785 539.231 164.835 538.914 164.935 538.621C165.034 538.325 165.178 538.068 165.365 537.852C165.553 537.632 165.78 537.462 166.046 537.342C166.313 537.219 166.612 537.157 166.943 537.157C167.277 537.157 167.577 537.219 167.844 537.342C168.113 537.462 168.342 537.632 168.529 537.852C168.72 538.068 168.865 538.325 168.964 538.621C169.064 538.914 169.114 539.231 169.114 539.574V539.675C169.114 540.018 169.064 540.336 168.964 540.629C168.865 540.922 168.72 541.178 168.529 541.398C168.342 541.615 168.115 541.785 167.848 541.908C167.584 542.028 167.286 542.088 166.952 542.088C166.618 542.088 166.317 542.028 166.051 541.908C165.784 541.785 165.556 541.615 165.365 541.398C165.178 541.178 165.034 540.922 164.935 540.629C164.835 540.336 164.785 540.018 164.785 539.675ZM165.598 539.574V539.675C165.598 539.913 165.626 540.137 165.682 540.348C165.737 540.556 165.821 540.74 165.932 540.901C166.046 541.062 166.188 541.19 166.358 541.284C166.528 541.375 166.726 541.42 166.952 541.42C167.174 541.42 167.369 541.375 167.536 541.284C167.706 541.19 167.847 541.062 167.958 540.901C168.069 540.74 168.153 540.556 168.208 540.348C168.267 540.137 168.296 539.913 168.296 539.675V539.574C168.296 539.34 168.267 539.119 168.208 538.911C168.153 538.7 168.068 538.514 167.954 538.353C167.842 538.188 167.702 538.06 167.532 537.966C167.365 537.872 167.168 537.825 166.943 537.825C166.72 537.825 166.524 537.872 166.354 537.966C166.187 538.06 166.046 538.188 165.932 538.353C165.821 538.514 165.737 538.7 165.682 538.911C165.626 539.119 165.598 539.34 165.598 539.574ZM175.6 539.706V539.798C175.6 540.132 175.563 540.44 175.49 540.721C175.417 541 175.307 541.241 175.161 541.446C175.017 541.651 174.838 541.811 174.625 541.925C174.411 542.037 174.163 542.092 173.882 542.092C173.65 542.092 173.447 542.062 173.271 542C173.095 541.936 172.946 541.843 172.823 541.723C172.703 541.603 172.606 541.459 172.533 541.292C172.462 541.123 172.414 540.932 172.388 540.721V538.612C172.414 538.386 172.462 538.184 172.533 538.005C172.606 537.827 172.703 537.674 172.823 537.548C172.946 537.422 173.094 537.326 173.267 537.258C173.439 537.191 173.642 537.157 173.873 537.157C174.102 537.157 174.307 537.198 174.488 537.28C174.673 537.359 174.834 537.474 174.972 537.623C175.112 537.772 175.228 537.953 175.319 538.164C175.413 538.372 175.483 538.606 175.53 538.867C175.577 539.127 175.6 539.407 175.6 539.706ZM174.787 539.798V539.706C174.787 539.501 174.772 539.306 174.743 539.122C174.717 538.934 174.674 538.763 174.616 538.607C174.56 538.449 174.487 538.312 174.396 538.194C174.305 538.077 174.195 537.986 174.066 537.922C173.94 537.857 173.795 537.825 173.631 537.825C173.456 537.825 173.309 537.847 173.192 537.891C173.078 537.935 172.988 537.994 172.924 538.067C172.859 538.137 172.812 538.212 172.783 538.291V541.046C172.818 541.111 172.87 541.172 172.937 541.231C173.004 541.287 173.095 541.333 173.209 541.372C173.324 541.407 173.467 541.424 173.64 541.424C173.845 541.424 174.02 541.383 174.163 541.301C174.31 541.216 174.428 541.099 174.519 540.95C174.613 540.8 174.68 540.627 174.721 540.431C174.765 540.235 174.787 540.024 174.787 539.798ZM169.953 539.798V539.706C169.953 539.407 169.977 539.127 170.023 538.867C170.07 538.606 170.141 538.372 170.234 538.164C170.328 537.953 170.444 537.772 170.582 537.623C170.722 537.474 170.883 537.359 171.065 537.28C171.25 537.198 171.456 537.157 171.685 537.157C171.91 537.157 172.106 537.191 172.273 537.258C172.443 537.326 172.587 537.422 172.704 537.548C172.821 537.674 172.915 537.827 172.985 538.005C173.056 538.184 173.105 538.386 173.135 538.612V540.638C173.108 540.86 173.06 541.061 172.99 541.24C172.919 541.418 172.826 541.572 172.708 541.701C172.591 541.827 172.446 541.924 172.273 541.991C172.104 542.059 171.904 542.092 171.676 542.092C171.395 542.092 171.147 542.037 170.933 541.925C170.719 541.811 170.539 541.651 170.393 541.446C170.249 541.241 170.139 541 170.063 540.721C169.99 540.44 169.953 540.132 169.953 539.798ZM170.771 539.706V539.798C170.771 540.024 170.79 540.235 170.828 540.431C170.869 540.627 170.932 540.8 171.017 540.95C171.104 541.099 171.219 541.216 171.359 541.301C171.5 541.383 171.673 541.424 171.878 541.424C172.054 541.424 172.199 541.402 172.313 541.358C172.427 541.314 172.518 541.257 172.585 541.187C172.653 541.117 172.704 541.043 172.739 540.967V538.291C172.71 538.212 172.662 538.137 172.594 538.067C172.53 537.994 172.44 537.935 172.326 537.891C172.212 537.847 172.065 537.825 171.887 537.825C171.682 537.825 171.507 537.875 171.364 537.975C171.22 538.074 171.104 538.21 171.017 538.383C170.932 538.556 170.869 538.757 170.828 538.985C170.79 539.211 170.771 539.451 170.771 539.706ZM172.335 543.828V535.25H173.152V543.828H172.335ZM177.547 537.245V542H176.729V537.245H177.547ZM176.668 535.984C176.668 535.852 176.708 535.741 176.787 535.65C176.869 535.559 176.989 535.514 177.147 535.514C177.302 535.514 177.421 535.559 177.503 535.65C177.588 535.741 177.63 535.852 177.63 535.984C177.63 536.11 177.588 536.218 177.503 536.309C177.421 536.397 177.302 536.441 177.147 536.441C176.989 536.441 176.869 536.397 176.787 536.309C176.708 536.218 176.668 536.11 176.668 535.984ZM182.029 537.245V537.917H179.731V537.245H182.029ZM182.746 537.245V542H181.933V537.245H182.746ZM179.533 537.245H180.351L180.228 539.539C180.207 539.894 180.173 540.207 180.126 540.479C180.083 540.749 180.021 540.98 179.942 541.174C179.866 541.367 179.769 541.525 179.652 541.648C179.538 541.769 179.4 541.858 179.239 541.917C179.078 541.972 178.892 542 178.681 542H178.426V541.284L178.602 541.271C178.728 541.262 178.834 541.232 178.922 541.183C179.013 541.133 179.089 541.06 179.151 540.963C179.212 540.863 179.262 540.736 179.3 540.581C179.341 540.425 179.372 540.241 179.393 540.027C179.416 539.813 179.434 539.564 179.445 539.28L179.533 537.245ZM186.762 539.262V539.926H184.235V539.262H186.762ZM184.943 537.245V542H184.13V537.245H184.943ZM186.068 539.675V539.574C186.068 539.231 186.118 538.914 186.217 538.621C186.317 538.325 186.46 538.068 186.648 537.852C186.838 537.632 187.065 537.462 187.329 537.342C187.596 537.219 187.895 537.157 188.226 537.157C188.562 537.157 188.864 537.219 189.131 537.342C189.397 537.462 189.625 537.632 189.812 537.852C190.002 538.068 190.147 538.325 190.247 538.621C190.347 538.914 190.396 539.231 190.396 539.574V539.675C190.396 540.018 190.347 540.336 190.247 540.629C190.147 540.922 190.004 541.178 189.816 541.398C189.629 541.615 189.402 541.785 189.135 541.908C188.869 542.028 188.568 542.088 188.234 542.088C187.9 542.088 187.6 542.028 187.333 541.908C187.067 541.785 186.838 541.615 186.648 541.398C186.46 541.178 186.317 540.922 186.217 540.629C186.118 540.336 186.068 540.018 186.068 539.675ZM186.885 539.574V539.675C186.885 539.913 186.913 540.137 186.969 540.348C187.024 540.556 187.108 540.74 187.219 540.901C187.333 541.062 187.474 541.19 187.641 541.284C187.811 541.375 188.009 541.42 188.234 541.42C188.46 541.42 188.656 541.375 188.823 541.284C188.993 541.19 189.134 541.062 189.245 540.901C189.356 540.74 189.44 540.556 189.496 540.348C189.554 540.137 189.583 539.913 189.583 539.675V539.574C189.583 539.34 189.554 539.119 189.496 538.911C189.44 538.7 189.355 538.514 189.241 538.353C189.129 538.188 188.989 538.06 188.819 537.966C188.649 537.872 188.451 537.825 188.226 537.825C188.003 537.825 187.808 537.872 187.641 537.966C187.474 538.06 187.333 538.188 187.219 538.353C187.108 538.514 187.024 538.7 186.969 538.911C186.913 539.119 186.885 539.34 186.885 539.574Z" fill="black"/>
<circle cx="165.44" cy="506.44" r="20.4396" fill="#2196F3"/>
<path fill-rule="evenodd" clip-rule="evenodd" d="M169 503C169 504.061 168.579 505.078 167.828 505.828C167.078 506.579 166.061 507 165 507C163.939 507 162.922 506.579 162.172 505.828C161.421 505.078 161 504.061 161 503C161 501.939 161.421 500.922 162.172 500.172C162.922 499.421 163.939 499 165 499C166.061 499 167.078 499.421 167.828 500.172C168.579 500.922 169 501.939 169 503ZM167 503C167 503.53 166.789 504.039 166.414 504.414C166.039 504.789 165.53 505 165 505C164.47 505 163.961 504.789 163.586 504.414C163.211 504.039 163 503.53 163 503C163 502.47 163.211 501.961 163.586 501.586C163.961 501.211 164.47 501 165 501C165.53 501 166.039 501.211 166.414 501.586C166.789 501.961 167 502.47 167 503Z" fill="white"/>
<path fill-rule="evenodd" clip-rule="evenodd" d="M165 495C158.925 495 154 499.925 154 506C154 512.075 158.925 517 165 517C171.075 517 176 512.075 176 506C176 499.925 171.075 495 165 495ZM156 506C156 508.09 156.713 510.014 157.908 511.542C158.747 510.44 159.83 509.547 161.071 508.932C162.313 508.318 163.68 507.999 165.065 508C166.432 507.999 167.782 508.31 169.011 508.909C170.24 509.508 171.316 510.38 172.157 511.458C173.023 510.322 173.607 508.995 173.859 507.589C174.111 506.182 174.024 504.736 173.606 503.369C173.189 502.002 172.451 500.755 171.455 499.73C170.46 498.705 169.234 497.932 167.88 497.475C166.527 497.017 165.083 496.889 163.67 497.1C162.257 497.311 160.914 497.856 159.753 498.689C158.592 499.522 157.646 500.62 156.993 501.891C156.341 503.163 156 504.571 156 506ZM165 515C162.934 515.003 160.93 514.292 159.328 512.988C159.973 512.065 160.831 511.311 161.83 510.791C162.829 510.27 163.939 509.999 165.065 510C166.177 509.999 167.273 510.264 168.263 510.771C169.252 511.279 170.106 512.016 170.754 512.92C169.139 514.267 167.103 515.003 165 515Z" fill="white"/>
<defs>
<filter id="filter0_b_764_4" x="-40" y="-40" width="384" height="654" filterUnits="userSpaceOnUse" color-interpolation-filters="sRGB">
<feFlood flood-opacity="0" result="BackgroundImageFix"/>
<feGaussianBlur in="BackgroundImage" stdDeviation="20"/>
<feComposite in2="SourceAlpha" operator="in" result="effect1_backgroundBlur_764_4"/>
<feBlend mode="normal" in="SourceGraphic" in2="effect1_backgroundBlur_764_4" result="shape"/>
</filter>
<linearGradient id="paint0_linear_764_4" x1="-258" y1="-209.814" x2="417.143" y2="459.949" gradientUnits="userSpaceOnUse">
<stop stop-color="white" stop-opacity="0.8"/>
<stop offset="1" stop-color="white" stop-opacity="0.4"/>
</linearGradient>
</defs>
</svg>
