<svg width="304" height="574" viewBox="0 0 304 574" fill="none" xmlns="http://www.w3.org/2000/svg">
<g filter="url(#filter0_b_49_1224)">
<rect width="304" height="574" rx="20" fill="url(#paint0_linear_49_1224)"/>
</g>
<path d="M125.984 46.1646H120.635V59.8172H122.585V55.6918H125.966C129.532 55.6918 131.687 53.8973 131.687 50.9374C131.687 47.959 129.532 46.1646 125.984 46.1646ZM125.928 53.9898H122.585V47.8665H125.91C128.418 47.8665 129.718 48.9765 129.718 50.9189C129.736 52.8799 128.418 53.9898 125.928 53.9898Z" fill="#00325A"/>
<path d="M154.144 46.1646H152.194V59.8172H154.144V46.1646Z" fill="#00325A"/>
<path d="M168.577 56.3393L160.348 46.1646H158.75V59.8172H160.701V49.6425L168.93 59.8172H170.527V46.1646H168.577V56.3393Z" fill="#00325A"/>
<path d="M173.146 46.1646V47.8665H177.846V59.8172H179.777V47.8665H184.477V46.1646H173.146Z" fill="#00325A"/>
<path d="M133.73 52.8797C133.73 56.6536 136.665 59.965 140.417 60.4645V58.6516C138.207 58.2631 136.368 56.6166 135.755 54.4522L135.68 54.1747L135.922 54.3227C136.2 54.5077 136.535 54.6187 136.869 54.6187C137.816 54.6187 138.615 53.8232 138.615 52.8797C138.615 51.9362 137.816 51.1408 136.869 51.1408C136.535 51.1408 136.2 51.2333 135.922 51.4368L135.68 51.5847L135.755 51.3073C136.386 49.1428 138.207 47.4964 140.417 47.1079V45.2949C136.665 45.7944 133.73 49.1058 133.73 52.8797Z" fill="#2F99EF"/>
<path d="M142.423 45.2949V47.1079C144.652 47.4964 146.472 49.1428 147.085 51.3073L147.16 51.5847L146.918 51.4183C146.621 51.2333 146.287 51.1223 145.952 51.1223C145.005 51.1223 144.206 51.9177 144.206 52.8612C144.206 53.8047 145.005 54.6002 145.952 54.6002C146.287 54.6002 146.621 54.4892 146.918 54.3042L147.16 54.1377L147.085 54.4152C146.472 56.5796 144.633 58.2261 142.423 58.6146V60.4645C146.175 59.965 149.11 56.6536 149.11 52.8797C149.11 49.1058 146.194 45.7944 142.423 45.2949Z" fill="#2F99EF"/>
<path d="M134.629 527.602V534H133.786V528.296H130.63V534H129.782V527.602H134.629ZM135.829 531.675V531.574C135.829 531.231 135.879 530.914 135.979 530.621C136.078 530.325 136.222 530.068 136.409 529.852C136.597 529.632 136.824 529.462 137.09 529.342C137.357 529.219 137.656 529.157 137.987 529.157C138.321 529.157 138.621 529.219 138.888 529.342C139.157 529.462 139.386 529.632 139.573 529.852C139.764 530.068 139.909 530.325 140.008 530.621C140.108 530.914 140.158 531.231 140.158 531.574V531.675C140.158 532.018 140.108 532.336 140.008 532.629C139.909 532.922 139.764 533.178 139.573 533.398C139.386 533.615 139.159 533.785 138.892 533.908C138.628 534.028 138.33 534.088 137.996 534.088C137.662 534.088 137.361 534.028 137.095 533.908C136.828 533.785 136.6 533.615 136.409 533.398C136.222 533.178 136.078 532.922 135.979 532.629C135.879 532.336 135.829 532.018 135.829 531.675ZM136.642 531.574V531.675C136.642 531.913 136.67 532.137 136.726 532.348C136.781 532.556 136.865 532.74 136.976 532.901C137.09 533.062 137.232 533.19 137.402 533.284C137.572 533.375 137.77 533.42 137.996 533.42C138.218 533.42 138.413 533.375 138.58 533.284C138.75 533.19 138.891 533.062 139.002 532.901C139.113 532.74 139.197 532.556 139.252 532.348C139.311 532.137 139.34 531.913 139.34 531.675V531.574C139.34 531.34 139.311 531.119 139.252 530.911C139.197 530.7 139.112 530.514 138.998 530.353C138.886 530.188 138.746 530.06 138.576 529.966C138.409 529.872 138.212 529.825 137.987 529.825C137.764 529.825 137.568 529.872 137.398 529.966C137.231 530.06 137.09 530.188 136.976 530.353C136.865 530.514 136.781 530.7 136.726 530.911C136.67 531.119 136.642 531.34 136.642 531.574ZM141.718 529.245H142.531L142.46 531.025C142.443 531.476 142.392 531.866 142.307 532.194C142.222 532.522 142.113 532.802 141.981 533.033C141.85 533.262 141.702 533.454 141.538 533.609C141.376 533.764 141.209 533.895 141.037 534H140.632L140.654 533.336L140.821 533.332C140.918 533.218 141.012 533.101 141.103 532.98C141.193 532.857 141.277 532.712 141.353 532.545C141.429 532.375 141.492 532.169 141.542 531.926C141.595 531.68 141.628 531.379 141.643 531.025L141.718 529.245ZM141.92 529.245H144.781V534H143.968V529.997H141.92V529.245ZM140.448 533.332H145.392V535.402H144.579V534H141.261V535.402H140.443L140.448 533.332ZM148.068 531.728H147.193V531.227H148.002C148.228 531.227 148.406 531.199 148.538 531.144C148.67 531.085 148.764 531.004 148.819 530.902C148.875 530.799 148.903 530.679 148.903 530.542C148.903 530.418 148.871 530.303 148.806 530.194C148.745 530.083 148.645 529.994 148.507 529.926C148.37 529.856 148.185 529.821 147.954 529.821C147.766 529.821 147.596 529.854 147.444 529.922C147.292 529.986 147.17 530.076 147.079 530.19C146.991 530.301 146.947 530.427 146.947 530.568H146.134C146.134 530.278 146.216 530.029 146.38 529.821C146.547 529.61 146.769 529.447 147.044 529.333C147.322 529.219 147.625 529.162 147.954 529.162C148.229 529.162 148.475 529.192 148.692 529.254C148.912 529.312 149.098 529.4 149.25 529.518C149.402 529.632 149.518 529.775 149.597 529.948C149.679 530.118 149.72 530.316 149.72 530.542C149.72 530.703 149.682 530.855 149.606 530.999C149.53 531.142 149.42 531.27 149.276 531.381C149.133 531.489 148.958 531.574 148.753 531.636C148.551 531.697 148.323 531.728 148.068 531.728ZM147.193 531.42H148.068C148.352 531.42 148.603 531.448 148.819 531.504C149.036 531.557 149.218 531.636 149.364 531.741C149.511 531.847 149.621 531.977 149.694 532.132C149.77 532.285 149.808 532.46 149.808 532.66C149.808 532.882 149.763 533.083 149.672 533.262C149.584 533.438 149.458 533.587 149.294 533.71C149.13 533.833 148.934 533.927 148.705 533.991C148.479 534.056 148.229 534.088 147.954 534.088C147.646 534.088 147.347 534.035 147.057 533.93C146.767 533.824 146.528 533.662 146.341 533.442C146.153 533.219 146.06 532.937 146.06 532.594H146.873C146.873 532.737 146.918 532.874 147.009 533.002C147.1 533.131 147.226 533.235 147.387 533.314C147.551 533.394 147.74 533.433 147.954 533.433C148.182 533.433 148.373 533.398 148.525 533.328C148.677 533.257 148.792 533.164 148.868 533.046C148.947 532.929 148.986 532.802 148.986 532.664C148.986 532.485 148.951 532.342 148.881 532.233C148.811 532.125 148.702 532.046 148.556 531.996C148.412 531.943 148.228 531.917 148.002 531.917H147.193V531.42ZM153.095 531.908H151.535L151.526 531.258H152.801C153.053 531.258 153.262 531.233 153.429 531.183C153.599 531.133 153.727 531.059 153.812 530.959C153.896 530.859 153.939 530.736 153.939 530.59C153.939 530.476 153.914 530.376 153.864 530.291C153.817 530.203 153.746 530.131 153.649 530.076C153.552 530.017 153.432 529.975 153.289 529.948C153.148 529.919 152.982 529.904 152.792 529.904H151.75V534H150.938V529.245H152.792C153.094 529.245 153.365 529.271 153.605 529.324C153.848 529.377 154.055 529.458 154.225 529.566C154.397 529.671 154.529 529.806 154.62 529.97C154.711 530.134 154.756 530.328 154.756 530.55C154.756 530.694 154.727 530.83 154.668 530.959C154.61 531.088 154.523 531.202 154.409 531.302C154.295 531.401 154.154 531.483 153.987 531.548C153.82 531.609 153.628 531.649 153.412 531.667L153.095 531.908ZM153.095 534H151.241L151.645 533.341H153.095C153.321 533.341 153.508 533.313 153.658 533.257C153.807 533.199 153.918 533.117 153.992 533.011C154.068 532.903 154.106 532.774 154.106 532.625C154.106 532.475 154.068 532.348 153.992 532.242C153.918 532.134 153.807 532.052 153.658 531.996C153.508 531.938 153.321 531.908 153.095 531.908H151.86L151.869 531.258H153.412L153.706 531.504C153.967 531.524 154.188 531.589 154.37 531.697C154.551 531.806 154.689 531.943 154.783 532.11C154.876 532.274 154.923 532.453 154.923 532.646C154.923 532.869 154.881 533.065 154.796 533.235C154.714 533.405 154.594 533.547 154.436 533.662C154.277 533.773 154.085 533.858 153.86 533.917C153.634 533.972 153.379 534 153.095 534ZM155.798 531.675V531.574C155.798 531.231 155.848 530.914 155.947 530.621C156.047 530.325 156.19 530.068 156.378 529.852C156.565 529.632 156.792 529.462 157.059 529.342C157.326 529.219 157.625 529.157 157.956 529.157C158.29 529.157 158.59 529.219 158.856 529.342C159.126 529.462 159.354 529.632 159.542 529.852C159.732 530.068 159.877 530.325 159.977 530.621C160.077 530.914 160.126 531.231 160.126 531.574V531.675C160.126 532.018 160.077 532.336 159.977 532.629C159.877 532.922 159.732 533.178 159.542 533.398C159.354 533.615 159.127 533.785 158.861 533.908C158.597 534.028 158.298 534.088 157.964 534.088C157.63 534.088 157.33 534.028 157.063 533.908C156.797 533.785 156.568 533.615 156.378 533.398C156.19 533.178 156.047 532.922 155.947 532.629C155.848 532.336 155.798 532.018 155.798 531.675ZM156.611 531.574V531.675C156.611 531.913 156.639 532.137 156.694 532.348C156.75 532.556 156.833 532.74 156.945 532.901C157.059 533.062 157.201 533.19 157.371 533.284C157.541 533.375 157.739 533.42 157.964 533.42C158.187 533.42 158.382 533.375 158.549 533.284C158.719 533.19 158.859 533.062 158.971 532.901C159.082 532.74 159.166 532.556 159.221 532.348C159.28 532.137 159.309 531.913 159.309 531.675V531.574C159.309 531.34 159.28 531.119 159.221 530.911C159.166 530.7 159.081 530.514 158.966 530.353C158.855 530.188 158.714 530.06 158.544 529.966C158.377 529.872 158.181 529.825 157.956 529.825C157.733 529.825 157.537 529.872 157.367 529.966C157.2 530.06 157.059 530.188 156.945 530.353C156.833 530.514 156.75 530.7 156.694 530.911C156.639 531.119 156.611 531.34 156.611 531.574ZM164.372 531.306V531.965H161.858V531.306H164.372ZM162.029 529.245V534H161.216V529.245H162.029ZM165.031 529.245V534H164.213V529.245H165.031ZM167.219 532.712L169.412 529.245H170.229V534H169.412V530.533L167.219 534H166.411V529.245H167.219V532.712ZM173.473 529.245V534H172.655V529.245H173.473ZM175.068 529.245V529.904H171.091V529.245H175.068ZM176.747 532.712L178.939 529.245H179.757V534H178.939V530.533L176.747 534H175.938V529.245H176.747V532.712Z" fill="black"/>
<rect x="80" y="561" width="144" height="6" rx="3" fill="white"/>
<circle cx="155.44" cy="498.44" r="20.4396" fill="#2196F3"/>
<path d="M158.462 504.614C155.688 504.61 153.029 503.505 151.068 501.539C149.107 499.574 148.004 496.91 148 494.131C148 493.301 148.329 492.504 148.915 491.917C149.501 491.33 150.296 491 151.125 491C151.3 490.999 151.476 491.015 151.648 491.048C151.815 491.072 151.978 491.113 152.137 491.17C152.249 491.209 152.348 491.277 152.426 491.367C152.503 491.456 152.556 491.565 152.579 491.681L153.509 495.765C153.534 495.876 153.531 495.991 153.501 496.1C153.47 496.21 153.412 496.31 153.333 496.391C153.244 496.486 153.238 496.493 152.402 496.929C153.071 498.4 154.245 499.581 155.71 500.257C156.152 499.413 156.159 499.407 156.254 499.318C156.335 499.239 156.435 499.181 156.544 499.15C156.653 499.119 156.768 499.116 156.879 499.141L160.955 500.074C161.067 500.1 161.171 500.154 161.257 500.231C161.342 500.309 161.407 500.407 161.444 500.516C161.501 500.678 161.545 500.844 161.573 501.013C161.6 501.184 161.614 501.357 161.614 501.53C161.601 502.357 161.263 503.145 160.672 503.723C160.082 504.301 159.287 504.621 158.462 504.614Z" fill="white"/>
<defs>
<filter id="filter0_b_49_1224" x="-40" y="-40" width="384" height="654" filterUnits="userSpaceOnUse" color-interpolation-filters="sRGB">
<feFlood flood-opacity="0" result="BackgroundImageFix"/>
<feGaussianBlur in="BackgroundImage" stdDeviation="20"/>
<feComposite in2="SourceAlpha" operator="in" result="effect1_backgroundBlur_49_1224"/>
<feBlend mode="normal" in="SourceGraphic" in2="effect1_backgroundBlur_49_1224" result="shape"/>
</filter>
<linearGradient id="paint0_linear_49_1224" x1="-258" y1="-209.814" x2="417.143" y2="459.949" gradientUnits="userSpaceOnUse">
<stop stop-color="white" stop-opacity="0.8"/>
<stop offset="1" stop-color="white" stop-opacity="0.4"/>
</linearGradient>
</defs>
</svg>
