<svg width="134" height="134" viewBox="0 0 134 134" fill="none" xmlns="http://www.w3.org/2000/svg">
<path d="M70.2858 41.7375C66.0384 42.5745 64.5463 43.5243 60.4336 47.916C56.3209 52.3076 45.5847 63.5234 45.5847 63.5234C45.5847 63.5234 46.4687 65.9465 51.9387 65.5202C57.4087 65.0939 59.9916 62.2351 62.2047 60.3731C64.6811 58.2917 69.3172 53.922 69.3172 53.922L70.2858 41.7375Z" fill="#F28F8F"/>
<path d="M96.943 70.8019C95.6014 81.0585 93.0623 89.1898 86.8494 94.4278L62.9978 75.7296L63.6655 63.542L96.943 70.8019Z" fill="#455A64"/>
<path d="M90.5953 42.9161C87.6149 42.2539 84.5921 41.7993 81.5487 41.5557C78.878 41.3519 76.5144 41.0385 70.2859 41.7469C70.2859 41.7469 66.3393 46.5429 65.4052 53.0317C64.6685 58.1537 64.2736 66.2788 64.2736 66.2788C64.0416 69.5858 64.0291 72.0653 64.0604 73.7863C66.5681 75.9962 72.3391 76.8363 78.8466 77.7203C84.1379 78.4412 90.6392 82.7357 92.6642 87.0929C95.7988 81.742 96.8584 72.8459 97.2533 69.1689C97.6953 65.0249 97.8082 61.1536 96.9399 56.4955C95.0967 46.7247 93.266 43.5713 90.5953 42.9161Z" fill="#2196F3"/>
<path opacity="0.1" d="M89.4699 76.0838C87.7237 73.3874 85.3746 71.1338 82.6081 69.501C79.8003 67.9113 76.6639 66.9899 73.4424 66.8083C71.6026 66.6487 69.7492 66.8067 67.963 67.2754C67.5523 67.3945 67.8063 68.0778 68.1824 68.0277C71.3578 67.617 74.4925 67.5575 77.6115 68.3788C80.6454 69.2179 83.4662 70.6925 85.887 72.7046C87.1817 73.7405 88.3402 74.9359 89.3351 76.2624C89.4103 76.369 89.5232 76.1653 89.4699 76.0838Z" fill="black"/>
<path d="M70.6526 43.0636C71.6212 41.5871 71.1416 40.1483 69.5899 38.9885C67.0039 37.0262 66.4553 32.5687 66.4114 29.4968C66.3205 28.3965 66.123 25.5941 64.5087 26.3621C64.3206 26.453 64.4491 27.1458 64.4742 28.3589C64.1043 28.0172 63.4805 28.0454 63.3739 28.3589C63.2715 28.8233 63.218 29.2971 63.214 29.7726C63.1858 31.0077 62.6623 33.622 62.7282 35.1015C62.9883 36.4024 63.4617 38.6343 63.631 40.2392C63.6877 40.7433 63.6218 41.2536 63.439 41.7268C63.2561 42.2 62.9618 42.622 62.5808 42.957C61.1514 44.2109 59.6123 45.2578 57.1579 47.0321C54.1079 49.2263 51.8854 50.4802 48.7319 53.0506C46.1552 55.1508 45.4719 57.1821 45.1803 60.8434C44.9014 64.2915 46.7884 64.9498 48.8166 65.0407C53.2302 65.2476 55.111 63.9718 57.6187 60.4672C61.747 54.6775 64.7124 50.8971 66.3487 48.9943C68.3235 46.6966 70.2137 43.6341 70.6526 43.0636Z" fill="#FFB573"/>
<path d="M71.0726 40.9476C70.8137 40.1484 70.2909 39.4609 69.5899 38.9978C67.0038 37.0355 66.4552 32.578 66.4113 29.5061C66.3361 28.6158 66.195 26.6002 65.2797 26.2899C64.9349 28.3839 65.0948 32.8319 65.6308 35.5246C66.1982 38.3458 67.7279 40.1639 68.8783 40.6498C69.5875 40.8732 70.3295 40.9739 71.0726 40.9476Z" fill="#F28F8F"/>
<path d="M64.4742 28.3808C65.1011 28.6943 65.1732 31.6848 65.1732 31.6848C65.1732 31.6848 65.2986 29.572 65.2077 29.083C64.982 27.8761 64.4491 27.7037 64.4491 27.7037L64.4742 28.3808Z" fill="#F28F8F"/>
<path d="M83.7022 36.9447C83.9185 34.4746 86.1347 31.7349 87.0532 29.5249C87.9403 27.3902 88.4387 25.7633 88.1628 23.8355C87.9998 22.7008 87.1566 21.2149 86.282 20.9579C86.909 16.6415 83.5768 14.9331 81.8559 14.6666C81.0503 14.5666 80.2523 14.4127 79.4673 14.2058C78.5269 13.8924 78.2479 13.1745 77.458 12.6072C76.0944 11.626 73.9472 11.7765 73.2607 13.4817C72.3203 12.4536 71.1761 12.5758 69.8752 13.0209C69.3247 13.194 68.8603 13.5694 68.5758 14.0715C68.2913 14.5736 68.2079 15.1649 68.3424 15.7261C66.4867 14.8767 64.9569 16.2653 64.8943 17.3217C64.8347 18.1022 65.0541 18.7417 64.6059 19.4721C64.0981 20.2965 63.0229 20.3717 62.6467 19.7699C62.5527 20.8795 63.0479 21.6789 64.2297 21.5221C64.0536 21.8433 63.9499 22.1992 63.9261 22.5648C63.9023 22.9303 63.9588 23.2967 64.0918 23.638C64.2699 24.0648 64.5737 24.4272 64.9629 24.677C65.3521 24.9267 65.8082 25.052 66.2704 25.0361C66.4459 25.6254 66.5149 26.174 66.9349 26.663C67.3351 27.1601 67.849 27.5536 68.4333 27.8103C70.3141 28.5218 72.314 28.6378 74.2826 28.8823L76.621 29.1707C76.7558 29.1864 77.4548 29.1707 77.5457 29.2867L83.7022 36.9447Z" fill="#263238"/>
<path d="M86.398 33.553C85.9908 33.7618 85.5351 33.858 85.0782 33.8315C84.6213 33.8051 84.1798 33.657 83.7994 33.4025L84.4765 42.8065C83.0377 46.4709 77.8122 47.5085 75.4361 47.1135C72.3641 46.5963 73.2419 44.4836 74.3672 42.8849L74.1227 40.1107C74.1227 40.1107 72.7152 40.2141 71.5585 40.1891C68.4834 40.117 67.3048 38.2268 66.703 36.6626C65.9005 34.5718 65.5776 31.1675 65.8346 28.5407C65.9106 27.8694 65.8905 27.1907 65.7751 26.5251C65.4616 24.7634 65.9538 23.6412 66.2923 22.1115C68.2577 20.2495 73.734 19.4031 78.4893 21.798C78.1758 24.5377 78.7432 26.4655 80.7901 27.3338C80.7588 28.0705 80.8152 29.9168 82.0095 29.7851C82.8715 29.6911 82.8402 28.6034 83.6489 27.5909C84.4577 26.5784 86.5015 26.1427 87.4105 27.4843C88.6957 29.3275 88.3384 32.5562 86.398 33.553Z" fill="#FFB573"/>
<path d="M72.5898 35.1547C72.6528 34.9613 72.7601 34.7852 72.9033 34.6406C73.0772 34.4648 73.2796 34.3196 73.502 34.2112C73.7099 34.0933 73.9448 34.0314 74.1838 34.0314C74.4228 34.0314 74.6577 34.0933 74.8656 34.2112C74.8838 34.2202 74.8999 34.2329 74.9129 34.2486C74.9259 34.2643 74.9354 34.2825 74.9408 34.3021C74.9429 34.3262 74.937 34.3504 74.924 34.3708C74.9109 34.3912 74.8915 34.4067 74.8687 34.4149C74.6386 34.4575 74.4063 34.4868 74.1728 34.5027C73.964 34.5506 73.7626 34.6266 73.5741 34.7284C73.3934 34.8219 73.2326 34.9497 73.1008 35.1046C72.9973 35.2362 72.9158 35.3836 72.8155 35.5152C72.7779 35.5622 72.7246 35.6437 72.6525 35.6375C72.6225 35.6342 72.5945 35.6211 72.5729 35.6C72.5513 35.579 72.5374 35.5513 72.5334 35.5215C72.5264 35.3966 72.5456 35.2717 72.5898 35.1547Z" fill="#B16668"/>
<path d="M74.1226 40.101C77.1224 39.496 79.3982 38.982 80.7963 36.6529C81.674 35.1984 82.0971 33.0543 82.0971 33.0543C82.0971 33.0543 82.2382 35.6216 81.3981 37.5212C80.7492 38.9882 78.9343 40.3111 74.2323 41.1104L74.1226 40.101Z" fill="#F28F8F"/>
<path d="M73.9628 28.0232C73.9715 28.143 74.0038 28.2599 74.058 28.3671C74.1121 28.4743 74.187 28.5697 74.2782 28.6478C74.3694 28.7259 74.4752 28.7852 74.5895 28.8222C74.7037 28.8592 74.8242 28.8732 74.9439 28.8633C75.1319 28.8541 75.3129 28.7887 75.4633 28.6755C75.6138 28.5623 75.7268 28.4065 75.7877 28.2284C75.8486 28.0503 75.8547 27.8579 75.8051 27.6763C75.7555 27.4947 75.6525 27.3322 75.5095 27.2097C75.3665 27.0873 75.1901 27.0106 75.003 26.9895C74.8159 26.9685 74.6268 27.0041 74.4602 27.0917C74.2935 27.1794 74.1571 27.315 74.0684 27.4811C73.9797 27.6471 73.9429 27.836 73.9628 28.0232Z" fill="#263238"/>
<path d="M77.0849 26.0329L75.5552 24.6097C75.3677 24.821 75.2693 25.0966 75.2804 25.3787C75.2915 25.6609 75.4113 25.9279 75.6147 26.1238C75.716 26.2168 75.835 26.2885 75.9647 26.3344C76.0943 26.3804 76.2319 26.3997 76.3691 26.3912C76.5064 26.3827 76.6406 26.3466 76.7635 26.285C76.8865 26.2235 76.9958 26.1377 77.0849 26.0329Z" fill="#263238"/>
<path d="M67.7875 24.5531L66.1669 25.8947C66.2488 26.0046 66.3523 26.0966 66.4709 26.1651C66.5896 26.2337 66.721 26.2774 66.8571 26.2935C66.9932 26.3096 67.1311 26.2979 67.2625 26.259C67.3939 26.22 67.516 26.1548 67.6214 26.0671C67.8377 25.8841 67.9755 25.625 68.0064 25.3433C68.0373 25.0616 67.9589 24.7787 67.7875 24.5531Z" fill="#263238"/>
<path d="M67.0227 28.2586C67.0468 28.4332 67.1217 28.5969 67.2382 28.7294C67.3546 28.8618 67.5073 28.9571 67.6775 29.0034C67.8476 29.0497 68.0276 29.045 68.1951 28.9899C68.3625 28.9348 68.5101 28.8317 68.6195 28.6934C68.7289 28.5551 68.7952 28.3877 68.8102 28.212C68.8252 28.0363 68.7883 27.8601 68.704 27.7053C68.6197 27.5504 68.4918 27.4237 68.3361 27.341C68.1804 27.2582 68.0038 27.223 67.8283 27.2398C67.7081 27.253 67.5919 27.2899 67.4861 27.3485C67.3804 27.407 67.2874 27.4859 67.2124 27.5807C67.1375 27.6755 67.0821 27.7842 67.0495 27.9006C67.0169 28.017 67.0078 28.1386 67.0227 28.2586Z" fill="#263238"/>
<path d="M68.5898 31.3336L71.5333 32.7567L72.1163 27.1144C71.1289 27.0579 69.7559 28.9983 68.5898 31.3336Z" fill="#F28F8F"/>
<path d="M43.3058 90.9517C43.6976 89.7888 44.7164 86.9488 45.4185 84.883C43.591 84.5696 37.3562 82.5477 36.0867 81.8926C35.6823 84.6511 35.4597 86.6134 35.2027 87.9801C34.3939 92.3373 34.0617 95.6788 31.0963 98.5784C29.5156 100.064 27.8068 101.408 25.9899 102.594C24.0872 103.879 22.5982 104.757 22.1531 105.594C21.3632 107.076 23.5104 110.581 31.4003 108.728C34.3971 108.029 35.5036 106.471 36.4001 105.236C37.4847 103.735 37.8389 102.823 39.7103 102.199C43.4218 100.964 43.45 99.3777 43.3215 97.6474C43.1522 95.4092 42.0582 94.6851 43.3058 90.9517Z" fill="#FFB573"/>
<path d="M75.6273 90.5318C71.4833 97.5691 62.3207 98.1615 56.7724 95.2714C46.9515 90.1776 39.2183 66.9873 40.1336 61.3199C41.074 55.5897 47.1928 52.3579 56.7755 61.1663C61.9195 65.8933 64.7469 70.7834 68.4991 77.2157C70.1668 77.9179 75.806 81.4663 77.2166 85.4912C76.9956 87.2536 76.4572 88.9614 75.6273 90.5318Z" fill="#37474F"/>
<path d="M49.1552 62.9624C50.9639 64.9717 55.6377 74.7957 56.3147 80.8739C56.506 82.5822 59.1924 88.861 61.6123 91.4282C65.8723 95.9547 71.9755 94.5159 74.1227 92.5755C69.6402 97.707 61.675 97.8198 56.7661 95.2713C50.409 91.9737 44.8544 80.5384 41.9674 71.3194L49.1552 62.9624Z" fill="#263238"/>
<path d="M44.5755 55.9814C41.4627 56.6836 38.2685 60.1944 36.7169 71.2159C35.3063 81.228 34.6699 86.8892 34.6699 86.8892C37.5442 88.8884 41.0329 89.8066 44.519 89.4816C44.519 89.4816 45.9735 85.8516 47.7509 80.5227C49.5282 75.1938 50.9608 69.7332 49.6724 64.4638C48.822 61.2061 47.0528 58.2616 44.5755 55.9814Z" fill="#37474F"/>
<path d="M87.5044 94.1147C80.2947 100.384 73.0286 101.011 67.4865 98.149C57.6687 93.0552 53.067 59.7714 56.7879 59.1099C60.9225 58.3733 64.3612 60.7494 67.8501 64.4545C72.6367 69.5421 76.2416 74.0999 80.8809 80.7955C82.5485 81.4977 89.3445 86.1244 90.7457 90.1368C89.6579 91.8609 89.078 92.4032 87.5044 94.1147Z" fill="#455A64"/>
<path d="M59.8789 65.8428C61.6876 67.849 63.3584 79.0899 63.3898 85.2056C63.4148 90.384 65.584 94.8823 71.8533 96.8665C77.781 98.7473 83.1914 97.0138 85.2446 95.9042C79.248 100.509 72.3988 100.697 67.4868 98.1611C61.1328 94.8635 55.575 83.4282 52.6912 74.2092L59.8789 65.8428Z" fill="#37474F"/>
<path d="M55.6376 96.1081C55.9981 94.9075 56.9573 91.9829 57.6124 89.8544C55.7316 89.5817 49.5689 85.7136 48.2555 85.0835C47.8887 88.4815 47.5063 91.9139 47.2868 93.312C46.5878 97.7789 46.3464 101.196 43.4124 104.239C41.8441 105.801 40.1406 107.22 38.3217 108.481C36.4221 109.847 34.93 110.785 34.5006 111.653C33.7388 113.186 36.0303 116.697 44.0205 114.587C47.0549 113.784 48.1363 112.164 49.014 110.879C50.0767 109.311 50.409 108.371 52.2992 107.688C56.0608 106.321 56.0294 104.71 55.8476 102.939C55.6094 100.669 54.484 99.9512 55.6376 96.1081Z" fill="#FFB573"/>
<path d="M56.7881 59.1096C53.6534 59.7773 50.2523 63.2693 49.1426 73.1686C48.0173 83.2183 47.0957 92.0549 47.0957 92.0549C49.927 93.9111 53.3099 94.7389 56.6784 94.3996C56.6784 94.3996 58.4494 89.5503 60.2864 84.237C62.1233 78.9238 63.6122 73.4852 62.3834 68.2001C61.1547 62.9151 56.7881 59.1096 56.7881 59.1096Z" fill="#455A64"/>
<path d="M110.547 70.4791C109.921 68.429 108.714 65.6831 105.686 59.6457C102.297 52.8811 100.692 50.0348 97.6734 46.3861C95.4447 43.6934 90.5954 42.916 90.5954 42.916C90.5954 42.916 89.307 45.756 89.7271 50.4392C90.1346 54.9688 93.1752 60.2381 93.1752 60.2381L99.6232 70.6922C97.8396 71.9461 94.0999 74.4382 92.3727 74.3849C91.6482 74.3951 90.9418 74.1586 90.3697 73.7141C89.0437 72.7737 88.655 72.084 86.9717 71.5386C86.3622 71.3444 85.7299 71.2305 85.0909 71.2001C86.2852 72.4038 87.7271 74.1216 86.3636 75.7767C85.5392 76.7829 84.0094 77.2938 82.7806 77.4506C81.9257 77.538 81.0627 77.5064 80.2165 77.3565C79.4383 77.2332 78.717 76.8731 78.1508 76.3252C77.9439 76.8863 77.8592 77.4067 78.1508 77.9239C78.5014 78.4545 78.9662 78.9001 79.5112 79.2279C79.4744 79.6151 79.5865 80.0019 79.8247 80.3094C80.2291 80.8109 80.7544 81.2014 81.3512 81.4441C81.4048 81.7759 81.5789 82.0761 81.8402 82.2873C82.3387 82.6503 82.945 82.8347 83.5612 82.8108C83.9969 82.8422 84.7304 82.8328 84.7304 82.8328C85.5047 83.5506 87.1786 83.6446 88.1096 83.5726C89.0406 83.5005 90.1377 83.3657 91.0938 83.1964C92.0498 83.0271 92.9495 82.6165 93.8711 82.325C96.3788 81.5288 99.6138 80.4285 99.6138 80.4285C102.622 79.4004 105.573 78.2117 108.454 76.8675C112.14 75.062 111.535 73.6921 110.547 70.4791Z" fill="#FFB573"/>
<path d="M99.6231 70.6924C101.328 69.5577 105.297 68.3947 107.808 70.1376C105.381 67.7396 101.623 68.4606 99.1184 69.8774L99.6231 70.6924Z" fill="#F28F8F"/>
<path d="M76.4845 107.57L76.5495 107.683L76.5574 107.688C77.6821 109.707 78.0141 112.074 77.4859 114.326L77.1658 115.375C76.3782 117.574 74.7921 119.397 72.7223 120.481C70.6487 121.567 68.2421 121.831 65.9821 121.222C63.7221 120.613 61.7748 119.174 60.5283 117.193C59.2845 115.216 58.8297 112.843 59.2539 110.547L59.5129 109.48C60.0434 107.749 61.0671 106.21 62.4589 105.052C63.8547 103.891 65.5598 103.163 67.3641 102.958C69.1684 102.754 70.9932 103.081 72.6137 103.9C74.2342 104.72 75.5797 105.995 76.4845 107.57Z" fill="white" stroke="black" stroke-width="1.11167"/>
<path d="M66.9418 112.246L63.7507 115.396C63.5594 115.597 63.4538 115.865 63.4565 116.143C63.4591 116.42 63.5697 116.686 63.7648 116.884C63.9599 117.081 64.2243 117.195 64.5019 117.201C64.7795 117.207 65.0486 117.105 65.2522 116.916L68.4433 113.782L71.578 116.969C71.7771 117.171 72.0483 117.286 72.3319 117.288C72.6156 117.29 72.8884 117.18 73.0904 116.98C73.2925 116.781 73.4071 116.51 73.4092 116.226C73.4112 115.943 73.3005 115.67 73.1014 115.468L69.9636 112.267L73.1547 109.133C73.2542 109.034 73.3332 108.916 73.3871 108.786C73.441 108.657 73.4687 108.518 73.4687 108.377C73.4687 108.237 73.441 108.098 73.3871 107.968C73.3332 107.839 73.2542 107.721 73.1547 107.622C72.9539 107.422 72.6823 107.31 72.3992 107.31C72.1162 107.31 71.8446 107.422 71.6438 107.622L68.4527 110.757L65.318 107.569C65.1183 107.369 64.848 107.257 64.5657 107.255C64.4248 107.254 64.2851 107.282 64.1549 107.335C64.0246 107.389 63.9064 107.469 63.8071 107.569C63.7075 107.668 63.6285 107.786 63.5746 107.916C63.5206 108.046 63.4929 108.185 63.4929 108.326C63.4929 108.466 63.5206 108.606 63.5746 108.735C63.6285 108.865 63.7075 108.983 63.8071 109.083L66.9418 112.246Z" fill="#2196F3"/>
</svg>
