<svg width="134" height="134" viewBox="0 0 134 134" fill="none" xmlns="http://www.w3.org/2000/svg">
<path d="M15.8534 86.3156L10.8998 83.4569C10.6375 83.2863 10.4193 83.0561 10.2629 82.7851C10.1065 82.514 10.0164 82.2099 10 81.8974V52.7927C10.0169 52.4807 10.1072 52.1771 10.2636 51.9066C10.4199 51.6361 10.6379 51.4063 10.8998 51.236L51.3033 27.9065C51.5822 27.7652 51.8905 27.6915 52.2031 27.6915C52.5158 27.6915 52.8241 27.7652 53.103 27.9065L58.0565 30.7623C58.3184 30.9326 58.5364 31.1624 58.6928 31.4329C58.8492 31.7034 58.9395 32.007 58.9563 32.319V61.4324C58.9395 61.7443 58.8492 62.0479 58.6928 62.3184C58.5364 62.5889 58.3184 62.8187 58.0565 62.989L17.653 86.3156C17.3741 86.4569 17.0659 86.5306 16.7532 86.5306C16.4405 86.5306 16.1323 86.4569 15.8534 86.3156Z" fill="#455A64"/>
<path d="M58.9564 32.3247V61.4323C58.9395 61.7443 58.8493 62.0479 58.6929 62.3184C58.5365 62.5889 58.3185 62.8187 58.0566 62.989L17.6531 86.3156C17.1555 86.6049 16.7533 86.3706 16.7533 85.7977V56.6929C16.7697 56.3805 16.8598 56.0763 17.0162 55.8053C17.1726 55.5342 17.3908 55.304 17.6531 55.1334L58.0566 31.8068C58.5543 31.5204 58.9564 31.7518 58.9564 32.3247Z" fill="#263238"/>
<path d="M17.4447 86.4169C17.187 86.5105 16.9128 86.5503 16.6392 86.5339C16.3655 86.5175 16.098 86.4452 15.8534 86.3215L10.8998 83.4628C10.638 83.2917 10.4201 83.0613 10.2638 82.7904C10.1075 82.5195 10.0171 82.2156 10 81.9032V52.7927C10.0114 52.4801 10.102 52.1754 10.2633 51.9073L17.0165 55.8048C16.8552 56.0729 16.7646 56.3775 16.7532 56.6901V85.8035C16.7503 86.2925 17.0396 86.5327 17.4447 86.4169Z" fill="#37474F"/>
<path d="M86.4119 113.389L82.2483 110.985C82.1091 110.913 81.9548 110.876 81.7984 110.876C81.6419 110.876 81.4877 110.913 81.3485 110.985L77.182 113.389C77.0489 113.472 76.9393 113.588 76.8637 113.725C76.8492 113.751 76.8405 113.783 76.8261 113.809C76.7693 113.92 76.7367 114.043 76.7306 114.168V120.927C76.7392 121.075 76.7811 121.22 76.8532 121.35C76.9253 121.48 77.0258 121.593 77.1472 121.679C77.1472 121.679 77.1675 121.699 77.1791 121.705L81.3427 124.109L81.3976 124.13C81.4476 124.155 81.4999 124.175 81.5539 124.19C81.6328 124.208 81.7133 124.216 81.794 124.216C81.9503 124.22 82.1047 124.183 82.2425 124.109L86.409 121.705C86.5399 121.62 86.6487 121.505 86.7267 121.369C86.8046 121.234 86.8494 121.082 86.8575 120.927V114.168C86.8498 114.012 86.8054 113.86 86.7279 113.725C86.6505 113.59 86.5422 113.475 86.4119 113.389Z" fill="#455A64"/>
<path d="M82.2453 124.109L86.4119 121.705C86.5427 121.62 86.6515 121.505 86.7295 121.37C86.8074 121.234 86.8523 121.083 86.8603 120.927V114.168C86.8603 113.878 86.6607 113.765 86.4119 113.907L82.2482 116.312C82.1172 116.397 82.008 116.512 81.9296 116.647C81.8512 116.782 81.8057 116.934 81.7969 117.09V123.849C81.7969 124.138 81.9994 124.254 82.2453 124.109Z" fill="#37474F"/>
<path d="M121.862 92.9214L117.698 90.517C117.559 90.4457 117.405 90.4084 117.248 90.4084C117.092 90.4084 116.938 90.4457 116.798 90.517L112.632 92.9214C112.499 93.0042 112.389 93.1197 112.314 93.2571C112.314 93.2831 112.29 93.3149 112.276 93.341C112.22 93.4525 112.188 93.5749 112.183 93.6997V100.459C112.193 100.607 112.235 100.752 112.307 100.882C112.379 101.012 112.479 101.124 112.6 101.211C112.61 101.221 112.621 101.229 112.632 101.237L116.798 103.641C116.815 103.65 116.832 103.657 116.85 103.662C116.901 103.686 116.953 103.707 117.007 103.722C117.086 103.74 117.166 103.749 117.247 103.749C117.404 103.752 117.559 103.715 117.698 103.641L121.862 101.237C121.993 101.152 122.101 101.037 122.179 100.902C122.257 100.766 122.302 100.615 122.31 100.459V93.6997C122.302 93.5439 122.257 93.3922 122.179 93.2569C122.101 93.1217 121.992 93.0067 121.862 92.9214Z" fill="#455A64"/>
<path d="M117.698 103.641L121.862 101.237C121.993 101.152 122.102 101.037 122.18 100.902C122.257 100.766 122.302 100.614 122.31 100.459V93.6996C122.31 93.4103 122.108 93.2974 121.859 93.4392L117.695 95.8436C117.564 95.9291 117.455 96.0444 117.376 96.1801C117.298 96.3159 117.252 96.4683 117.244 96.6248V103.387C117.247 103.676 117.441 103.786 117.698 103.641Z" fill="#37474F"/>
<path d="M57.1567 53.7533L18.553 76.0325C18.027 76.3739 17.5895 76.8352 17.2762 77.3783C16.9629 77.9215 16.7827 78.5311 16.7504 79.1573V80.8644C16.7839 81.4892 16.9644 82.0973 17.2771 82.6393C17.5898 83.1812 18.0259 83.6418 18.5501 83.9835L79.9972 119.431C80.5547 119.714 81.1714 119.862 81.7969 119.862C82.4225 119.862 83.0392 119.714 83.5966 119.431L122.2 97.1514C122.725 96.8104 123.161 96.3505 123.474 95.8089C123.786 95.2674 123.967 94.6597 124 94.0352V92.3281C123.967 91.7033 123.786 91.0952 123.473 90.5533C123.161 90.0113 122.725 89.5508 122.2 89.209L60.7561 53.7533C60.1986 53.4695 59.582 53.3215 58.9564 53.3215C58.3309 53.3215 57.7142 53.4695 57.1567 53.7533Z" fill="#455A64"/>
<path d="M124 92.3194V94.0265C123.966 94.6512 123.785 95.259 123.472 95.8008C123.16 96.3427 122.724 96.8033 122.2 97.1456L83.5879 119.433C83.0343 119.727 82.4148 119.875 81.7882 119.862V113.997C82.4148 114.01 83.0343 113.862 83.5879 113.569L122.192 91.2894C123.118 90.7512 123.181 89.9063 122.374 89.3276C122.847 89.6773 123.238 90.1264 123.519 90.6432C123.8 91.1601 123.964 91.7322 124 92.3194Z" fill="#263238"/>
<path d="M18.553 78.1187C17.6068 77.5747 17.5634 76.7096 18.417 76.1338C17.9312 76.4815 17.5295 76.9336 17.2411 77.4568C16.9527 77.9799 16.785 78.561 16.7504 79.1574V80.8645C16.7839 81.4893 16.9644 82.0974 17.2771 82.6393C17.5898 83.1813 18.0259 83.6418 18.5501 83.9836L79.9972 119.431C80.5502 119.726 81.17 119.875 81.7969 119.862V113.997C81.1704 114.009 80.5511 113.862 79.9972 113.569L18.553 78.1187Z" fill="#37474F"/>
<path d="M57.1567 44.0229L18.553 66.3021C18.027 66.6436 17.5895 67.1048 17.2762 67.648C16.9629 68.1911 16.7827 68.8008 16.7504 69.427V73.0669C16.7838 73.6924 16.9645 74.3013 17.2778 74.8438C17.591 75.3863 18.0279 75.8471 18.553 76.1889L79.9972 111.636C80.5551 111.918 81.1716 112.066 81.7969 112.066C82.4222 112.066 83.0387 111.918 83.5966 111.636L122.2 89.3567C122.725 89.0158 123.161 88.5558 123.474 88.0143C123.786 87.4728 123.967 86.865 124 86.2405V82.5891C123.967 81.9643 123.786 81.3562 123.473 80.8142C123.161 80.2723 122.725 79.8117 122.2 79.47L60.7561 44.0229C60.1986 43.7391 59.582 43.5912 58.9564 43.5912C58.3309 43.5912 57.7142 43.7391 57.1567 44.0229Z" fill="#2196F3"/>
<path opacity="0.8" d="M18.553 68.3767L79.9973 103.838C80.5551 104.121 81.1717 104.268 81.797 104.268C82.4223 104.268 83.0388 104.121 83.5967 103.838L122.2 81.559C123.196 80.9803 123.196 80.0544 122.2 79.4787L60.7562 44.0229C60.1987 43.7391 59.582 43.5912 58.9565 43.5912C58.3309 43.5912 57.7142 43.7391 57.1568 44.0229L18.553 66.3021C17.5577 66.8837 17.5577 67.8154 18.553 68.3767Z" fill="white"/>
<path opacity="0.05" d="M25.1933 64.4243L33.5841 69.2997C34.5794 69.8784 35.5806 69.7337 37.0041 69.2997C38.4277 68.8657 43.141 66.985 43.141 66.985C43.141 66.985 43.9107 70.0288 47.131 74.1635C48.3578 75.7375 50.6841 78.6946 54.5902 80.8183L77.5175 67.3553L58.9477 56.6324L60.6345 55.6775C61.8903 54.9166 61.6299 54.2656 60.6345 53.6898L50.4121 47.8075L25.1875 62.4741C24.195 63.0499 24.1979 63.8514 25.1933 64.4243Z" fill="black"/>
<path opacity="0.5" d="M124 82.5889V86.2317C123.966 86.856 123.785 87.4634 123.472 88.0047C123.16 88.5461 122.724 89.0063 122.2 89.3479L83.5879 111.636C83.0343 111.93 82.4148 112.077 81.7882 112.064V104.255C82.4148 104.268 83.0343 104.12 83.5879 103.826L122.192 81.5473C123.118 81.0091 123.181 80.1643 122.374 79.5856C122.848 79.9365 123.24 80.3874 123.521 80.9064C123.802 81.4253 123.966 81.9998 124 82.5889Z" fill="white"/>
<path opacity="0.6" d="M18.553 68.3767C17.6068 67.8328 17.5634 66.9676 18.417 66.3918C17.9298 66.7408 17.5271 67.1947 17.2386 67.72C16.9502 68.2453 16.7833 68.8286 16.7504 69.427V73.0669C16.7838 73.6925 16.9645 74.3013 17.2778 74.8438C17.591 75.3863 18.0279 75.8472 18.553 76.1889L79.9972 111.636C80.551 111.929 81.1704 112.077 81.7969 112.064V104.255C81.1704 104.267 80.5511 104.12 79.9972 103.827L18.553 68.3767Z" fill="white"/>
<path d="M60.8371 52.5207C60.9789 51.3634 59.726 49.338 58.0392 48.0157L51.2483 42.6832C50.3051 41.9425 49.4255 41.575 48.8092 41.5953C47.2178 41.52 40.4183 44.7954 37.0273 46.7484C33.6362 48.7015 26.2002 53.4437 24.875 55.5386C24.4352 56.2243 35.4533 67.2192 37.0041 66.9299C40.456 66.2731 46.9198 63.2061 50.2935 61.1431C55.8083 57.7781 59.049 54.9165 60.2179 53.6839C60.7734 53.0907 60.8081 52.7667 60.8371 52.5207Z" fill="#FAFAFA"/>
<path d="M42.6492 49.9514C40.2072 51.3518 40.0451 53.0965 41.243 55.1595C42.0416 56.5339 43.2684 58.4349 45.3285 59.3347C46.564 59.8758 47.1369 60.4111 48.0309 61.5077C48.0483 61.5279 48.0599 61.5511 48.0743 61.5713C49.2838 60.9637 50.4672 60.3243 51.5464 59.7166L42.6492 49.9514Z" fill="#E0E0E0"/>
<path d="M27.4559 60.5644L34.2467 65.8969C35.9365 67.2221 37.4295 67.3436 37.5626 66.1863C37.6957 65.0289 36.4515 63.0035 34.7646 61.6813L27.9738 56.3487C26.287 55.0235 24.7911 54.902 24.658 56.0594C24.5249 57.2167 25.7633 59.2305 27.4559 60.5644Z" fill="#E0E0E0"/>
<path d="M68.0619 61.0967C67.2633 60.6279 66.3403 60.2026 62.8538 58.4926C60.0964 57.1501 59.0345 56.5685 57.7701 56.2791C56.2395 55.9262 54.57 56.4643 52.7616 56.9765L63.256 63.8512L68.0619 61.0967Z" fill="#FFB573"/>
<path d="M52.5707 57.0344C55.574 56.0419 57.0352 55.5877 59.6016 56.8029C62.9406 58.3769 66.6384 60.3473 66.6384 60.3473C65.3422 60.4023 63.4354 62.7257 63.5627 64.6643L52.5707 57.0344Z" fill="#37474F"/>
<path d="M47.2758 59.2479C46.1179 60.0268 45.0068 60.8732 43.9483 61.7825C43.0803 62.6129 43.9889 62.8762 44.2377 64.0365C45.6844 70.9257 57.7701 77.0568 57.7701 77.0568L69.7488 67.6561C66.1493 65.3105 62.7056 62.7338 59.4396 59.9423C56.5462 57.4945 55.2673 56.0883 51.5609 57.3238C48.5112 58.3336 47.2758 59.2479 47.2758 59.2479Z" fill="#455A64"/>
<path d="M50.2386 46.8583C49.9856 46.3764 49.6376 45.9507 49.2157 45.6068C48.7938 45.2629 48.3066 45.0079 47.7835 44.8573C47.2604 44.7067 46.7123 44.6635 46.1721 44.7304C45.6319 44.7972 45.1108 44.9727 44.6402 45.2463C44.1696 45.5199 43.7593 45.8859 43.4339 46.3223C43.1086 46.7587 42.8749 47.2564 42.747 47.7855C42.6191 48.3146 42.5996 48.8641 42.6897 49.4009C42.7798 49.9378 42.9777 50.4508 43.2713 50.9091C43.306 50.9699 43.3494 51.0277 43.3871 51.0885L42.6377 53.4235L40.8004 50.8368C40.7745 50.6184 40.6684 50.4175 40.5026 50.2731C40.3368 50.1287 40.1232 50.0512 39.9034 50.0556C39.7923 50.0598 39.6833 50.0866 39.5829 50.1343C39.4825 50.1819 39.3928 50.2494 39.3192 50.3327C39.2456 50.416 39.1897 50.5134 39.1549 50.6189C39.12 50.7245 39.1069 50.836 39.1164 50.9467L40.2738 50.9062C40.0424 51.1039 39.8785 51.3689 39.805 51.6643C39.6198 52.4108 40.7454 53.7475 42.1747 54.8673C42.1747 54.8673 44.284 57.182 44.7788 57.4945C45.0868 57.6753 45.4527 57.7302 45.8001 57.6478L45.2996 52.6307C46.0793 52.9364 46.9349 52.9916 47.7474 52.7887C48.5599 52.5858 49.2891 52.1348 49.8335 51.4984C50.3779 50.862 50.7106 50.0718 50.7853 49.2377C50.8599 48.4035 50.6729 47.5669 50.2502 46.8439L50.2386 46.8583Z" fill="#263238"/>
<path d="M43.63 54.1989C43.4911 54.4507 42.9472 54.2163 42.5247 54.0948C42.1023 53.9733 41.023 54.0948 41.1214 55.2521C41.2198 56.4095 42.7446 57.1676 43.5432 56.9882C44.9233 56.6757 44.66 55.8308 44.66 55.8308L47.2641 60.1131C49.7929 61.1258 53.9594 58.5419 51.1557 57.5784L50.4063 56.3025C50.8924 56.1045 51.3544 55.8522 51.7836 55.5502C52.5648 54.9165 52.7095 53.927 52.4288 52.8477C51.9775 51.1117 51.4335 49.8212 49.3734 47.0985C47.131 44.0981 43.3696 46.2421 42.0907 48.7015C40.8118 51.1609 43.63 54.1989 43.63 54.1989Z" fill="#FFB573"/>
<path d="M47.6489 51.731C47.7126 51.9364 47.5882 52.6684 47.1426 52.8594C47.2745 52.8623 47.4044 52.8263 47.516 52.7558C47.6276 52.6853 47.7159 52.5835 47.77 52.4631C47.824 52.3427 47.8413 52.209 47.8198 52.0788C47.7983 51.9486 47.7388 51.8276 47.6489 51.731Z" fill="#AF6152"/>
<path d="M49.223 50.8773C49.3851 51.0162 50.1084 51.1898 50.4585 50.8571C50.409 50.9791 50.3247 51.0839 50.216 51.1584C50.1073 51.2329 49.9792 51.2738 49.8475 51.2759C49.7158 51.2781 49.5863 51.2414 49.4753 51.1706C49.3642 51.0997 49.2765 50.9977 49.223 50.8773Z" fill="#AF6152"/>
<path d="M49.6686 54.0456C49.5863 53.9608 49.4826 53.8999 49.3685 53.8693C49.2543 53.8387 49.1341 53.8397 49.0204 53.872C48.812 53.908 48.6254 54.023 48.4996 54.1931C48.4883 54.205 48.4812 54.2203 48.4794 54.2365C48.4794 54.3581 48.7398 54.2018 48.7687 54.1845C48.8682 54.1378 48.9732 54.1038 49.0812 54.0832C49.1763 54.0636 49.2738 54.0577 49.3705 54.0658C49.4154 54.0683 49.46 54.0751 49.5036 54.0861C49.5471 54.1029 49.593 54.1127 49.6396 54.115C49.6859 54.115 49.6772 54.06 49.6686 54.0456Z" fill="#AF6152"/>
<path d="M47.4638 52.0549C47.4418 52.1676 47.3868 52.2712 47.3057 52.3525C47.2246 52.4339 47.1212 52.4892 47.0086 52.5116C46.896 52.534 46.7792 52.5224 46.6732 52.4782C46.5672 52.434 46.4768 52.3593 46.4134 52.2636C46.35 52.1679 46.3165 52.0554 46.3171 51.9406C46.3178 51.8258 46.3527 51.7138 46.4172 51.6188C46.4817 51.5238 46.5731 51.4502 46.6796 51.4073C46.7861 51.3644 46.903 51.3541 47.0153 51.3778C47.164 51.4092 47.2943 51.4978 47.3783 51.6245C47.4622 51.7511 47.4929 51.9057 47.4638 52.0549Z" fill="#AF6152"/>
<path d="M50.2067 50.1252C50.2445 50.2336 50.2491 50.3508 50.2201 50.4618C50.1911 50.5729 50.1296 50.6728 50.0437 50.7489C49.9577 50.825 49.851 50.8737 49.7373 50.889C49.6235 50.9043 49.5077 50.8854 49.4047 50.8347C49.3017 50.784 49.2161 50.7039 49.1588 50.6044C49.1015 50.5049 49.0751 50.3907 49.0829 50.2761C49.0907 50.1616 49.1324 50.052 49.2027 49.9612C49.273 49.8704 49.3686 49.8026 49.4776 49.7664C49.6219 49.7184 49.7793 49.7291 49.9157 49.7963C50.0522 49.8634 50.1567 49.9816 50.2067 50.1252Z" fill="#AF6152"/>
<path d="M50.2067 50.1252C50.2445 50.2336 50.2491 50.3508 50.2201 50.4618C50.1911 50.5729 50.1296 50.6728 50.0437 50.7489C49.9577 50.825 49.851 50.8737 49.7373 50.889C49.6235 50.9043 49.5077 50.8854 49.4047 50.8347C49.3017 50.784 49.2161 50.7039 49.1588 50.6044C49.1015 50.5049 49.0751 50.3907 49.0829 50.2761C49.0907 50.1616 49.1324 50.052 49.2027 49.9612C49.273 49.8704 49.3686 49.8026 49.4776 49.7664C49.6219 49.7184 49.7793 49.7291 49.9157 49.7963C50.0522 49.8634 50.1567 49.9816 50.2067 50.1252Z" fill="#AF6152"/>
<path d="M49.6917 50.4579C49.5808 50.4957 49.4594 50.4879 49.3542 50.4364C49.249 50.3849 49.1685 50.2938 49.1304 50.183C49.0493 49.9544 49.2374 49.856 49.4689 49.775C49.7004 49.694 49.8826 49.6651 49.9637 49.8965C50.0008 50.0071 49.9931 50.1278 49.9423 50.2327C49.8914 50.3377 49.8014 50.4185 49.6917 50.4579Z" fill="#263238"/>
<path d="M46.9835 52.0578C46.9413 52.0976 46.8917 52.1285 46.8374 52.1489C46.7832 52.1692 46.7255 52.1786 46.6676 52.1765C46.6097 52.1743 46.5528 52.1607 46.5002 52.1363C46.4477 52.112 46.4005 52.0774 46.3614 52.0347C46.1964 51.8553 46.3267 51.6904 46.506 51.5254C46.6854 51.3605 46.8417 51.2564 47.0095 51.4358C47.0487 51.4783 47.0791 51.5281 47.099 51.5824C47.1189 51.6367 47.1279 51.6944 47.1255 51.7522C47.1231 51.81 47.1093 51.8667 47.0849 51.9192C47.0605 51.9716 47.0261 52.0187 46.9835 52.0578Z" fill="#263238"/>
<path d="M43.8384 54.5549C43.7343 54.6185 42.9328 54.1787 42.5248 54.0919C41.9635 53.9733 40.6702 50.6633 40.6702 50.6633C40.4211 50.4577 40.2376 50.184 40.142 49.8756C40.0464 49.5672 40.0429 49.2376 40.132 48.9272C40.3403 47.9464 41.4543 47.1738 42.2297 46.6588C42.7823 46.2884 43.335 45.9152 43.85 45.5014C44.365 45.0877 44.8367 44.6132 45.2967 44.1473C45.5836 43.9097 45.8006 43.5987 45.9246 43.2475C45.9291 43.2168 45.9433 43.1884 45.9651 43.1665C45.9789 43.1572 45.9946 43.1508 46.011 43.1478C46.0274 43.1448 46.0443 43.1453 46.0606 43.1491C46.2712 43.191 46.4588 43.3096 46.5872 43.4818C46.7916 43.7683 46.939 44.0915 47.0212 44.4338C47.126 44.2964 47.2171 44.1491 47.2931 43.994C47.3534 43.8218 47.3932 43.6431 47.4118 43.4616C47.4133 43.4386 47.4213 43.4165 47.4349 43.3979C47.4436 43.388 47.4542 43.38 47.4662 43.3745C47.4782 43.369 47.4912 43.3662 47.5044 43.3661C47.5445 43.3706 47.5833 43.3835 47.6182 43.404C47.6531 43.4244 47.6833 43.4519 47.7069 43.4847C48.0307 43.8366 48.2484 44.273 48.3348 44.7434C48.4222 45.2132 48.3864 45.6977 48.2306 46.1496C47.9818 46.8382 47.3626 47.3243 46.7839 47.7554C45.5166 48.7189 43.2742 49.7576 42.9617 49.8878C42.5335 50.0643 42.6724 50.4983 43.0717 51.6702C43.442 52.6857 44.1972 54.3379 43.8384 54.5549Z" fill="#263238"/>
<path d="M50.4151 56.288C50.4151 56.288 48.0396 57.0981 47.1629 57.1328C46.6538 57.1559 46.1496 57.0248 45.7162 56.7567C46.0459 57.0897 46.4396 57.3525 46.8735 57.5292C47.7271 57.8707 50.7247 56.7972 50.7247 56.7972L50.4151 56.288Z" fill="#AF6152"/>
<path d="M45.2677 51.1638L45.8088 50.2263C45.9318 50.3046 46.0208 50.4266 46.0578 50.5677C46.0948 50.7088 46.0772 50.8586 46.0084 50.9873C45.9725 51.0487 45.9245 51.1023 45.8674 51.1446C45.8102 51.187 45.745 51.2174 45.6758 51.2339C45.6066 51.2504 45.5347 51.2527 45.4646 51.2406C45.3944 51.2286 45.3275 51.2024 45.2677 51.1638Z" fill="#263238"/>
<path d="M48.4129 48.4788L49.5008 48.58C49.4976 48.6515 49.4799 48.7215 49.4486 48.7858C49.4174 48.8501 49.3733 48.9074 49.3191 48.954C49.2649 49.0006 49.2017 49.0357 49.1334 49.0569C49.0651 49.0782 48.9932 49.0853 48.9221 49.0777C48.7774 49.0603 48.6446 48.989 48.5502 48.878C48.4558 48.7669 48.4067 48.6244 48.4129 48.4788Z" fill="#263238"/>
<path d="M47.7386 50.5823L49.1014 52.9375L50.117 51.893L47.7386 50.5823Z" fill="#AF6152"/>
<path opacity="0.1" d="M61.4766 76.918C60.4688 76.3297 59.5159 75.6518 58.6295 74.8927C57.9206 74.2503 57.2522 73.3881 57.5474 72.4767L53.5574 74.7914C54.2576 76.2699 55.9242 77.1495 57.3448 77.9741C58.1164 78.4101 58.888 78.8344 59.6596 79.2472L60.5623 79.716C64.9661 81.967 69.5579 83.8506 74.141 85.7285C74.6966 85.957 75.2984 86.1914 75.8771 86.0525L61.4766 76.918Z" fill="black"/>
<path d="M41.7319 81.7731V95.4155L81.7969 118.522V104.255C81.1702 104.268 80.5507 104.121 79.9972 103.827L41.7319 81.7731Z" fill="#2196F3"/>
<path opacity="0.3" d="M41.7319 81.7731V95.4155L81.7969 118.522V104.255C81.1702 104.268 80.5507 104.121 79.9972 103.827L41.7319 81.7731Z" fill="black"/>
<path d="M122.2 81.5503C123.126 81.0122 123.19 80.1673 122.383 79.5886C122.855 79.9401 123.245 80.3909 123.524 80.9093C123.804 81.4277 123.966 82.0011 124 82.5891V94.1627L81.7969 118.522V104.255C82.4234 104.267 83.0428 104.12 83.5966 103.827L122.2 81.5503Z" fill="#2196F3"/>
<path opacity="0.45" d="M122.2 81.5503C123.126 81.0122 123.19 80.1673 122.383 79.5886C122.855 79.9401 123.245 80.3909 123.524 80.9093C123.804 81.4277 123.966 82.0011 124 82.5891V94.1627L81.7969 118.522V104.255C82.4234 104.267 83.0428 104.12 83.5966 103.827L122.2 81.5503Z" fill="black"/>
<path d="M122.2 79.4699L83.935 57.4048L68.3107 66.3975C63.1026 65.6365 56.1844 70.4222 53.9392 74.7218L41.729 81.773L79.9942 103.838C80.5521 104.121 81.1686 104.268 81.7939 104.268C82.4192 104.268 83.0357 104.121 83.5936 103.838L122.197 81.5589C123.196 80.9744 123.196 80.0456 122.2 79.4699Z" fill="#2196F3"/>
<path opacity="0.2" d="M122.2 79.4699L83.935 57.4048L68.3107 66.3975C63.1026 65.6365 56.1844 70.4222 53.9392 74.7218L41.729 81.773L79.9942 103.838C80.5521 104.121 81.1686 104.268 81.7939 104.268C82.4192 104.268 83.0357 104.121 83.5936 103.838L122.197 81.5589C123.196 80.9744 123.196 80.0456 122.2 79.4699Z" fill="black"/>
<path opacity="0.1" d="M122.2 79.4699L83.9352 57.4048L68.3108 66.3975C70.8364 67.9687 73.4442 69.404 76.123 70.6971C78.05 71.811 83.3999 74.5974 88.6311 77.5631C90.3209 78.5208 94.9966 79.4091 97.022 79.1863C98.804 78.9728 100.559 78.5753 102.259 78C102.577 77.887 102.915 77.8388 103.251 77.8582C104.716 78.0087 104.565 79.4699 104.322 80.5057C104.048 81.8807 103.516 83.1913 102.754 84.3684C102.44 84.9178 102.188 85.5 102.002 86.1044C101.816 87.201 102.357 88.0372 103.405 88.5002C104.452 88.9631 108.572 89.4145 110.572 88.26L122.206 81.5444C123.19 80.9773 123.19 80.0428 122.2 79.4699Z" fill="black"/>
<path opacity="0.1" d="M87.5229 92.6811C86.6973 92.1796 85.8833 91.6597 85.0809 91.1216C84.7655 90.9103 83.3449 89.9874 82.9919 89.6749C84.0364 90.1349 85.0664 90.6123 86.0994 91.1013C87.2278 91.6337 88.3678 92.1429 89.5309 92.6001C91.0934 93.2135 93.2924 94.3564 94.6291 92.7101C95.4306 91.7321 95.6187 90.3143 95.8849 89.0759C95.9948 88.5638 96.6342 87.5019 97.0596 86.3098C97.6845 84.5593 97.9073 82.6902 95.8125 83.1937C95.4885 83.2718 94.9445 83.5264 94.6118 83.6248C93.1361 84.079 91.7936 85.002 90.2572 85.1554C88.2318 85.355 86.1804 84.2555 84.7076 82.9911C83.015 81.5444 78.9845 79.0821 77.0546 77.9711C76.8926 77.8785 76.9041 77.945 76.7653 77.8148C77.6333 78.1418 80.4862 79.7129 81.279 80.1787C81.8837 80.5346 82.4653 80.9252 83.0729 81.2782C84.2073 81.958 85.379 82.5733 86.5826 83.1213C87.7724 83.6918 89.0874 83.9516 90.4047 83.8765C91.9469 83.7405 93.356 82.9911 94.794 82.4298C95.3438 82.1675 95.9508 82.0481 96.559 82.0826C97.5196 82.207 98.324 83.4107 98.2719 84.3423C98.2719 84.3713 98.2719 84.4002 98.2719 84.4291C98.0896 86.0003 97.8234 87.5598 97.6759 89.1396C97.5896 89.6071 97.6409 90.0895 97.8234 90.5284C97.9737 90.7561 98.1701 90.9497 98.3998 91.0967C98.6296 91.2437 98.8876 91.3409 99.1573 91.382C99.6897 91.5035 100.242 91.5209 100.76 91.6887C100.83 91.7049 100.892 91.7423 100.94 91.7957C101.021 91.9115 100.94 92.0677 100.856 92.1777C100.354 92.7848 99.7114 93.2597 98.9837 93.5607C98.269 93.8848 97.5167 94.1162 96.7963 94.4287C96.2413 94.7058 95.6596 94.9259 95.0602 95.0855C94.6779 95.1491 94.2904 95.1772 93.9029 95.1694C93.2287 95.1694 91.9093 95.1694 89.8753 94.0613C89.0854 93.6041 88.2926 93.1441 87.5229 92.6811Z" fill="black"/>
<path opacity="0.2" d="M48.4851 85.6705V99.3419L49.33 99.8019L49.3271 86.1566L48.4851 85.6705Z" fill="black"/>
<path opacity="0.1" d="M48.4851 85.6705L59.6739 79.2095C62.385 75.9226 69.659 69.5687 75.252 70.1908L90.694 61.3022L91.5621 61.8144L76.12 70.6913C70.5184 70.9807 65.3652 74.4904 60.5708 79.6753L49.3271 86.1508L48.4851 85.6705Z" fill="black"/>
<path d="M56.4247 80.1613C55.386 79.8112 50.9851 78.3848 49.0784 77.3866C47.3684 76.4867 47.1745 76.18 46.5785 75.0574C45.8175 73.6107 44.5878 71.267 43.1064 68.0495C41.732 65.0636 42.9733 63.449 43.8153 62.4711L47.2179 64.6151L51.5059 72.9278C51.5059 72.9278 55.7477 75.5319 57.1915 76.3449C57.8703 76.7169 58.6101 76.9648 59.376 77.077C60.3792 77.1296 61.3762 77.267 62.3562 77.4878C63.0247 77.6467 63.7089 77.7302 64.396 77.7367C64.9747 77.7019 65.2872 77.5891 65.1541 78.0057C64.9805 78.5381 64.4828 78.8159 63.5165 78.9345C64.1877 79.4061 64.9863 79.8893 65.6373 80.4073C66.2883 80.9252 67.0348 81.4634 67.1245 81.7643C67.1472 81.8649 67.1465 81.9694 67.1224 82.0698C67.0983 82.1701 67.0515 82.2635 66.9856 82.3429C67.1899 82.4359 67.3716 82.5721 67.518 82.7422C67.5605 82.8273 67.5786 82.9225 67.5703 83.0172C67.562 83.112 67.5276 83.2026 67.471 83.2789C67.4144 83.3553 67.3377 83.4146 67.2495 83.4501C67.1613 83.4856 67.0649 83.4959 66.9712 83.4801C66.927 83.5838 66.8555 83.6736 66.7643 83.7399C66.6731 83.8061 66.5656 83.8463 66.4533 83.8562C66.111 83.8261 65.7764 83.7381 65.4637 83.5958C65.4637 83.5958 65.4984 84.024 64.9169 83.9141C64.3102 83.7714 63.7182 83.5718 63.149 83.318C62.7586 83.1453 62.3539 83.0069 61.9395 82.9043C61.4801 82.8646 61.0323 82.7379 60.6202 82.531C59.8754 82.1683 59.1605 81.7475 58.4819 81.2724C57.8383 80.8288 57.1486 80.4563 56.4247 80.1613Z" fill="#FFB573"/>
<path d="M61.4766 77.8495C61.8325 77.9999 62.1883 78.1388 62.5355 78.3095C62.7098 78.3926 62.8798 78.4843 63.0448 78.5844C63.2113 78.6827 63.369 78.7949 63.5164 78.92C63.1721 78.7464 62.8278 78.5844 62.4835 78.4195C62.3099 78.3327 62.1363 78.2488 61.9684 78.1562C61.7962 78.0678 61.6317 77.9653 61.4766 77.8495Z" fill="#AF6152"/>
<path d="M66.9856 82.3199C66.6652 82.1527 66.3542 81.9682 66.0539 81.7673C65.7472 81.5763 65.426 81.4143 65.1048 81.2407C64.7837 81.0671 64.477 80.879 64.1732 80.6794C63.8626 80.4899 63.5768 80.2625 63.3225 80.0023C63.4587 80.1199 63.6049 80.2254 63.7594 80.3177C63.9128 80.4161 64.0661 80.5087 64.2224 80.607C64.5348 80.7893 64.8473 80.9687 65.1656 81.1423C65.4839 81.3159 65.8022 81.4837 66.1031 81.695C66.404 81.9062 66.6817 82.1261 66.9856 82.3199Z" fill="#AF6152"/>
<path d="M66.9712 83.4568C66.9712 83.4105 66.9451 83.3729 66.9133 83.3411C66.8789 83.3111 66.8422 83.284 66.8034 83.2601C66.7262 83.2116 66.646 83.1681 66.5632 83.1299C66.4012 83.0431 66.2305 82.9736 66.0656 82.8839C65.7415 82.7046 65.4377 82.4904 65.131 82.285C64.8299 82.0773 64.5136 81.8926 64.1848 81.7324C63.8552 81.5605 63.5372 81.3672 63.2329 81.1537C63.557 81.3302 63.8955 81.4777 64.2282 81.6369C64.567 81.7883 64.8923 81.9683 65.2004 82.1751C65.4898 82.3892 65.8023 82.5975 66.1118 82.7914C66.2652 82.8897 66.433 82.9678 66.5922 83.0662C66.6703 83.1154 66.7484 83.1646 66.8236 83.2225C66.8608 83.2505 66.8948 83.2825 66.9249 83.318C66.9443 83.3349 66.9588 83.3567 66.9669 83.3811C66.975 83.4055 66.9765 83.4317 66.9712 83.4568Z" fill="#AF6152"/>
<path d="M65.4637 83.5727C65.3638 83.432 65.2236 83.3251 65.0615 83.266C64.9082 83.1878 64.749 83.1184 64.5899 83.0461C64.2745 82.8927 63.962 82.7567 63.6467 82.6092C63.3313 82.4616 63.0217 82.3198 62.7121 82.152C62.4016 82.0034 62.0509 81.9608 61.7139 82.0305C61.8807 81.9746 62.0558 81.9472 62.2318 81.9495C62.4099 81.9576 62.5851 81.9968 62.7497 82.0652C63.068 82.207 63.3834 82.3545 63.6987 82.4992C64.0141 82.6439 64.3324 82.7886 64.6304 82.9651C64.7838 83.0461 64.94 83.1242 65.0905 83.2139C65.2505 83.2898 65.3815 83.4157 65.4637 83.5727Z" fill="#AF6152"/>
<path d="M43.9484 61.7826C41.9085 63.0702 41.5758 64.9653 42.5827 67.3582C43.3957 69.291 45.8927 74.1606 45.8927 74.1606C46.4917 72.7428 49.3648 71.0559 50.8752 71.4928L48.138 65.706C48.138 65.706 46.454 61.4788 43.9484 61.7826Z" fill="#37474F"/>
<path d="M71.9941 63.4144C72.9235 63.9944 73.8815 64.5275 74.8643 65.0115C75.7005 65.4195 76.6004 65.5005 77.5668 65.975C78.2149 66.2904 78.8254 66.8575 79.6442 67.4217C80.6077 68.0843 80.8913 68.2406 80.6685 68.5502C80.6685 68.5502 80.9578 68.7209 81.0649 68.8019C81.6002 69.1751 81.5828 69.45 81.2211 69.6699C81.2211 69.6699 81.8692 70.0866 81.7101 70.3643C81.4584 70.8012 80.9086 70.6103 80.6395 70.454C80.6395 70.454 80.9839 70.7231 80.764 70.9575C80.5441 71.1918 80.0898 71.2468 79.4214 70.8851C78.7531 70.5235 77.4568 69.8435 76.5917 69.3198C75.7266 68.7961 75.9146 69.1578 76.1837 69.3719C76.5104 69.6462 76.795 69.9669 77.0286 70.3238C77.1317 70.4672 77.1932 70.6363 77.2065 70.8124C77.2198 70.9885 77.1842 71.1648 77.1038 71.322C76.9447 71.5738 76.6061 71.2237 76.2358 70.8736C75.8654 70.5235 75.2376 70.2457 74.8354 69.9564C74.4332 69.667 74.1844 69.6092 73.4147 68.4055C72.7406 67.3494 72.0577 67.2308 70.556 66.6261C69.5173 66.2123 67.2113 65.3414 65.4694 64.6904C64.9631 64.32 64.4278 63.9149 63.8607 63.4838L67.8276 60.9579C67.8276 60.9579 70.7325 62.6563 71.9941 63.4144Z" fill="#FFB573"/>
<path d="M80.6396 70.4541C80.0088 70.0809 79.4012 69.6758 78.782 69.2967L77.859 68.7181C77.5465 68.5329 77.2659 68.2696 76.8868 68.2551C77.0717 68.2575 77.2532 68.3042 77.4163 68.3911L77.8822 68.6805L78.8225 69.2591L79.7339 69.8639C80.0378 70.0375 80.3387 70.2429 80.6396 70.4541Z" fill="#AF6152"/>
<path d="M81.2211 69.67C80.6251 69.3372 80.0464 68.9784 79.4648 68.6225C79.1755 68.4403 78.8861 68.2609 78.6113 68.0612C78.4724 67.96 78.3219 67.8616 78.2004 67.7545C78.1312 67.7017 78.0698 67.6394 78.0181 67.5693C77.9765 67.4937 77.9481 67.4115 77.9342 67.3263C77.9531 67.4086 77.9864 67.487 78.0326 67.5578C78.0876 67.6218 78.1508 67.6782 78.2207 67.7256C78.3566 67.8269 78.51 67.9194 78.6402 68.0149C78.9295 68.2059 79.2189 68.3853 79.5082 68.5618C80.0811 68.9263 80.6598 69.2851 81.2211 69.67Z" fill="#AF6152"/>
<path d="M80.6685 68.5444C80.2547 68.3418 79.8583 68.1132 79.4619 67.8818C79.2681 67.7631 79.0713 67.6445 78.8833 67.5172C78.7907 67.4478 78.6952 67.387 78.5939 67.3089C78.5207 67.223 78.463 67.1251 78.4232 67.0195C78.4715 67.1224 78.5382 67.2155 78.62 67.2944C78.7126 67.362 78.8092 67.4238 78.9093 67.4796L79.488 67.8326C79.8902 68.0583 80.2866 68.2897 80.6685 68.5444Z" fill="#AF6152"/>
<path d="M21.7357 27.5797C22.5603 26.975 23.2807 26.622 23.761 26.6799C24.5385 26.7997 25.278 27.0967 25.9224 27.5479C26.4027 27.9154 25.8877 29.1364 25.4624 28.7863C25.037 28.4362 24.1372 27.7215 23.8189 27.6694C23.1881 27.5653 22.323 28.1873 22.0829 28.277C21.8427 28.3667 21.4666 27.7823 21.7357 27.5797Z" fill="black"/>
<path d="M14.9766 31.723C15.5929 32.9267 15.0779 34.3618 14.6034 35.1025C14.1925 35.742 15.1531 36.4942 15.7608 35.8143C16.6664 34.7871 16.4899 32.7357 15.7608 31.8619L14.9766 31.723Z" fill="black"/>
<path d="M15.7493 33.2305C15.0664 33.8439 13.8194 33.5198 13.6978 32.782C12.8298 32.8283 12.2222 32.2351 12.0197 31.3353C11.8461 30.5454 12.0862 29.6745 12.8703 29.3099C12.4739 28.6213 12.5607 27.6925 13.5387 26.7753C14.5167 25.8581 15.5959 25.5485 16.1428 25.8118C16.6896 24.9438 18.5993 24.4866 19.3255 25.7886C19.7972 25.5468 20.3403 25.483 20.8552 25.6089C21.3701 25.7349 21.8224 26.0421 22.1292 26.4744C22.3663 26.8151 22.491 27.2213 22.4858 27.6364C22.4806 28.0514 22.3458 28.4544 22.1003 28.7891C22.7773 29.5935 22.245 31.2427 20.6073 31.3931C20.8966 32.157 19.5801 32.7617 19.0651 32.4377C18.8134 33.5024 16.2643 34.1795 15.7493 33.2305Z" fill="#F0F0F0"/>
<path d="M13.5011 32.322C13.5011 33.6732 12.4074 34.7264 11.6522 35.1778C11.0012 35.5655 11.522 36.6679 12.364 36.3352C13.6313 35.8201 14.3894 33.9105 14.1261 32.7965C13.9612 32.2237 13.4924 32.0616 13.5011 32.322Z" fill="black"/>
<path d="M20.914 29.5241C21.9006 29.2521 22.6992 29.1798 23.1187 29.3997C23.7727 29.744 24.2935 30.6467 24.6146 31.1647C24.9358 31.6826 23.9839 32.7792 23.7119 32.2989C23.4399 31.8186 22.9943 30.5831 22.7166 30.421C22.1639 30.0999 21.2409 30.288 20.9805 30.2793C20.7201 30.2706 20.5928 29.6051 20.914 29.5241Z" fill="black"/>
<path d="M18.5356 23.9514C18.1652 24.666 18.8886 26.0433 20.0141 26.9055C20.914 27.5941 22.2449 27.1225 22.2507 25.7105C22.2507 24.4172 21.8022 22.9039 21.0326 22.768C20.3266 22.6435 18.8134 23.4103 18.5356 23.9514Z" fill="black"/>
<path d="M18.4863 24.0701C18.2404 24.3218 18.3648 24.7182 18.1247 25.1725C18.007 25.3608 17.8521 25.5231 17.6695 25.6494C17.4869 25.7758 17.2805 25.8636 17.0628 25.9074C16.6201 26.0202 16.7069 26.9808 17.3145 26.9085C17.6603 26.8615 17.985 26.7147 18.2486 26.486C18.5123 26.2573 18.7035 25.9567 18.7988 25.6209C18.8807 25.2388 18.8748 24.8431 18.7815 24.4636L18.4863 24.0701Z" fill="black"/>
<path d="M21.1251 22.7911C21.4752 22.7738 21.7038 23.1268 22.1928 23.2454C22.4123 23.281 22.6367 23.2711 22.8523 23.2164C23.0678 23.1616 23.2697 23.0632 23.4456 22.9271C23.8218 22.6696 24.4873 23.3669 24.0243 23.7778C23.7618 24.0074 23.4378 24.1552 23.0924 24.203C22.7469 24.2508 22.395 24.1965 22.0799 24.0469C21.7352 23.8581 21.4382 23.5929 21.2119 23.2715L21.1251 22.7911Z" fill="black"/>
<path d="M17.9598 24.0121C17.9691 24.0827 17.9938 24.1504 18.0322 24.2104C18.0705 24.2704 18.1216 24.3213 18.1817 24.3594C18.2419 24.3974 18.3097 24.4219 18.3804 24.4308C18.451 24.4398 18.5228 24.4332 18.5906 24.4114C18.647 24.5413 18.7468 24.6476 18.873 24.712C18.9991 24.7764 19.1438 24.7949 19.2821 24.7644C19.4498 24.7488 19.6072 24.6768 19.7286 24.5601C19.85 24.4434 19.9283 24.289 19.9505 24.122C20.08 24.2051 20.2306 24.2492 20.3845 24.2492C20.5383 24.2492 20.689 24.2051 20.8185 24.122C21.1888 23.8964 21.1744 23.6446 21.0673 23.4855C21.1945 23.526 21.3309 23.5279 21.4592 23.4908C21.5875 23.4537 21.7018 23.3793 21.7878 23.2772C21.8518 23.1628 21.8722 23.029 21.845 22.9008C21.8179 22.7725 21.7451 22.6585 21.6402 22.5799C21.5387 22.5161 21.4246 22.4751 21.3057 22.4596C21.1869 22.4441 21.066 22.4545 20.9516 22.4902C20.8707 22.3318 20.7387 22.2053 20.5769 22.1313C20.4152 22.0572 20.2332 22.0399 20.0604 22.0822C19.693 22.1487 19.421 22.3166 19.3631 22.6291C19.2475 22.5697 19.1163 22.5478 18.9877 22.5664C18.8591 22.5851 18.7395 22.6434 18.6455 22.7332C18.5404 22.7982 18.4636 22.9003 18.4304 23.0193C18.3971 23.1384 18.4099 23.2655 18.4662 23.3756C18.3889 23.3783 18.3132 23.3978 18.2442 23.4326C18.1752 23.4674 18.1146 23.5168 18.0664 23.5773C18.0183 23.6377 17.9839 23.7079 17.9655 23.783C17.9471 23.8581 17.9451 23.9362 17.9598 24.0121Z" fill="#F0F0F0"/>
<path d="M41.5063 15.7774C42.4467 15.3782 43.2279 15.1988 43.6735 15.3608C44.4024 15.6532 45.0553 16.1073 45.5831 16.6889C45.968 17.1547 45.1867 18.2253 44.8511 17.7855C44.5155 17.3457 43.8037 16.4487 43.5057 16.3388C42.927 16.0928 41.9317 16.5037 41.6655 16.5326C41.3993 16.5616 41.1996 15.9105 41.5063 15.7774Z" fill="black"/>
<path d="M33.726 18.6883C34.7039 19.6199 34.6923 21.1448 34.4898 22.0012C34.3162 22.739 35.4736 23.1325 35.815 22.2905C36.3271 21.0232 35.4851 19.1454 34.4985 18.5638L33.726 18.6883Z" fill="black"/>
<path d="M34.2294 19.6315C33.4106 20.0453 32.2908 19.4116 32.366 18.6651C31.498 18.4799 31.0814 17.7537 31.1248 16.8249C31.1595 16.0148 31.6195 15.2393 32.4731 15.0889C32.2706 14.3192 32.5946 13.4454 33.778 12.8147C34.9614 12.1839 36.0927 12.1636 36.5528 12.5629C37.3109 11.8569 39.2726 11.9206 39.6372 13.3673C40.156 13.2557 40.6977 13.3351 41.1627 13.5907C41.6278 13.8464 41.985 14.2612 42.1689 14.759C42.3127 15.1519 42.3289 15.5802 42.2151 15.9828C42.1013 16.3854 41.8634 16.7419 41.5352 17.0014C41.9808 17.9533 41.0376 19.4058 39.4202 19.1136C39.4925 19.9266 38.0747 20.1697 37.661 19.7212C37.1199 20.6905 34.4811 20.6789 34.2294 19.6315Z" fill="#F0F0F0"/>
<path d="M32.2966 18.1674C31.9551 19.4752 30.6155 20.1927 29.7677 20.4445C29.0386 20.6499 29.2556 21.8507 30.1583 21.7407C31.5153 21.5758 32.7479 19.9266 32.7798 18.7837C32.7653 18.1934 32.3544 17.9128 32.2966 18.1674Z" fill="black"/>
<path d="M39.8079 16.8885C40.7107 17.3745 41.3385 17.8722 41.489 18.3178C41.7262 19.0209 41.489 20.0307 41.3588 20.6325C41.2286 21.2343 39.7877 21.3674 39.9121 20.8322C40.0365 20.2969 40.5776 19.0961 40.4908 18.7865C40.3114 18.1731 39.5128 17.6726 39.3334 17.4816C39.154 17.2906 39.5128 16.7322 39.8079 16.8885Z" fill="black"/>
<path d="M39.3189 11.3909C38.7779 11.987 39.1193 13.506 39.9815 14.6286C40.6702 15.5285 42.0792 15.4185 42.4496 14.05C42.791 12.8029 42.7389 11.2231 42.0387 10.8933C41.4022 10.5952 39.7385 10.9425 39.3189 11.3909Z" fill="black"/>
<path d="M39.2523 11.4952C38.963 11.6746 38.963 12.0884 38.6158 12.4674C38.4532 12.6182 38.2616 12.7342 38.0526 12.8083C37.8437 12.8825 37.6218 12.9132 37.4005 12.8985C36.9434 12.8985 36.7785 13.8447 37.3861 13.9315C37.7328 13.9744 38.0846 13.9151 38.3981 13.7609C38.7117 13.6067 38.9733 13.3643 39.151 13.0635C39.3337 12.7148 39.4327 12.3285 39.4404 11.935L39.2523 11.4952Z" fill="black"/>
<path d="M42.1341 10.9456C42.4755 11.0208 42.5971 11.4172 43.0484 11.6631C43.2509 11.7541 43.4699 11.8026 43.6919 11.8056C43.9138 11.8086 44.134 11.766 44.3389 11.6805C44.77 11.5271 45.2301 12.3749 44.6861 12.6527C44.3725 12.8056 44.0212 12.864 43.6749 12.8208C43.3287 12.7777 43.0025 12.6348 42.736 12.4096C42.4531 12.1361 42.2364 11.8016 42.1023 11.4316L42.1341 10.9456Z" fill="black"/>
<path d="M38.7605 11.3014C38.7511 11.3721 38.7573 11.444 38.7788 11.512C38.8003 11.5801 38.8364 11.6425 38.8848 11.695C38.9331 11.7475 38.9924 11.7886 39.0584 11.8156C39.1244 11.8426 39.1956 11.8547 39.2668 11.8511C39.2871 11.992 39.3561 12.1212 39.4618 12.2164C39.5676 12.3116 39.7033 12.3666 39.8455 12.372C40.0114 12.3997 40.1817 12.3708 40.3292 12.29C40.4767 12.2092 40.5927 12.0811 40.6586 11.9264C40.7625 12.0389 40.8965 12.1192 41.0448 12.1577C41.193 12.1962 41.3492 12.1912 41.4948 12.1434C41.9114 12.019 41.9664 11.773 41.9027 11.5936C42.0139 11.667 42.1442 11.7062 42.2774 11.7062C42.4107 11.7062 42.5409 11.667 42.6521 11.5936C42.7447 11.5003 42.7997 11.3762 42.8066 11.2449C42.8136 11.1136 42.7719 10.9844 42.6897 10.8819C42.6089 10.7936 42.5099 10.7241 42.3994 10.6781C42.289 10.6321 42.1698 10.6108 42.0503 10.6157C42.0088 10.4441 41.9115 10.2912 41.7739 10.1807C41.6362 10.0702 41.4658 10.0085 41.2893 10.0052C40.919 9.97622 40.6123 10.0659 40.4763 10.3553C40.3802 10.2676 40.2591 10.2121 40.1299 10.1966C40.0008 10.181 39.87 10.2061 39.7558 10.2685C39.6365 10.3042 39.5351 10.3837 39.4718 10.491C39.4085 10.5982 39.388 10.7254 39.4144 10.8471C39.3413 10.8294 39.2652 10.8274 39.1913 10.8412C39.1173 10.8551 39.0472 10.8844 38.9854 10.9273C38.9236 10.9703 38.8716 11.0258 38.8328 11.0903C38.7941 11.1547 38.7694 11.2267 38.7605 11.3014Z" fill="#F0F0F0"/>
<path d="M63.3023 19.75C64.3237 19.802 65.1049 19.9843 65.4319 20.3286C65.9608 20.908 66.3498 21.6008 66.569 22.354C66.7108 22.9327 65.5389 23.5635 65.4319 23.0224C65.3248 22.4813 65.0731 21.3616 64.8532 21.1214C64.4279 20.644 63.366 20.5804 63.1172 20.4907C62.8683 20.401 62.9696 19.7326 63.3023 19.75Z" fill="black"/>
<path d="M55.4496 18.6968C55.1603 20.0191 53.8611 20.8061 53.0249 21.0838C52.3045 21.3211 52.5736 22.5103 53.4705 22.3627C54.8188 22.137 55.9791 20.4357 55.9588 19.2899L55.4496 18.6968Z" fill="black"/>
<path d="M55.0938 20.346C54.1765 20.3894 53.4127 19.3536 53.7888 18.7026C53.0742 18.1817 52.9874 17.3484 53.4011 16.518C53.7657 15.7918 54.5006 15.271 55.3484 15.4706C55.4786 14.6865 56.1267 14.0239 57.4663 13.9255C58.806 13.8272 59.836 14.2728 60.1022 14.8283C61.0831 14.4927 62.8481 15.352 62.5906 16.8218C63.1104 16.9335 63.5724 17.2292 63.8914 17.6546C64.2104 18.0799 64.365 18.6063 64.3266 19.1366C64.2976 19.5525 64.1388 19.9489 63.8725 20.2697C63.6061 20.5905 63.2458 20.8196 62.8423 20.9247C62.8596 21.975 61.3956 22.9182 60.0501 21.9895C59.7868 22.762 58.3922 22.4061 58.1955 21.8274C57.3014 22.4987 54.897 21.4137 55.0938 20.346Z" fill="#F0F0F0"/>
<path d="M53.9248 18.2281C53.0799 19.2842 51.5609 19.4057 50.69 19.2784C49.9377 19.1685 49.6483 20.3548 50.5164 20.6209C51.8242 21.0231 53.621 20.022 54.1158 18.9891C54.3443 18.4422 54.0753 18.0313 53.9248 18.2281Z" fill="black"/>
<path d="M61.4418 20.7367C62.3793 21.1476 63.0448 21.6047 63.23 22.0301C63.5193 22.7129 63.3544 23.7372 63.2763 24.3448C63.1981 24.9524 61.7688 25.2128 61.8614 24.6544C61.954 24.096 62.388 22.8692 62.2751 22.5711C62.0495 21.9722 61.2133 21.5353 61.0107 21.3588C60.8082 21.1823 61.138 20.6007 61.4418 20.7367Z" fill="black"/>
<path d="M63.1113 14.9094C62.3735 15.2335 62.0668 16.7583 62.3967 18.1385C62.66 19.2379 63.9909 19.7125 64.885 18.6217C65.7067 17.6205 66.3085 16.1623 65.7964 15.5691C65.3277 15.028 63.6698 14.6664 63.1113 14.9094Z" fill="black"/>
<path d="M62.9985 14.9731C62.6513 15.0137 62.4951 15.3985 62.0234 15.601C61.8132 15.6725 61.5906 15.7003 61.3692 15.6829C61.1479 15.6655 60.9324 15.6032 60.7359 15.4997C60.3192 15.3088 59.7839 16.1103 60.3019 16.4372C60.5996 16.6187 60.9437 16.7093 61.2922 16.698C61.6407 16.6867 61.9783 16.574 62.2636 16.3735C62.571 16.1284 62.8176 15.8155 62.984 15.4592L62.9985 14.9731Z" fill="black"/>
<path d="M65.8513 15.6472C66.1407 15.8526 66.0828 16.2664 66.3953 16.6744C66.5435 16.8396 66.7238 16.9729 66.9253 17.0659C67.1268 17.159 67.3452 17.2098 67.5671 17.2154C68.0243 17.2531 68.0995 18.2137 67.4861 18.2455C67.1376 18.2575 66.7932 18.1676 66.4951 17.9866C66.197 17.8057 65.9581 17.5417 65.8079 17.227C65.6585 16.8605 65.5962 16.4643 65.6257 16.0697L65.8513 15.6472Z" fill="black"/>
<path d="M62.6282 14.5939C62.5906 14.6546 62.5669 14.7228 62.5587 14.7937C62.5504 14.8646 62.5579 14.9364 62.5806 15.004C62.6032 15.0717 62.6405 15.1335 62.6897 15.1852C62.7389 15.2368 62.7989 15.277 62.8654 15.3028C62.8286 15.4384 62.8399 15.5826 62.8974 15.7108C62.9549 15.839 63.0551 15.9433 63.1808 16.0059C63.3208 16.0992 63.4883 16.1423 63.656 16.1281C63.8236 16.1139 63.9815 16.0433 64.1038 15.9278C64.1506 16.0756 64.2396 16.2064 64.3599 16.3041C64.4803 16.4019 64.6266 16.4621 64.7809 16.4775C65.212 16.5354 65.3595 16.3329 65.3769 16.1419C65.4504 16.2526 65.555 16.3392 65.6775 16.3907C65.8 16.4422 65.935 16.4563 66.0655 16.4313C66.1878 16.3837 66.2884 16.2929 66.3481 16.1761C66.4079 16.0593 66.4226 15.9246 66.3896 15.7976C66.3522 15.684 66.2903 15.5801 66.2083 15.4931C66.1263 15.4061 66.0262 15.3382 65.9151 15.2941C65.9477 15.1205 65.9216 14.941 65.8409 14.7838C65.7603 14.6267 65.6296 14.5008 65.4695 14.4261C65.1425 14.2467 64.8243 14.2062 64.5841 14.4261C64.532 14.3064 64.4437 14.2061 64.3316 14.1391C64.2195 14.0722 64.0892 14.042 63.9591 14.0529C63.8367 14.0371 63.7128 14.0679 63.6121 14.1392C63.5113 14.2104 63.441 14.317 63.4152 14.4377C63.355 14.3912 63.2856 14.3582 63.2116 14.3408C63.1376 14.3234 63.0607 14.3221 62.9862 14.3369C62.9116 14.3517 62.8411 14.3823 62.7793 14.4266C62.7176 14.471 62.666 14.528 62.6282 14.5939Z" fill="#F0F0F0"/>
</svg>
