<svg width="134" height="134" viewBox="0 0 134 134" fill="none" xmlns="http://www.w3.org/2000/svg">
<path d="M59.1971 12.8096C60.5545 8.74158 67.4984 9.56823 70.9791 12.2701C74.4597 14.9719 79.7242 16.5687 81.2775 15.4853C77.8447 19.7491 71.4838 21.2328 67.3288 20.219C63.1737 19.2053 57.6961 17.2561 59.1971 12.8096Z" fill="#263238"/>
<path d="M80.2463 18.0393C80.2233 18.0395 80.2008 18.0331 80.1815 18.0207C80.1621 18.0084 80.1469 17.9906 80.1375 17.9696C80.1311 17.9557 80.1276 17.9406 80.1272 17.9253C80.1268 17.9099 80.1296 17.8947 80.1353 17.8804C80.141 17.8662 80.1495 17.8533 80.1604 17.8424C80.1712 17.8316 80.1842 17.823 80.1984 17.8174C80.9946 17.4606 82.0562 17.4824 83.1787 17.5041C84.5971 17.5346 86.0677 17.5607 86.9639 16.7819C86.9878 16.7638 87.0177 16.7555 87.0475 16.7587C87.0773 16.762 87.1047 16.7765 87.1242 16.7993C87.1436 16.822 87.1537 16.8514 87.1522 16.8813C87.1507 16.9113 87.1378 16.9395 87.1162 16.9603C86.1503 17.8 84.6363 17.7695 83.17 17.739C82.0736 17.7173 81.0381 17.6955 80.2941 18.0306L80.2463 18.0393Z" fill="#263238"/>
<path d="M79.4719 14.1062C79.4452 14.101 79.4211 14.0866 79.4038 14.0656C79.3864 14.0445 79.377 14.0181 79.377 13.9909C79.377 13.9636 79.3864 13.9372 79.4038 13.9162C79.4211 13.8952 79.4452 13.8808 79.4719 13.8756C80.0221 13.8286 80.5489 13.6315 80.9947 13.3056C81.0049 13.2944 81.0173 13.2855 81.0312 13.2793C81.0451 13.2732 81.06 13.27 81.0752 13.27C81.0904 13.27 81.1053 13.2732 81.1192 13.2793C81.1331 13.2855 81.1455 13.2944 81.1557 13.3056C81.1663 13.3162 81.1748 13.3287 81.1806 13.3425C81.1864 13.3563 81.1893 13.3711 81.1893 13.3861C81.1893 13.4011 81.1864 13.4159 81.1806 13.4297C81.1748 13.4436 81.1663 13.4561 81.1557 13.4666C80.6774 13.8291 80.105 14.0465 79.5067 14.0931L79.4719 14.1062Z" fill="#263238"/>
<path d="M55.9819 12.7966C59.1624 11.809 61.4944 12.2702 61.886 13.6929C62.295 15.1852 60.2718 16.1728 59.5714 16.125C58.8709 16.0771 55.9819 12.7966 55.9819 12.7966Z" fill="#2196F3"/>
<path d="M46.658 23.3951C44.8046 22.5249 44.0823 19.3967 44.8524 18.1741C42.8511 17.8347 44.7959 10.0772 54.211 11.426C63.6262 12.7748 61.5248 21.7026 58.7533 22.6119C59.767 23.9563 56.4735 28.1462 52.5534 26.197C48.6333 24.2478 46.658 23.3951 46.658 23.3951Z" fill="#263238"/>
<path d="M36.4728 51.1184L34.1494 49.8436L34.0059 54.1553C34.0059 54.1553 36.3727 54.3641 37.8824 53.4548L37.7954 52.9719C37.7293 52.5831 37.5759 52.2143 37.3468 51.8933C37.1177 51.5723 36.8189 51.3074 36.4728 51.1184Z" fill="#FFB573"/>
<path d="M32.0045 51.7625L32.1524 53.1417C32.182 53.4301 32.3195 53.6967 32.5373 53.8879C32.7552 54.0792 33.0374 54.181 33.3272 54.1729H34.0059L34.1495 49.8612L32.631 50.6269C32.4255 50.7325 32.2561 50.8969 32.1445 51.0992C32.0329 51.3014 31.9842 51.5324 32.0045 51.7625Z" fill="#FFB573"/>
<path d="M52.9276 37.6354C52.9276 37.9922 52.9276 38.2532 52.9276 38.5491C52.9276 38.8449 52.9276 39.119 52.9276 39.4192C52.9276 39.9848 52.8798 40.5461 52.8363 41.1073C52.7499 42.2309 52.6047 43.3491 52.4012 44.4575C52.1979 45.5796 51.9262 46.6882 51.5876 47.7771C51.2535 48.8891 50.8391 49.9753 50.3476 51.0272L49.9517 51.819C49.8555 52.0222 49.748 52.2197 49.6297 52.4108C49.4421 52.6913 49.2183 52.9459 48.964 53.1678C48.2871 53.7344 47.4796 54.1232 46.6146 54.299C45.4189 54.557 44.1947 54.6579 42.973 54.5992C40.7706 54.5162 38.5831 54.2012 36.4467 53.6594C36.1424 53.5849 35.875 53.4034 35.6934 53.148C35.5118 52.8926 35.4282 52.5805 35.4577 52.2685C35.4873 51.9566 35.6281 51.6657 35.8544 51.4489C36.0807 51.2322 36.3774 51.1041 36.6904 51.0881H36.7382C38.7701 50.9793 40.8585 50.8532 42.7859 50.5878C43.667 50.4859 44.5348 50.2905 45.3746 50.0048C45.7009 49.8916 45.9489 49.6784 45.8097 49.7437C45.7479 49.7871 45.6948 49.8417 45.6531 49.9047C45.5399 50.0961 45.6531 49.8699 45.6531 49.7872L45.9098 49.1433C46.5502 47.3489 47.0022 45.4927 47.2585 43.6047C47.4064 42.6475 47.4935 41.673 47.5761 40.7027C47.6153 40.2154 47.6457 39.7281 47.6631 39.2452V38.523V37.8573V37.7311C47.658 37.3883 47.7204 37.0478 47.8469 36.7291C47.9733 36.4105 48.1613 36.1198 48.4 35.8738C48.8823 35.3768 49.5421 35.0919 50.2345 35.0815C50.9268 35.0711 51.5949 35.3362 52.0918 35.8184C52.5887 36.3006 52.8737 36.9605 52.8841 37.6528L52.9276 37.6354Z" fill="#FFB573"/>
<path d="M55.7165 52.1105C55.7165 52.1105 50.8261 70.2142 47.6762 82.353C44.5044 93.4388 39.501 120.288 39.501 120.288L42.3247 120.979C42.3247 120.979 51.7007 104.446 54.7288 85.7379C66.5282 69.1309 67.9118 56.222 67.9118 56.222L55.7165 52.1105Z" fill="#2196F3"/>
<path opacity="0.2" d="M64.5139 60.8121C63.883 61.1123 62.5081 64.8279 63.9134 69.5138C65.0646 66.8372 66.0369 64.0873 66.8241 61.282L64.5139 60.8121Z" fill="black"/>
<path d="M74.5773 82.4791C80.6945 55.4214 70.457 51.4404 70.457 51.4404L69.7391 51.5535C65.645 54.164 62.408 61.5604 64.5834 66.1331C64.5182 69.84 64.2963 77.8542 65.0185 83.0273C65.4101 85.8815 65.5928 88.2962 69.1822 89.4839C72.7717 90.6717 84.6929 91.4853 94.504 96.0537L94.9739 92.6644C94.9739 92.6644 82.0302 82.4139 74.5773 82.4791Z" fill="#2196F3"/>
<path d="M98.9722 93.2388C97.9715 93.3215 97.271 93.5303 94.3212 91.7726C94.3212 91.7726 92.7418 94.7442 92.9071 95.9276C94.939 96.7978 99.2289 100.139 98.6198 102.671C98.2761 104.116 99.9511 103.737 100.36 102.715C101.348 100.17 100.182 98.5207 100.421 97.0023C100.625 95.697 100.982 95.4403 101.021 94.3918C101.034 93.4999 99.9772 93.1561 98.9722 93.2388Z" fill="#263238"/>
<path d="M70.457 51.4404C69.6391 47.3245 66.302 41.4858 64.6139 32.0967C64.5218 31.5819 64.3225 31.0922 64.0288 30.6595C63.7352 30.2268 63.3538 29.8606 62.9094 29.5849C62.465 29.3092 61.9676 29.13 61.4495 29.059C60.9314 28.9881 60.4041 29.0269 59.9019 29.173C59.332 29.3383 58.7359 29.5254 58.1312 29.7342C56.0019 30.4211 53.9243 31.2586 51.9139 32.2403C51.2699 32.5753 50.6086 32.9364 49.9864 33.2975C48.8965 33.9256 48.0797 34.9372 47.6952 36.135C47.3107 37.3327 47.3861 38.6307 47.9068 39.7759C48.5072 41.0811 47.637 45.0665 50.9871 45.8148C52.3924 48.4253 54.7071 47.3811 55.7121 52.1496C55.7121 58.7933 62.7604 66.5073 64.5834 66.1505C63.5088 55.7782 70.457 51.4404 70.457 51.4404Z" fill="#2196F3"/>
<path opacity="0.4" d="M70.457 51.4404C69.6391 47.3245 66.302 41.4858 64.6139 32.0967C64.5218 31.5819 64.3225 31.0922 64.0288 30.6595C63.7352 30.2268 63.3538 29.8606 62.9094 29.5849C62.465 29.3092 61.9676 29.13 61.4495 29.059C60.9314 28.9881 60.4041 29.0269 59.9019 29.173C59.332 29.3383 58.7359 29.5254 58.1312 29.7342C56.0019 30.4211 53.9243 31.2586 51.9139 32.2403C51.2699 32.5753 50.6086 32.9364 49.9864 33.2975C48.8965 33.9256 48.0797 34.9372 47.6952 36.135C47.3107 37.3327 47.3861 38.6307 47.9068 39.7759C48.5072 41.0811 47.637 45.0665 50.9871 45.8148C52.3924 48.4253 54.7071 47.3811 55.7121 52.1496C55.7121 58.7933 62.7604 66.5073 64.5834 66.1505C63.5088 55.7782 70.457 51.4404 70.457 51.4404Z" fill="white"/>
<path d="M63.4696 49.6174L60.8591 50.0525L63.4305 53.5332C63.4305 53.5332 65.4101 52.2279 66.0409 50.5703L65.6755 50.244C65.3784 49.9807 65.0258 49.7877 64.644 49.6793C64.2621 49.5708 63.8607 49.5497 63.4696 49.6174Z" fill="#FFB573"/>
<path d="M60.3719 52.898L61.3421 53.8856C61.5444 54.0935 61.818 54.2171 62.1077 54.2317C62.3974 54.2462 62.6819 54.1506 62.904 53.9639L63.4261 53.5289L60.8548 50.0482L60.1456 51.5928C60.0446 51.8072 60.0121 52.0476 60.0526 52.2811C60.0931 52.5147 60.2046 52.7301 60.3719 52.898Z" fill="#FFB573"/>
<path opacity="0.3" d="M64.9663 33.8806L60.5023 32.8016C61.2811 34.7377 64.0091 37.6354 66.3672 39.28C65.8625 37.631 65.3796 35.8429 64.9663 33.8806Z" fill="#2196F3"/>
<path d="M63.1129 29.6995C63.4349 29.8692 63.6654 29.9997 63.9265 30.1346C64.1875 30.2694 64.4181 30.4348 64.6618 30.5914C65.1447 30.9003 65.6146 31.2179 66.0801 31.5486C67.0061 32.2161 67.895 32.9336 68.7428 33.6979C70.4804 35.241 71.9998 37.0136 73.259 38.9667L73.4983 39.3365L73.5592 39.4323C73.6158 39.528 73.6723 39.6237 73.7202 39.7194C73.8171 39.9072 73.8958 40.1039 73.9551 40.3068C74.1292 40.9375 74.1412 41.6019 73.9899 42.2385C73.7905 42.996 73.4607 43.713 73.0153 44.3574C72.3395 45.3411 71.5639 46.2524 70.7007 47.0766C69.1088 48.6073 67.3768 49.9852 65.5276 51.1925C65.2654 51.3609 64.9517 51.43 64.6431 51.3873C64.3344 51.3445 64.0512 51.1928 63.8447 50.9595C63.6382 50.7261 63.522 50.4266 63.517 50.1151C63.5121 49.8035 63.6187 49.5005 63.8177 49.2607L63.8482 49.2259C65.1795 47.664 66.537 46.0542 67.7161 44.44C68.2784 43.7031 68.7776 42.9201 69.2084 42.0993C69.3498 41.8581 69.4388 41.5897 69.4694 41.3118C69.4694 41.2857 69.4085 41.3771 69.4694 41.6729C69.4907 41.7491 69.5184 41.8233 69.5521 41.8948C69.5698 41.9339 69.5901 41.9717 69.613 42.0079L69.5608 41.9427L69.3433 41.6642L68.9082 41.1117L68.4426 40.5809C68.1424 40.2154 67.7944 39.8847 67.4724 39.5367C66.785 38.8666 66.0845 38.2097 65.3362 37.5919C64.5878 36.974 63.809 36.3823 63.0172 35.8167C62.6169 35.5339 62.2166 35.2555 61.8076 34.9944L61.2029 34.6115L60.6416 34.2678L60.5155 34.1895C59.9553 33.8267 59.5554 33.263 59.3979 32.6144C59.2405 31.9658 59.3374 31.2815 59.6688 30.7022C60.0003 30.1229 60.541 29.6925 61.18 29.4996C61.8189 29.3066 62.5075 29.3657 63.1042 29.6647L63.1129 29.6995Z" fill="#FFB573"/>
<path d="M43.4037 122.394C43.4037 121.375 43.0686 121.254 44.7089 117.729C44.7089 117.729 40.4147 116.476 39.5793 117.068C39.2312 119.278 37.4953 121.924 34.2757 121.245C32.8442 120.945 32.7442 122.115 33.7318 122.55C36.1987 123.607 38.013 123.364 39.5097 123.616C40.7845 123.834 41.1891 124.225 42.2333 124.286C43.0991 124.334 43.4167 123.412 43.4037 122.394Z" fill="#263238"/>
<path d="M51.9138 32.223C51.9138 32.223 49.9603 34.89 53.541 38.1879C54.2024 34.9118 58.1224 29.7386 58.1224 29.7386L51.9138 32.223Z" fill="white"/>
<path opacity="0.3" d="M54.7593 43.4088C58.1442 44.4574 62.0773 42.6692 62.0773 42.6692C62.0773 42.6692 57.8919 45.6625 54.7593 43.4088Z" fill="#2196F3"/>
<path d="M54.694 22.9601C55.1074 25.1355 56.1951 28.9381 58.1312 29.7082C58.1312 29.7082 54.2633 33.6022 53.2887 36.7217C50.5303 33.9894 51.9139 32.2143 51.9139 32.2143C53.9327 30.7828 53.2191 29.1687 52.1923 27.7547L54.694 22.9601Z" fill="#FFB573"/>
<path opacity="0.2" d="M53.6759 24.9224L52.1923 27.746C52.4352 28.068 52.6478 28.4117 52.8275 28.7728C53.6324 28.3073 54.4242 26.902 54.1327 25.9709C54.0434 25.5972 53.8887 25.2423 53.6759 24.9224Z" fill="black"/>
<path d="M55.3249 18.4483C55.8557 22.0159 56.1559 23.5126 54.7941 25.688C52.7405 28.9642 48.5159 28.7118 46.9626 25.3704C45.553 22.3596 44.7263 17.1343 47.811 15.0198C50.8958 12.9053 54.7941 14.8806 55.3249 18.4483Z" fill="#FFB573"/>
<path d="M45.3528 15.8813C48.5158 17.4737 52.0226 15.9639 53.4845 17.6433C54.9463 19.3228 57.5873 22.2987 59.754 21.3024C58.2704 16.5513 50.8653 10.3166 45.3528 15.8813Z" fill="#263238"/>
<path d="M53.106 23.8303C51.9045 24.2498 50.6781 24.5941 49.4339 24.8614C49.2294 24.3828 49.3251 23.7955 50.8218 23.2995C52.8493 22.6164 53.106 23.8303 53.106 23.8303Z" fill="#263238"/>
<path d="M50.8348 23.2864C50.3317 23.4073 49.8768 23.6772 49.5295 24.0608C49.862 24.056 50.192 24.0018 50.5085 23.8998C51.1267 23.7291 51.714 23.4619 52.2488 23.108C51.77 23.0501 51.2842 23.1113 50.8348 23.2864Z" fill="white"/>
<path d="M52.9494 23.8782C52.8059 23.765 52.6188 23.7694 52.188 23.8042C51.4213 23.962 50.6678 24.1788 49.9343 24.4525C49.682 24.5612 49.4992 24.67 49.534 24.831C50.6878 24.5711 51.8277 24.2531 52.9494 23.8782Z" fill="#630F0F"/>
<path d="M51.2438 19.9973C51.3047 20.2844 51.2003 20.5498 51.0132 20.589C50.8261 20.6281 50.626 20.428 50.5781 20.1539C50.5303 19.8798 50.6216 19.6057 50.8087 19.5665C50.9958 19.5274 51.1829 19.7101 51.2438 19.9973Z" fill="#263238"/>
<path d="M47.5369 21.0413C47.5978 21.3285 47.4934 21.5939 47.3063 21.633C47.1192 21.6722 46.9191 21.4721 46.8712 21.198C46.8234 20.9239 46.9147 20.6454 47.1018 20.6062C47.2889 20.5671 47.476 20.7542 47.5369 21.0413Z" fill="#263238"/>
<path d="M47.1758 20.5932L46.4448 20.541C46.4448 20.541 46.9104 21.0022 47.1758 20.5932Z" fill="#263238"/>
<path d="M48.3549 21.2197C48.2374 21.9277 48.0221 22.6159 47.7153 23.2646C47.8841 23.3383 48.067 23.3742 48.2512 23.3697C48.4353 23.3652 48.6163 23.3204 48.7813 23.2385L48.3549 21.2197Z" fill="#ED893E"/>
<path d="M56.9478 20.7846C56.8847 21.1299 56.7494 21.458 56.5507 21.7474C56.352 22.0368 56.0944 22.281 55.7948 22.464C55.016 22.8991 54.3852 22.0854 54.3939 21.1022C54.3939 20.232 54.829 18.9268 55.6991 18.9268C56.5693 18.9268 57.1305 19.8796 56.9478 20.7846Z" fill="#FFB573"/>
<path d="M50.7566 17.9306C50.7105 17.9406 50.6623 17.9329 50.6217 17.9089C50.4403 17.7918 50.2335 17.7196 50.0186 17.6984C49.8037 17.6772 49.5869 17.7076 49.3861 17.7871C49.345 17.8068 49.2979 17.8096 49.2548 17.7949C49.2117 17.7803 49.176 17.7494 49.1555 17.7087C49.1451 17.6885 49.1389 17.6664 49.1373 17.6438C49.1356 17.6211 49.1386 17.5984 49.1459 17.5769C49.1532 17.5554 49.1647 17.5356 49.1798 17.5186C49.1949 17.5016 49.2133 17.4879 49.2338 17.4781C49.4868 17.3736 49.7613 17.3317 50.034 17.3559C50.3067 17.3802 50.5695 17.4699 50.8001 17.6174C50.8198 17.6285 50.837 17.6436 50.8507 17.6617C50.8643 17.6798 50.8741 17.7005 50.8794 17.7226C50.8847 17.7446 50.8854 17.7675 50.8815 17.7898C50.8776 17.8121 50.8691 17.8334 50.8566 17.8523C50.834 17.8898 50.7984 17.9177 50.7566 17.9306Z" fill="#263238"/>
<path d="M45.2137 19.6926C45.1828 19.7052 45.1489 19.7089 45.116 19.7033C45.0831 19.6977 45.0524 19.6829 45.0275 19.6607C45.0026 19.6385 44.9844 19.6097 44.975 19.5777C44.9656 19.5456 44.9654 19.5116 44.9744 19.4794C45.0547 19.2179 45.1966 18.9795 45.3881 18.7841C45.5796 18.5888 45.8152 18.4423 46.0751 18.3569C46.1176 18.3505 46.161 18.3601 46.1969 18.3838C46.2327 18.4075 46.2585 18.4437 46.2693 18.4853C46.2801 18.5269 46.2752 18.571 46.2554 18.6091C46.2356 18.6473 46.2024 18.6768 46.1621 18.6919C45.9561 18.761 45.7696 18.8785 45.6182 19.0344C45.4669 19.1903 45.355 19.3802 45.292 19.5882C45.2804 19.6318 45.2523 19.6693 45.2137 19.6926Z" fill="#263238"/>
<path d="M50.8827 19.549L50.1517 19.4968C50.1517 19.4968 50.6173 19.958 50.8827 19.549Z" fill="#263238"/>
<path d="M46.5798 15.8986C46.5798 17.5388 49.5644 18.6352 51.109 18.5787C49.5035 18.9441 46.2491 18.6831 45.7966 16.2988C45.8967 15.9029 46.5798 15.8986 46.5798 15.8986Z" fill="#263238"/>
<path d="M73.668 14.1409C75.1733 15.6593 79.5938 15.3678 81.4255 14.515C79.6851 15.7724 75.9304 17.0211 73.3112 15.2329C73.0545 14.7543 73.668 14.1409 73.668 14.1409Z" fill="#263238"/>
</svg>
