<svg width="241" height="143" viewBox="0 0 241 143" fill="none" xmlns="http://www.w3.org/2000/svg">
<path d="M117.47 68.103H93.2146H92.9563C91.3021 68.103 89.7157 68.7601 88.546 69.9298C87.3764 71.0995 86.7193 72.6859 86.7193 74.34V142.393H123.335V74.3148C123.354 72.7207 122.754 71.1814 121.659 70.0222C120.565 68.8631 119.062 68.1749 117.47 68.103Z" fill="#2196F3"/>
<path opacity="0.5" d="M117.47 68.103H93.2146H92.9563C91.3021 68.103 89.7157 68.7601 88.546 69.9298C87.3764 71.0995 86.7193 72.6859 86.7193 74.34V142.393H123.335V74.3148C123.354 72.7207 122.754 71.1814 121.659 70.0222C120.565 68.8631 119.062 68.1749 117.47 68.103Z" fill="white"/>
<path opacity="0.6" d="M92.9815 68.103C91.3274 68.103 89.7409 68.7601 88.5713 69.9298C87.4016 71.0995 86.7445 72.6859 86.7445 74.34V142.393H99.2185V74.3148C99.2118 72.665 98.5518 71.0851 97.3828 69.9209C96.2139 68.7567 94.6313 68.103 92.9815 68.103Z" fill="white"/>
<path d="M235.903 52.0002H130.385C129.029 52.0002 127.729 52.5383 126.77 53.4963C125.81 54.4543 125.271 55.7539 125.269 57.1095L118.339 101.367H234.07L241 57.1095C241 55.7566 240.463 54.459 239.508 53.5012C238.553 52.5433 237.256 52.0036 235.903 52.0002Z" fill="#2196F3"/>
<path opacity="0.4" d="M235.903 52.0002H130.385C129.029 52.0002 127.729 52.5383 126.77 53.4963C125.81 54.4543 125.271 55.7539 125.269 57.1095L118.339 101.367H234.07L241 57.1095C241 55.7566 240.463 54.459 239.508 53.5012C238.553 52.5433 237.256 52.0036 235.903 52.0002Z" fill="white"/>
<path opacity="0.2" d="M223.845 102.022H234.07L241 57.1095C241 56.438 240.868 55.7731 240.61 55.1528C240.353 54.5325 239.976 53.969 239.501 53.4945C239.026 53.02 238.462 52.6438 237.842 52.3874C237.221 52.131 236.556 51.9994 235.884 52.0002C234.529 52.0002 233.23 52.5385 232.272 53.4967C231.313 54.4549 230.775 55.7545 230.775 57.1095L223.845 102.022Z" fill="black"/>
<path d="M207.686 142.393H103.288V96.3774L207.686 96.3774V142.393Z" fill="#2196F3"/>
<path opacity="0.4" d="M207.686 142.393H103.288V96.3774L207.686 96.3774V142.393Z" fill="white"/>
<path d="M217.854 105.639H106.772C105.909 105.639 105.055 105.469 104.258 105.138C103.46 104.808 102.736 104.324 102.126 103.714C101.516 103.104 101.032 102.38 100.701 101.582C100.371 100.785 100.201 99.9306 100.201 99.0677C100.201 97.325 100.894 95.6537 102.126 94.4214C103.358 93.1891 105.029 92.4968 106.772 92.4968H217.854V105.639Z" fill="#2196F3"/>
<path opacity="0.6" d="M217.854 105.639H106.772C105.909 105.639 105.055 105.469 104.258 105.138C103.46 104.808 102.736 104.324 102.126 103.714C101.516 103.104 101.032 102.38 100.701 101.582C100.371 100.785 100.201 99.9306 100.201 99.0677C100.201 97.325 100.894 95.6537 102.126 94.4214C103.358 93.1891 105.029 92.4968 106.772 92.4968H217.854V105.639Z" fill="white"/>
<path d="M228.973 68.103H204.725H204.473C202.818 68.103 201.231 68.7599 200.06 69.9294C198.889 71.0989 198.231 72.6853 198.229 74.34V142.393H234.839V74.3148C234.858 72.7207 234.257 71.1814 233.163 70.0222C232.068 68.8631 230.566 68.1749 228.973 68.103Z" fill="#2196F3"/>
<path opacity="0.5" d="M228.973 68.103H204.725H204.473C202.818 68.103 201.231 68.7599 200.06 69.9294C198.889 71.0989 198.231 72.6853 198.229 74.34V142.393H234.839V74.3148C234.858 72.7207 234.257 71.1814 233.163 70.0222C232.068 68.8631 230.566 68.1749 228.973 68.103Z" fill="white"/>
<path opacity="0.6" d="M204.485 68.103C202.83 68.103 201.243 68.7599 200.073 69.9294C198.902 71.0989 198.244 72.6853 198.242 74.34V142.393H210.722V74.3148C210.716 72.665 210.055 71.0851 208.887 69.9209C207.718 68.7567 206.135 68.103 204.485 68.103Z" fill="white"/>
<path d="M138.762 68.04L136.242 71.8516C136.242 71.8516 130.03 74.7118 129.709 75.4552C129.388 76.1986 128.411 78.687 129.709 78.813C131.007 78.939 137.949 75.8331 138.737 75.663C139.524 75.4929 138.737 74.1069 138.737 74.1069L142 69.5898L138.762 68.04Z" fill="#FFB573"/>
<path d="M149.649 34.2026C145.869 38.3102 144.867 54.9548 143.248 57.7898C141.629 60.6248 136.765 70.352 136.765 70.352L140.892 71.8829C140.892 71.8829 146.795 63.8882 149.51 58.7789C152.225 53.6696 152.906 45.4229 153.97 43.2431C155.035 41.0633 149.649 34.2026 149.649 34.2026Z" fill="#2196F3"/>
<path d="M138.876 140.603L134.081 141.107L132.109 130.763L136.897 130.252L138.876 140.603Z" fill="#FFB573"/>
<path d="M161.6 141.536L156.912 141.353L155.829 130.53L160.522 130.712L161.6 141.536Z" fill="#FFB573"/>
<path d="M133.218 137.05H138.92C139.012 137.052 139.101 137.084 139.173 137.143C139.245 137.201 139.296 137.281 139.317 137.371L140.243 141.555C140.262 141.644 140.263 141.736 140.247 141.825C140.23 141.915 140.196 142 140.146 142.076C140.097 142.152 140.032 142.218 139.957 142.269C139.881 142.32 139.796 142.356 139.707 142.374C139.657 142.38 139.606 142.38 139.556 142.374C137.71 142.374 136.368 142.235 134.05 142.235C132.626 142.235 128.323 142.38 126.351 142.38C124.379 142.38 124.121 140.433 124.927 140.257C128.55 139.469 131.271 138.367 132.431 137.34C132.645 137.143 132.928 137.039 133.218 137.05Z" fill="#263238"/>
<path d="M132.891 137.699C132.914 137.696 132.936 137.685 132.952 137.668C132.968 137.651 132.977 137.628 132.979 137.605C132.981 137.583 132.977 137.561 132.967 137.542C132.957 137.523 132.941 137.507 132.922 137.497C132.758 137.39 131.24 136.458 130.723 136.729C130.665 136.756 130.615 136.8 130.581 136.855C130.546 136.909 130.528 136.973 130.528 137.038C130.51 137.149 130.522 137.263 130.563 137.369C130.604 137.474 130.672 137.566 130.761 137.636C131.025 137.817 131.343 137.902 131.662 137.875C132.077 137.864 132.489 137.805 132.891 137.699ZM132.569 137.548C132.022 137.73 131.427 137.7 130.9 137.466C130.844 137.416 130.801 137.353 130.775 137.283C130.749 137.213 130.74 137.137 130.749 137.063C130.749 136.975 130.793 136.93 130.824 136.93C130.867 136.907 130.915 136.897 130.963 136.899C131.528 137.014 132.067 137.234 132.55 137.548H132.569Z" fill="#2196F3"/>
<path d="M132.922 137.724C132.94 137.714 132.955 137.7 132.965 137.682C132.975 137.664 132.98 137.644 132.979 137.623C132.979 137.56 132.859 136.206 132.317 135.733C132.253 135.678 132.178 135.636 132.096 135.613C132.015 135.589 131.929 135.583 131.845 135.595C131.76 135.593 131.678 135.621 131.613 135.674C131.547 135.727 131.502 135.802 131.486 135.884C131.391 136.382 132.324 137.415 132.809 137.674H132.865C132.87 137.686 132.878 137.697 132.888 137.705C132.898 137.714 132.909 137.72 132.922 137.724ZM132.172 135.897C132.501 136.319 132.695 136.831 132.727 137.365C132.242 137.006 131.643 136.218 131.706 135.916C131.706 135.885 131.706 135.803 131.864 135.803H131.92C132.013 135.804 132.102 135.838 132.172 135.897Z" fill="#2196F3"/>
<path d="M156.32 136.905H162.022C162.115 136.908 162.204 136.942 162.276 137.001C162.348 137.061 162.398 137.142 162.419 137.233L163.345 141.41C163.364 141.499 163.366 141.591 163.349 141.68C163.333 141.77 163.298 141.855 163.249 141.931C163.199 142.007 163.134 142.073 163.059 142.124C162.983 142.175 162.899 142.211 162.809 142.229H162.658C160.812 142.197 159.47 142.084 157.152 142.084C155.728 142.084 151.425 142.229 149.453 142.229C147.481 142.229 147.223 140.288 148.03 140.106C151.652 139.318 154.374 138.216 155.533 137.189C155.75 136.997 156.031 136.896 156.32 136.905Z" fill="#263238"/>
<path d="M155.993 137.56C156.015 137.556 156.036 137.544 156.052 137.527C156.067 137.51 156.078 137.489 156.081 137.466C156.083 137.444 156.079 137.421 156.069 137.401C156.059 137.381 156.043 137.364 156.024 137.353C155.86 137.245 154.342 136.319 153.825 136.584C153.767 136.612 153.718 136.656 153.684 136.71C153.649 136.765 153.631 136.828 153.63 136.893C153.612 137.004 153.624 137.119 153.665 137.224C153.706 137.329 153.774 137.421 153.863 137.491C154.127 137.672 154.445 137.757 154.764 137.731C155.179 137.719 155.591 137.662 155.993 137.56ZM155.671 137.403C155.125 137.588 154.528 137.559 154.002 137.321C153.946 137.271 153.903 137.208 153.877 137.138C153.851 137.068 153.842 136.992 153.851 136.918C153.851 136.83 153.895 136.786 153.926 136.786C153.972 136.774 154.019 136.774 154.065 136.786C154.635 136.885 155.181 137.095 155.671 137.403Z" fill="#2196F3"/>
<path d="M156.024 137.579C156.042 137.57 156.057 137.555 156.067 137.537C156.077 137.519 156.082 137.499 156.081 137.478C156.081 137.415 155.961 136.067 155.451 135.626C155.387 135.569 155.312 135.527 155.23 135.502C155.149 135.477 155.063 135.47 154.978 135.481C154.894 135.48 154.812 135.508 154.746 135.561C154.68 135.614 154.636 135.688 154.619 135.771C154.525 136.269 155.457 137.302 155.942 137.567H155.999C156.006 137.573 156.015 137.577 156.024 137.579ZM155.274 135.752C155.604 136.177 155.797 136.69 155.829 137.226C155.344 136.861 154.745 136.08 154.808 135.771C154.808 135.771 154.808 135.658 154.966 135.658H155.022C155.115 135.659 155.204 135.693 155.274 135.752Z" fill="#2196F3"/>
<path opacity="0.2" d="M136.897 130.252L132.109 130.763L133.13 136.099L137.918 135.595L136.897 130.252Z" fill="black"/>
<path opacity="0.2" d="M160.522 130.719L155.829 130.536L156.39 136.118L161.083 136.3L160.522 130.719Z" fill="black"/>
<path d="M187.203 61.135C187.203 61.135 197.913 93.8257 174.792 93.8257C151.671 93.8257 149.819 84.8104 151.772 74.2012L161.222 73.3444C161.222 73.3444 162.482 66.4837 161.575 61.009L187.203 61.135Z" fill="#263238"/>
<path d="M131.712 135.318L139.625 134.177C139.625 134.177 132.513 101.417 135.014 97.7949C137.124 94.7709 149.434 94.8906 163.553 94.185L171.85 93.7692C190.252 92.8053 151.778 74.1321 151.778 74.1321C151.778 74.1321 127.132 75.1653 120.706 83.6451C114.797 91.413 131.712 135.318 131.712 135.318Z" fill="#263238"/>
<path opacity="0.2" d="M139.707 134.297L139.625 134.177C139.625 134.177 132.513 101.417 135.014 97.795C137.124 94.771 149.434 94.8907 163.553 94.1851L165.21 89.3467L154.67 77.0806C154.67 77.0806 137.483 77.8429 132.979 86.8582C128.474 95.8735 139.707 134.297 139.707 134.297Z" fill="black"/>
<path d="M142.63 83.645C146.234 78.8948 155.552 76.4819 163.049 75.2786L173.885 93.8195C162.545 94.2857 157.744 96.0497 157.505 97.1018C156.283 102.142 163.383 134.694 163.383 134.694H155.136C155.136 134.694 136.198 92.1248 142.63 83.645Z" fill="#263238"/>
<path d="M175 31.248C175 31.248 158.267 25.0803 149.649 34.2027C149.649 34.2027 160.359 61.7841 161.196 66.0366L189.723 64.9152C189.723 64.9152 183.02 45.2403 175 31.248Z" fill="#2196F3"/>
<path opacity="0.6" d="M149.649 34.2027C149.649 34.2027 153.208 43.3692 156.383 51.9435C158.002 56.322 159.533 60.5493 160.422 63.3276C160.812 64.5498 161.089 65.4885 161.196 66.0366L189.723 64.9152C189.723 64.9152 188.57 61.5384 186.655 56.5866C185.956 54.7848 185.155 52.7751 184.273 50.6394C181.581 43.9924 178.484 37.5165 175 31.248C175 31.248 158.267 25.0803 149.649 34.2027Z" fill="white"/>
<path opacity="0.6" d="M156.383 51.9434C158.002 56.3219 159.533 60.5492 160.422 63.3275L162.494 58.3253L170.432 62.9873L173.878 57.0842L184.494 62.1242L186.655 56.5865C185.955 54.7847 185.155 52.775 184.273 50.6393L178.011 47.6216L173.878 54.6713L164.68 49.373L162.312 56.5046L156.383 51.9434Z" fill="white"/>
<path d="M156.95 34.7129C162.337 38.7323 165.966 30.0699 165.966 30.0699C164.916 29.8427 163.911 29.4425 162.992 28.8854C162.186 28.3247 161.178 26.2079 160.069 22.5854H152.899C154.449 24.8408 156.679 28.6083 157.171 31.7331C157.372 32.7278 157.296 33.7587 156.95 34.7129Z" fill="#FFB573"/>
<path d="M165.21 29.2822C165.21 29.2822 162.904 33.3457 159.426 35.3428C159.426 35.3428 157.133 32.7661 156.793 30.1201C156.793 30.1201 154.273 34.2718 156.497 41.227L159.426 36.6028L162.79 40.2505C162.79 40.2505 171.226 32.6527 165.21 29.2822Z" fill="#2196F3"/>
<path d="M162.356 69.3188L159.867 73.0988C159.867 73.0988 153.649 75.9654 153.334 76.7088C153.019 77.4522 152.03 79.9406 153.334 80.0666C154.638 80.1926 161.568 77.0867 162.356 76.9166C163.143 76.7465 162.356 75.3605 162.356 75.3605L165.625 70.8183L162.356 69.3188Z" fill="#FFB573"/>
<path d="M175 31.248C169.468 30.4479 168.467 56.2338 166.841 59.0625C165.216 61.8912 160.365 71.6625 160.365 71.6625L164.491 73.143C164.491 73.143 171.163 64.8585 173.878 59.7492C176.594 54.6399 179.416 45.1773 179.548 40.0491C179.637 37.5606 178.37 31.7394 175 31.248Z" fill="#2196F3"/>
<path opacity="0.2" d="M152.893 22.5225C154.443 24.7779 156.673 28.5453 157.164 31.6701C158.246 30.427 159.061 28.9759 159.56 27.406C160.06 25.8361 160.233 24.1806 160.069 22.5414L152.893 22.5225Z" fill="black"/>
<path d="M147.305 11.0564C147.305 11.0564 145.031 17.6273 148.137 20.8907C151.242 24.1541 153.573 11.5667 153.573 11.5667L147.305 11.0564Z" fill="#263238"/>
<path d="M157.574 28.1926C156.617 29.1693 155.365 29.804 154.011 29.9987C152.657 30.1934 151.277 29.9373 150.083 29.2699C148.522 28.4406 147.336 27.0487 146.763 25.3765C146.688 25.1434 146.618 24.9103 146.562 24.6646C145.554 20.2042 146.329 12.871 151.198 10.9684C152.023 10.6389 152.905 10.4754 153.793 10.4872C154.681 10.4989 155.558 10.6857 156.374 11.0368C157.189 11.3879 157.928 11.8965 158.547 12.5333C159.166 13.1702 159.653 13.9229 159.981 14.7484C160.381 15.734 160.538 16.8013 160.441 17.8606C160.088 22.7872 160.113 25.7041 157.574 28.1926Z" fill="#FFB573"/>
<path d="M152.918 19.1393C152.918 19.5362 152.698 19.8638 152.433 19.8575C152.169 19.8512 151.961 19.5236 151.967 19.1204C151.973 18.7172 152.187 18.3959 152.452 18.4022C152.717 18.4085 152.925 18.7298 152.918 19.1393Z" fill="#263238"/>
<path d="M148.37 19.0765C148.37 19.4797 148.143 19.801 147.878 19.801C147.614 19.801 147.412 19.4608 147.412 19.0639C147.412 18.667 147.639 18.3394 147.897 18.3394C148.155 18.3394 148.37 18.6985 148.37 19.0765Z" fill="#263238"/>
<path d="M149.812 19.2969C149.316 20.5207 148.652 21.6698 147.84 22.7115C148.115 22.9129 148.431 23.0522 148.765 23.1196C149.099 23.1871 149.443 23.1811 149.775 23.1021L149.812 19.2969Z" fill="#DC5753"/>
<path d="M151.797 16.5752C151.835 16.5553 151.877 16.5449 151.92 16.5449C151.962 16.5449 152.005 16.5553 152.043 16.5752C152.275 16.7586 152.547 16.885 152.837 16.9441C153.127 17.0032 153.427 16.9933 153.712 16.9154C153.741 16.9043 153.772 16.8991 153.803 16.9002C153.834 16.9012 153.864 16.9083 153.892 16.9212C153.92 16.9341 153.946 16.9525 153.967 16.9753C153.988 16.9981 154.004 17.0248 154.014 17.054C154.026 17.0829 154.031 17.1137 154.03 17.1447C154.029 17.1757 154.021 17.2061 154.009 17.2342C153.996 17.2624 153.977 17.2877 153.955 17.3087C153.932 17.3296 153.905 17.3459 153.876 17.3564C153.517 17.4643 153.137 17.4845 152.769 17.4155C152.401 17.3464 152.054 17.19 151.759 16.9595C151.734 16.9419 151.712 16.9194 151.695 16.8933C151.679 16.8672 151.667 16.8381 151.662 16.8076C151.657 16.7771 151.658 16.7458 151.665 16.7157C151.671 16.6855 151.684 16.657 151.702 16.6319C151.732 16.6098 151.764 16.5909 151.797 16.5752Z" fill="#263238"/>
<path d="M153.479 23.9022C152.902 23.8252 152.315 23.8874 151.767 24.0836C151.219 24.2797 150.726 24.6042 150.329 25.0299C150.306 25.0534 150.293 25.0851 150.293 25.1181C150.293 25.151 150.306 25.1827 150.329 25.2063C150.34 25.2175 150.353 25.2264 150.368 25.2325C150.383 25.2386 150.398 25.2417 150.414 25.2417C150.43 25.2417 150.446 25.2386 150.46 25.2325C150.475 25.2264 150.488 25.2175 150.499 25.2063C150.874 24.818 151.333 24.5221 151.841 24.3417C152.35 24.1613 152.893 24.1014 153.429 24.1668C153.46 24.1705 153.492 24.1622 153.518 24.1436C153.543 24.1249 153.561 24.0972 153.567 24.066C153.57 24.0502 153.569 24.0341 153.566 24.0185C153.562 24.003 153.555 23.9883 153.546 23.9754C153.537 23.9625 153.525 23.9516 153.511 23.9433C153.497 23.9351 153.482 23.9297 153.466 23.9274L153.479 23.9022Z" fill="#263238"/>
<path d="M148.804 16.3421C148.851 16.3489 148.894 16.3685 148.93 16.3988C148.949 16.4245 148.962 16.4534 148.969 16.4841C148.976 16.5148 148.976 16.5465 148.971 16.5775C148.966 16.6085 148.955 16.6382 148.938 16.6648C148.921 16.6915 148.899 16.7145 148.874 16.7327C148.57 16.9542 148.217 17.0995 147.846 17.1565C147.474 17.2136 147.094 17.1805 146.738 17.0603C146.681 17.0353 146.635 16.9894 146.611 16.9321C146.586 16.8748 146.584 16.8103 146.606 16.7516C146.631 16.6961 146.676 16.6522 146.732 16.6288C146.788 16.6054 146.851 16.6043 146.908 16.6256C147.192 16.7137 147.494 16.7334 147.787 16.683C148.08 16.6326 148.358 16.5137 148.596 16.3358C148.63 16.322 148.665 16.3154 148.701 16.3165C148.737 16.3176 148.772 16.3263 148.804 16.3421Z" fill="#263238"/>
<path d="M160.623 23.9336L159.47 23.8958C159.71 22.535 159.666 21.3758 159.325 21.2372C158.664 21.0041 158.576 21.7979 158.576 21.7979C157.24 20.582 156.377 17.6777 157.19 15.8885C157.358 15.5165 157.38 15.0949 157.252 14.7073C157.123 14.3198 156.854 13.9948 156.497 13.7969L156.894 11.6423C156.894 11.6423 161.196 10.7162 162.456 12.6629C163.716 14.6096 162.853 17.5958 161.581 21.5459C161.318 22.3631 160.998 23.161 160.623 23.9336Z" fill="#263238"/>
<path d="M162.545 21.9366C162.267 22.4876 161.883 22.9782 161.414 23.3804C160.946 23.7826 160.403 24.0883 159.817 24.2802C158.248 24.7842 157.404 23.3919 157.782 21.8736C158.135 20.5317 159.363 18.6039 160.97 18.774C162.576 18.9441 163.225 20.5632 162.545 21.9366Z" fill="#FFB573"/>
<path d="M161.008 12.3982C161.008 12.3982 162.041 9.75223 158.966 7.71733C157.452 6.73924 155.701 6.19196 153.899 6.13424C152.098 6.07652 150.315 6.51056 148.741 7.38974C145.799 9.14114 144.659 12.9904 144.659 12.9904C144.994 12.8249 145.366 12.7468 145.739 12.7634C146.112 12.7799 146.476 12.8905 146.795 13.0849L146.379 14.4205C147.118 13.8276 148.023 13.4797 148.968 13.4251L147.973 14.6851C150.737 13.8862 153.621 13.5854 156.49 13.7968L161.008 12.3982Z" fill="#263238"/>
<path d="M76.4187 100.158L81.5973 113.123L84.6843 120.847H88.4265L85.9632 111.731L81.9438 96.8501L76.4187 100.158Z" fill="#FFB573"/>
<path opacity="0.2" d="M76.4188 100.158L81.5974 113.123L85.9633 111.731L81.9439 96.8501L76.4188 100.158Z" fill="black"/>
<path d="M59.9128 111.712L57.9661 125.534L56.8069 133.768L60.0577 135.633L62.4454 126.498L66.3514 111.586L59.9128 111.712Z" fill="#FFB573"/>
<path opacity="0.2" d="M59.9128 111.712L57.9661 125.534L62.4454 126.498L66.3514 111.586L59.9128 111.712Z" fill="black"/>
<path d="M66.1372 39.0791L83.5756 38.72L68.3989 55.9883L52.0819 54.9047L66.1372 39.0791Z" fill="#2196F3"/>
<path opacity="0.3" d="M66.1372 39.0791L83.5756 38.72L68.3989 55.9883L52.0819 54.9047L66.1372 39.0791Z" fill="white"/>
<path d="M66.5278 40.9626L79.9846 40.6917L68.2666 54.0162L55.6729 53.1783L66.5278 40.9626Z" fill="white"/>
<path d="M64.6636 30.1465L69.1772 43.1443L68.6416 43.3303L64.128 30.3325L64.6636 30.1465Z" fill="#263238"/>
<path d="M69.2746 44.3334L68.6446 43.3191C68.7076 43.2411 68.791 43.1822 68.8856 43.1488C68.9801 43.1154 69.0821 43.109 69.1801 43.1301L69.2746 44.3334Z" fill="#2196F3"/>
<path d="M69.1419 44.0877C69.1419 44.0182 69.2113 44.0056 69.2682 44.0435L69.2998 44.334L69.1419 44.0877Z" fill="#263238"/>
<path d="M57.3045 45.228L60.927 41.1141C61.0404 40.662 61.2052 40.2245 61.4184 39.81C61.7901 39.0603 65.1984 36.9435 66.4206 36.5088C67.6428 36.0741 71.2023 39.3753 70.8873 39.873C70.5723 40.3707 66.03 43.3191 64.9716 43.2435L63.9132 43.1742L59.7993 48.2835L57.3045 45.228Z" fill="#FFB573"/>
<path d="M44.7928 13.8726C45.2393 13.8676 45.6743 13.7306 46.043 13.4788C46.4118 13.227 46.6977 12.8717 46.8648 12.4577C47.032 12.0436 47.0728 11.5893 46.9822 11.1521C46.8916 10.7149 46.6736 10.3143 46.3557 10.0008C46.0378 9.68722 45.6342 9.4748 45.1957 9.39027C44.7573 9.30573 44.3037 9.35287 43.892 9.52573C43.4803 9.6986 43.129 9.98945 42.8823 10.3616C42.6356 10.7338 42.5047 11.1707 42.5059 11.6172C42.5075 11.9156 42.568 12.2107 42.6839 12.4857C42.7998 12.7606 42.9688 13.01 43.1813 13.2195C43.3937 13.429 43.6454 13.5946 43.922 13.7066C44.1985 13.8187 44.4944 13.8751 44.7928 13.8726ZM44.7928 9.94773C45.1238 9.94398 45.4484 10.0387 45.7254 10.2199C46.0024 10.401 46.2193 10.6604 46.3486 10.9651C46.4779 11.2698 46.5136 11.6061 46.4514 11.9312C46.3891 12.2563 46.2316 12.5555 45.9989 12.7909C45.7662 13.0263 45.4688 13.1872 45.1444 13.2531C44.82 13.3191 44.4834 13.2872 44.1772 13.1614C43.8711 13.0356 43.6092 12.8216 43.4249 12.5467C43.2406 12.2717 43.1422 11.9482 43.1422 11.6172C43.1405 11.3991 43.1819 11.1828 43.2641 10.9807C43.3462 10.7787 43.4674 10.5948 43.6208 10.4397C43.7741 10.2846 43.9566 10.1613 44.1577 10.0769C44.3589 9.99243 44.5747 9.94855 44.7928 9.94773Z" fill="#263238"/>
<path d="M36.5964 21.2501C37.2933 21.4939 38.0204 21.6402 38.7573 21.6848C40.2567 21.6848 41.4411 21.5021 42.3735 20.8532C44.4777 19.3916 45.24 16.1597 45.2967 12.1592C45.3849 6.94278 43.8918 4.10778 38.4801 3.67308C29.5026 2.95488 27.5874 18.6356 36.5964 21.2501Z" fill="#FFB573"/>
<path opacity="0.2" d="M34.2844 18.8372C35.5189 20.1394 37.0552 21.1174 38.7574 21.6848C40.2568 21.6848 41.4412 21.5084 42.3736 20.8595C39.6646 18.7994 34.2844 18.8372 34.2844 18.8372Z" fill="black"/>
<path d="M42.1342 6.39479C42.1342 6.39479 44.8936 11.6238 40.1875 14.5848C40.1875 14.5848 36.9682 19.5618 31.777 18.894C26.5858 18.2262 23.5051 10.704 26.9386 4.12049C30.2146 -2.12911 41.2585 1.32329 41.2585 1.32329C45.9835 -0.66751 47.905 5.04659 44.4085 6.82949C43.7112 6.45956 42.9187 6.30808 42.1342 6.39479Z" fill="#2E353A"/>
<path d="M42.0838 13.0285C42.1 12.7144 42.0521 12.4003 41.9428 12.1054C41.8335 11.8105 41.6652 11.541 41.4482 11.3134C41.2312 11.0857 40.97 10.9048 40.6807 10.7815C40.3913 10.6583 40.0799 10.5954 39.7654 10.5967C38.0581 10.6786 36.8737 14.2192 40.9624 15.3595C41.5546 15.5233 41.9515 14.9311 42.0838 13.0285Z" fill="#FFB573"/>
<path d="M45.3346 4.03208C45.3346 4.03208 45.8638 6.55208 42.109 10.5967C39.668 13.12 36.7403 15.1218 33.5032 16.4809L34.3096 0.365479L43.1611 0.907279L45.3346 4.03208Z" fill="#2E353A"/>
<path d="M42.0838 11.189H46.8025V11.8127H42.0838V11.189Z" fill="#263238"/>
<path d="M37.0626 30.0826C33.1188 30.5362 27.9906 27.7201 27.9906 27.7201C31.7139 25.3324 32.2809 18.8371 32.2809 18.8371C35.8908 17.4385 38.6754 20.7271 38.6754 20.7271C38.4023 21.5028 38.1916 22.2992 38.0454 23.1085C37.4154 26.5798 39.1101 26.8885 39.1101 26.8885C39.8598 28.8919 38.0643 29.9692 37.0626 30.0826Z" fill="#FFB573"/>
<path d="M40.1371 26.0065L38.3353 23.2975C35.1538 20.8531 30.7185 21.7162 30.7185 21.7162L28.2363 26.0695C28.2363 26.0695 36.5146 26.4097 40.1371 26.0065Z" fill="#2196F3"/>
<path d="M41.3214 50.3624C46.1409 49.4489 50.6013 48.0818 50.6013 48.0818L51.8613 51.131C48.4325 52.7376 44.9084 54.1325 41.3088 55.3079L41.3214 50.3624Z" fill="#FFB573"/>
<path d="M20.0716 35.8976C20.1094 31.1663 21.5647 30.0071 21.5647 30.0071L24.2233 36.7733L23.4484 55.3142C23.4484 55.3142 20.0401 40.6352 20.0716 35.8976Z" fill="#2196F3"/>
<path d="M22.6545 55.1756C21.6591 55.4339 23.5932 39.2177 21.5394 29.9756C21.5394 29.9756 23.0955 27.2855 29.1687 25.5656C36.2247 23.5748 44.9565 26.9894 47.6214 27.9974C47.6214 27.9974 49.4421 42.9536 43.6713 56.6372C43.6965 56.6813 36.0105 56.5049 22.6545 55.1756Z" fill="#2196F3"/>
<path opacity="0.2" d="M22.6545 55.1756C21.9363 55.2953 23.4105 39.0854 21.5394 29.9756C21.5394 29.9756 23.0955 27.2855 29.1687 25.5656C36.2247 23.5748 44.9565 26.9894 47.6214 27.9974C47.6214 27.9974 49.4421 42.9536 43.6713 56.6372C43.6965 56.6813 36.0105 56.5049 22.6545 55.1756Z" fill="black"/>
<path d="M49.8264 48.3151C49.8264 48.3151 54.8664 46.1479 56.6493 45.688C58.4322 45.2281 58.5393 50.8162 57.777 51.6415C57.0147 52.4668 50.217 52.4416 49.7382 51.6415C49.2594 50.8414 49.8264 48.3151 49.8264 48.3151Z" fill="#FFB573"/>
<path d="M95.4888 126.309C94.8489 126.036 94.1672 125.874 93.4729 125.83C93.4729 125.83 91.0537 124.507 88.6534 119.36H85.957C85.5132 119.357 85.0789 119.488 84.7103 119.735C84.3418 119.982 84.0562 120.334 83.8906 120.746C83.8462 120.857 83.8206 120.974 83.8149 121.093C83.8413 121.699 83.9086 122.303 84.0166 122.901C84.4164 124.9 84.9446 126.872 85.5979 128.804L86.0515 128.697L85.2199 124.948C84.9427 123.688 86.3791 124.904 87.0469 126.208C87.7147 127.512 88.7352 128.785 91.7088 128.149C95.1801 127.355 96.5787 126.889 95.4888 126.309Z" fill="#2E353A"/>
<path d="M83.8149 120.79C83.3046 119.574 82.6557 117.401 82.6557 117.401L88.4266 116.651C88.4266 116.651 88.4266 119.291 89.4976 121.023C86.4799 121.023 83.8149 120.79 83.8149 120.79Z" fill="#2E353A"/>
<path d="M32.8228 17.4387C32.5402 16.243 31.8578 15.1797 30.8886 14.4248C29.9193 13.6698 28.7214 13.2684 27.4929 13.287C22.9317 13.1358 23.6751 17.067 22.3962 17.8797C21.1173 18.6924 20.3299 18.0813 19.3723 19.3161C18.4146 20.5509 19.9014 21.981 19.851 23.2158C19.8006 24.4506 18.15 24.7026 18.15 26.3658C18.15 28.029 20.0401 28.1928 20.752 30.2214C21.4639 32.25 20.1723 32.4075 20.1723 33.5856C20.1723 34.7637 20.5945 35.5071 22.1884 35.4756C22.1884 35.4756 20.8716 34.7826 21.741 33.9951C22.6104 33.2076 24.8595 32.4642 25.4895 30.8829C26.1195 29.3016 23.3034 27.5691 25.899 25.8933C28.4946 24.2175 29.8806 25.3452 30.8382 22.0377C31.7958 18.7302 32.8228 17.4387 32.8228 17.4387Z" fill="#2E353A"/>
<path d="M47.6466 28.0415C41.649 30.6308 43.3878 54.0857 49.3476 55.6418C55.3074 57.1979 62.88 45.6626 62.88 45.6626L59.3268 42.1724C59.3268 42.1724 53.6568 47.4644 52.4724 47.351C51.288 47.2376 50.5194 35.9417 50.1918 33.5414C49.5366 28.7156 47.6466 28.0415 47.6466 28.0415Z" fill="#2196F3"/>
<path d="M22.6546 55.1754C22.6546 55.1754 42.1846 52.5735 43.6714 56.6811C43.9549 57.4812 44.3014 62.1873 44.4967 63.5229C44.692 64.8585 44.8747 65.835 44.8747 65.835C45.5047 65.6901 62.5525 60.9777 70.2826 65.835C75.8833 69.363 82.2526 94.4118 85.7869 109.57L80.4067 111.46C74.3146 98.2801 64.8709 78.5799 62.7667 78.498C59.5852 78.372 27.1654 92.2446 19.0384 84.5523C10.9114 76.86 22.6546 55.1754 22.6546 55.1754Z" fill="#2196F3"/>
<g opacity="0.6">
<path opacity="0.6" d="M22.6546 55.1754C22.6546 55.1754 42.1846 52.5735 43.6714 56.6811C43.9549 57.4812 44.3014 62.1873 44.4967 63.5229C44.692 64.8585 44.8747 65.835 44.8747 65.835C45.5047 65.6901 62.5525 60.9777 70.2826 65.835C75.8833 69.363 82.2526 94.4118 85.7869 109.57L80.4067 111.46C74.3146 98.2801 64.8709 78.5799 62.7667 78.498C59.5852 78.372 27.1654 92.2446 19.0384 84.5523C10.9114 76.86 22.6546 55.1754 22.6546 55.1754Z" fill="white"/>
</g>
<path d="M66.3892 141.523C65.8429 141.103 65.2265 140.783 64.5685 140.578C64.5685 140.578 62.5965 138.726 61.6893 133.176L59.0874 132.546C58.6514 132.439 58.1936 132.462 57.7704 132.612C57.3472 132.762 56.9772 133.032 56.706 133.39C56.6312 133.484 56.5736 133.591 56.536 133.705C56.397 134.298 56.2981 134.9 56.2399 135.507C56.074 137.529 56.0425 139.56 56.1454 141.586H56.6179L56.8384 137.769C56.9203 136.471 57.9723 138.002 58.2621 139.4C58.5519 140.799 59.1882 142.292 62.2437 142.387C65.8032 142.443 67.2838 142.342 66.3892 141.523Z" fill="#2E353A"/>
<path d="M56.6115 133.409C56.454 132.111 56.4225 129.856 56.4225 129.856L62.2122 130.486C62.2122 130.486 61.4877 133.044 62.0421 134.971C59.1315 134.253 56.6115 133.409 56.6115 133.409Z" fill="#2E353A"/>
<path d="M57.8148 122.542C59.5536 106.596 61.7775 90.2541 61.9161 89.1516C61.3176 89.3973 41.2584 86.5497 32.3061 86.1402C32.3061 86.1402 47.0985 83.658 55.1877 80.0292C57.2919 79.0842 63.1824 76.0476 63.1824 76.0476C63.1824 76.0476 75.1209 76.6398 75.2847 82.7193C75.3855 86.7576 68.5689 109.179 63.9762 123.795L57.8148 122.542Z" fill="#2196F3"/>
<g opacity="0.5">
<path opacity="0.5" d="M57.8148 122.542C59.5536 106.596 61.7775 90.2541 61.9161 89.1516C61.3176 89.3973 41.2584 86.5497 32.3061 86.1402C32.3061 86.1402 47.0985 83.658 55.1877 80.0292C57.2919 79.0842 63.1824 76.0476 63.1824 76.0476C63.1824 76.0476 75.1209 76.6398 75.2847 82.7193C75.3855 86.7576 68.5689 109.179 63.9762 123.795L57.8148 122.542Z" fill="white"/>
</g>
<path d="M42.7326 90.9531L42.5247 99.9117L41.5797 141.813H38.4675L37.5288 99.9117L37.3209 90.9531H42.7326Z" fill="#263238"/>
<path opacity="0.1" d="M42.7326 90.9531L42.5247 99.9117L41.5797 141.813H38.4675L37.5288 99.9117L37.3209 90.9531H42.7326Z" fill="white"/>
<path opacity="0.2" d="M42.7326 90.9531L42.5247 100.157H37.5288L37.3209 90.9531H42.7326Z" fill="black"/>
<path d="M33.0306 90.9531L32.8227 99.9117L31.8777 141.813H28.7655L27.8268 99.9117L27.6189 90.9531H33.0306Z" fill="#263238"/>
<path opacity="0.2" d="M33.0306 90.9531L32.8227 99.9117L31.8777 141.813H28.7655L27.8268 99.9117L27.6189 90.9531H33.0306Z" fill="white"/>
<path opacity="0.2" d="M33.0306 90.9531L32.8227 100.157H27.8268L27.6189 90.9531H33.0306Z" fill="black"/>
<path d="M59.6356 141.668L56.7628 91.5833H52.0629L56.0823 141.668H59.6356Z" fill="#263238"/>
<path opacity="0.2" d="M56.0761 141.668H59.6293L57.0211 95.9555L56.7628 91.5266H52.063L52.4221 95.9555L56.0761 141.668Z" fill="white"/>
<path opacity="0.2" d="M52.0629 91.5266L52.422 96.1319H57.021L56.7627 91.5266H52.0629Z" fill="black"/>
<path d="M13.2865 141.668L17.3122 91.5833H12.6124L9.7333 141.668H13.2865Z" fill="#263238"/>
<path opacity="0.1" d="M13.2928 141.668L16.9467 95.9555L17.3058 91.5266H12.606L12.3478 95.9555L9.73954 141.668H13.2928Z" fill="white"/>
<path opacity="0.2" d="M17.3058 91.5266L16.9467 96.1319H12.3478L12.606 91.5266H17.3058Z" fill="black"/>
<path d="M10.0923 93.2717H59.2828V89.6933C59.2828 88.8579 58.9509 88.0567 58.3601 87.466C57.7694 86.8752 56.9682 86.5433 56.1328 86.5433H13.2423C12.4069 86.5433 11.6057 86.8752 11.015 87.466C10.4242 88.0567 10.0923 88.8579 10.0923 89.6933V93.2717Z" fill="#2196F3"/>
<path d="M59.8561 93.2717H9.51283C8.81347 93.2717 8.24652 92.7048 8.24652 92.0054V91.1738C8.24652 90.4745 8.81347 89.9075 9.51283 89.9075H59.8561C60.5555 89.9075 61.1224 90.4745 61.1224 91.1738V92.0054C61.1224 92.7048 60.5555 93.2717 59.8561 93.2717Z" fill="#263238"/>
<path opacity="0.4" d="M59.8561 93.2717H9.51283C8.81347 93.2717 8.24652 92.7048 8.24652 92.0054V91.1738C8.24652 90.4745 8.81347 89.9075 9.51283 89.9075H59.8561C60.5555 89.9075 61.1224 90.4745 61.1224 91.1738V92.0054C61.1224 92.7048 60.5555 93.2717 59.8561 93.2717Z" fill="white"/>
<path d="M37.321 52.3533L35.6578 38.8838C35.6578 38.0985 35.3458 37.3454 34.7905 36.7901C34.2352 36.2348 33.4821 35.9229 32.6968 35.9229H28.7341L30.3973 55.3143H34.36C34.749 55.3151 35.1345 55.2391 35.4941 55.0905C35.8537 54.942 36.1805 54.724 36.4556 54.4489C36.7307 54.1737 36.9488 53.847 37.0973 53.4874C37.2458 53.1277 37.3218 52.7423 37.321 52.3533Z" fill="#2196F3"/>
<path d="M33.6544 90.0586L26.5921 38.4868L30.1894 37.9954L37.321 90.0712L33.6544 90.0586Z" fill="#263238"/>
<path d="M11.1319 90.0712L4.06334 38.4868L7.66694 37.9954L14.7922 90.0712H11.1319Z" fill="#263238"/>
<g opacity="0.2">
<path opacity="0.2" d="M33.6544 90.0586L26.5921 38.4868L30.1894 37.9954L37.321 90.0712L33.6544 90.0586Z" fill="white"/>
</g>
<g opacity="0.2">
<path opacity="0.2" d="M11.1319 90.0712L4.06334 38.4868L7.66694 37.9954L14.7922 90.0712H11.1319Z" fill="white"/>
</g>
<path d="M35.2294 55.6416H2.89148L0.308475 35.4753H32.6464L35.2294 55.6416Z" fill="#263238"/>
<path opacity="0.6" d="M35.2294 55.6416H2.89148L0.308475 35.4753H32.6464L35.2294 55.6416Z" fill="white"/>
<path d="M92.9227 1.32275H89.5692V9.66603H90.7919V7.14496H92.9111C95.1467 7.14496 96.4974 6.04835 96.4974 4.23951C96.4974 2.41936 95.1467 1.32275 92.9227 1.32275ZM92.8878 6.10487H90.7919V2.36284H92.8761C94.4481 2.36284 95.2632 3.04115 95.2632 4.2282C95.2748 5.42656 94.4481 6.10487 92.8878 6.10487Z" fill="#00325A"/>
<path d="M110.575 1.32275H109.352V9.66603H110.575V1.32275Z" fill="#00325A"/>
<path d="M119.622 7.54064L114.464 1.32275H113.463V9.66603H114.685V3.44814L119.844 9.66603H120.845V1.32275H119.622V7.54064Z" fill="#00325A"/>
<path d="M122.487 1.32275V2.36284H125.433V9.66603H126.644V2.36284H129.59V1.32275H122.487Z" fill="#00325A"/>
<path d="M97.7783 5.42653C97.7783 7.7328 99.618 9.75644 101.97 10.0617V8.95377C100.584 8.71636 99.4317 7.71019 99.0475 6.38748L99.0009 6.2179L99.1523 6.30834C99.3269 6.42139 99.5365 6.48922 99.7461 6.48922C100.34 6.48922 100.841 6.0031 100.841 5.42653C100.841 4.84996 100.34 4.36384 99.7461 4.36384C99.5365 4.36384 99.3269 4.42036 99.1523 4.54472L99.0009 4.63516L99.0475 4.46559C99.4434 3.14287 100.584 2.13671 101.97 1.8993V0.791382C99.618 1.09662 97.7783 3.12026 97.7783 5.42653Z" fill="#2F99EF"/>
<path d="M103.228 0.791382V1.8993C104.625 2.13671 105.766 3.14287 106.15 4.46559L106.197 4.63516L106.046 4.53342C105.859 4.42036 105.65 4.35253 105.44 4.35253C104.846 4.35253 104.345 4.83866 104.345 5.41523C104.345 5.99179 104.846 6.47792 105.44 6.47792C105.65 6.47792 105.859 6.41009 106.046 6.29703L106.197 6.19529L106.15 6.36487C105.766 7.68758 104.613 8.69375 103.228 8.93116V10.0617C105.58 9.75644 107.42 7.7328 107.42 5.42653C107.42 3.12026 105.591 1.09662 103.228 0.791382Z" fill="#2F99EF"/>
</svg>
