<svg width="134" height="134" viewBox="0 0 134 134" fill="none" xmlns="http://www.w3.org/2000/svg">
<g clip-path="url(#clip0_573_128)">
<path d="M49.9432 26.9549C49.9432 26.9549 45.9772 26.0046 45.3932 22.0493C47.424 19.1771 48.2972 15.6449 47.8388 12.1573C47.3804 8.66967 45.624 5.4831 42.92 3.23325C40.216 0.983398 36.7632 -0.164334 33.2504 0.0190174C29.7376 0.202369 26.423 1.70332 23.9679 4.22245C21.5128 6.74158 20.0977 10.0937 20.0049 13.6101C19.912 17.1264 21.1483 20.5485 23.467 23.1937C25.7857 25.8389 29.0165 27.5127 32.5147 27.8812C36.0129 28.2496 39.5215 27.2857 42.3405 25.1817C43.3306 26.1345 44.5596 26.8023 45.8978 27.1144C47.236 27.4265 48.6337 27.3714 49.9432 26.9549Z" fill="#2196F3"/>
<path d="M79.2816 131.285C79.2072 131.285 79.1337 131.269 79.0654 131.24C78.997 131.211 78.9351 131.168 78.8833 131.115C78.8314 131.061 78.7907 130.998 78.7634 130.929C78.736 130.86 78.7227 130.786 78.7241 130.712V93.6114C78.7241 93.4643 78.7826 93.3232 78.8866 93.2191C78.9906 93.1151 79.1318 93.0566 79.2789 93.0566C79.4261 93.0566 79.5672 93.1151 79.6712 93.2191C79.7753 93.3232 79.8337 93.4643 79.8337 93.6114V130.712C79.8351 130.786 79.822 130.859 79.795 130.928C79.768 130.997 79.7277 131.06 79.6764 131.113C79.6251 131.166 79.5639 131.209 79.4961 131.238C79.4284 131.268 79.3555 131.284 79.2816 131.285Z" fill="#455A64"/>
<path d="M101.304 117.784C101.187 117.79 101.072 117.757 100.976 117.691C100.88 117.624 100.809 117.529 100.773 117.418L89.8733 88.626C89.8183 88.485 89.8202 88.3281 89.8786 88.1884C89.9371 88.0488 90.0475 87.9373 90.1865 87.8774C90.2545 87.8479 90.3278 87.833 90.4019 87.8335C90.476 87.8341 90.5491 87.8501 90.6166 87.8806C90.6841 87.9111 90.7445 87.9554 90.7939 88.0106C90.8432 88.0659 90.8805 88.1308 90.9033 88.2013L101.819 116.993C101.874 117.134 101.872 117.291 101.814 117.43C101.755 117.57 101.645 117.682 101.506 117.741C101.443 117.771 101.374 117.786 101.304 117.784Z" fill="#455A64"/>
<path d="M99.9926 114.328C99.9159 114.328 99.8401 114.311 99.7705 114.279C99.7008 114.247 99.639 114.2 99.5891 114.142L79.2816 91.7267L59.0059 114.025C58.9562 114.079 58.8958 114.122 58.8287 114.152C58.7615 114.181 58.689 114.196 58.6157 114.196C58.5423 114.196 58.4698 114.181 58.4027 114.152C58.3355 114.122 58.2752 114.079 58.2254 114.025C58.1209 113.915 58.0626 113.768 58.0626 113.616C58.0626 113.464 58.1209 113.318 58.2254 113.208L78.8993 90.4579C78.9507 90.4018 79.013 90.3569 79.0824 90.3259C79.1518 90.2949 79.2268 90.2783 79.3028 90.2773C79.3786 90.2781 79.4533 90.2951 79.522 90.3271C79.5907 90.3592 79.6517 90.4056 79.701 90.4632L100.407 113.293C100.509 113.404 100.566 113.55 100.566 113.701C100.566 113.853 100.509 113.999 100.407 114.11C100.359 114.176 100.297 114.229 100.225 114.267C100.153 114.305 100.074 114.326 99.9926 114.328Z" fill="#455A64"/>
<path d="M57.2592 117.784C57.1878 117.785 57.1171 117.771 57.0521 117.741C56.914 117.681 56.8048 117.569 56.7474 117.429C56.69 117.29 56.6888 117.133 56.7442 116.993L67.6598 88.2013C67.6826 88.1308 67.7198 88.0659 67.7692 88.0106C67.8185 87.9554 67.8789 87.9111 67.9464 87.8806C68.0139 87.8501 68.0871 87.8341 68.1611 87.8335C68.2352 87.833 68.3086 87.8479 68.3765 87.8774C68.5146 87.9383 68.6238 88.0502 68.6812 88.1897C68.7386 88.3293 68.7398 88.4856 68.6845 88.626L57.7741 117.418C57.7348 117.523 57.6647 117.615 57.5729 117.68C57.4811 117.745 57.3718 117.781 57.2592 117.784Z" fill="#455A64"/>
<path d="M100.55 113.436L101.994 117.407C102 117.441 102 117.475 101.994 117.508C101.999 117.531 101.999 117.554 101.994 117.577C101.958 117.684 101.882 117.773 101.782 117.827C101.646 117.9 101.495 117.938 101.341 117.938C101.187 117.938 101.036 117.9 100.9 117.827C100.824 117.786 100.764 117.721 100.73 117.641V117.588L99.3926 113.871L100.55 113.436Z" fill="#2196F3"/>
<path d="M58.0184 113.436L56.5796 117.407C56.5741 117.441 56.5741 117.475 56.5796 117.508V117.577C56.6184 117.685 56.696 117.774 56.7973 117.827C56.9317 117.9 57.0823 117.938 57.2353 117.938C57.3883 117.938 57.5388 117.9 57.6733 117.827C57.751 117.786 57.8128 117.721 57.8485 117.641V117.588L59.1864 113.871L58.0184 113.436Z" fill="#2196F3"/>
<path d="M79.9187 127.829V131.11C79.9142 131.168 79.8946 131.223 79.862 131.27C79.8294 131.318 79.7849 131.356 79.7329 131.381C79.5937 131.454 79.4388 131.492 79.2816 131.492C79.1244 131.492 78.9696 131.454 78.8303 131.381C78.7777 131.357 78.7326 131.319 78.6999 131.271C78.6671 131.224 78.648 131.168 78.6445 131.11V127.829C78.8389 127.719 79.0584 127.662 79.2816 127.662C79.5049 127.662 79.7243 127.719 79.9187 127.829Z" fill="#2196F3"/>
<path d="M104.033 88.2334C104.033 87.2034 103.162 86.1097 101.331 84.8567C97.9327 82.5632 87.6913 77.1266 82.9396 74.3871C82.9387 74.377 82.9346 74.3674 82.9279 74.3598C82.9213 74.3521 82.9123 74.3468 82.9024 74.3446C79.2497 72.0351 78.5011 61.8575 75.974 53.4955C75.1139 50.6445 74.0574 49.0305 72.7885 48.2713C72.4912 48.0961 71.3975 47.4643 71.1533 47.3103C68.6739 45.7601 65.414 47.6236 61.3578 49.9384C57.6414 52.062 54.7002 54.7963 54.1161 62.038C53.7551 66.4499 54.1161 74.8755 54.955 81.2571C56.1973 91.9232 57.7264 91.9445 59.9403 93.7283C63.7576 96.8023 72.3478 101.119 75.9687 102.605C82.5361 105.297 87.9037 101.145 91.8961 99.0853C95.5786 97.1441 99.126 94.9571 102.514 92.5391C103.513 91.7799 104.033 91.0154 104.022 90.2084C104.028 89.8792 104.033 88.5678 104.033 88.2334Z" fill="#2196F3"/>
<path opacity="0.2" d="M104.033 88.2334C104.033 87.2034 103.162 86.1097 101.331 84.8567C97.9327 82.5632 87.6913 77.1266 82.9396 74.3871C82.9387 74.377 82.9346 74.3674 82.9279 74.3598C82.9213 74.3521 82.9123 74.3468 82.9024 74.3446C79.2497 72.0351 78.5011 61.8575 75.974 53.4955C75.1139 50.6445 74.0574 49.0305 72.7885 48.2713C72.4912 48.0961 71.3975 47.4643 71.1533 47.3103C68.6739 45.7601 65.414 47.6236 61.3578 49.9384C57.6414 52.062 54.7002 54.7963 54.1161 62.038C53.7551 66.4499 54.1161 74.8755 54.955 81.2571C56.1973 91.9232 57.7264 91.9445 59.9403 93.7283C63.7576 96.8023 72.3478 101.119 75.9687 102.605C82.5361 105.297 87.9037 101.145 91.8961 99.0853C95.5786 97.1441 99.126 94.9571 102.514 92.5391C103.513 91.7799 104.033 91.0154 104.022 90.2084C104.028 89.8792 104.033 88.5678 104.033 88.2334Z" fill="black"/>
<path d="M91.9226 97.0943C95.605 95.1531 99.1525 92.9661 102.541 90.5481C104.813 88.8279 104.606 87.0653 101.346 84.8567C96.7752 81.7933 80.3168 72.8845 80.3168 72.8845C80.3168 72.8845 57.3441 86.9485 58.3475 89.6031C59.3509 92.2577 71.4293 98.7561 75.9845 100.625C82.552 103.306 87.9195 99.1596 91.9226 97.0943Z" fill="#2196F3"/>
<g opacity="0.05">
<path opacity="0.05" d="M91.9226 97.0943C95.605 95.1531 99.1525 92.9661 102.541 90.5481C104.813 88.8279 104.606 87.0653 101.346 84.8567C96.7752 81.7933 80.3168 72.8845 80.3168 72.8845C80.3168 72.8845 57.3441 86.9485 58.3475 89.6031C59.3509 92.2577 71.4293 98.7561 75.9845 100.625C82.552 103.306 87.9195 99.1596 91.9226 97.0943Z" fill="black"/>
</g>
<path d="M72.661 48.1916C70.2029 46.8484 67.0068 48.6747 63.0567 50.9311C60.5243 52.3805 58.3634 54.0901 57.0574 57.3021L55.3638 56.2881C56.6751 53.1026 58.8307 51.3824 61.3525 49.9171C65.4087 47.6023 68.6685 45.7441 71.1479 47.2891L72.661 48.1916Z" fill="#2196F3"/>
<path opacity="0.6" d="M72.661 48.1916C70.2029 46.8484 67.0068 48.6747 63.0567 50.9311C60.5243 52.3805 58.3634 54.0901 57.0574 57.3021L55.3638 56.2881C56.6751 53.1026 58.8307 51.3824 61.3525 49.9171C65.4087 47.6023 68.6685 45.7441 71.1479 47.2891L72.661 48.1916Z" fill="white"/>
<path d="M63.0514 50.926C69.1251 47.4644 73.4149 45.0062 75.9739 53.5009C78.5011 61.8628 79.2497 72.0405 82.9024 74.35C82.9024 74.35 84.3836 74.1376 75.2944 81.2944C72.4009 83.572 68.9234 85.4355 66.5873 86.869C62.0745 89.6722 59.335 90.7978 58.8997 90.4208C56.5159 88.3608 55.2204 70.2779 55.8097 63.0362C56.3991 55.7945 59.3138 53.0602 63.0514 50.926Z" fill="#2196F3"/>
<path d="M78.9206 78.2842C78.2513 79.6878 77.4645 81.0323 76.5686 82.3032L77.2535 82.8713C77.2535 82.8713 78.9206 80.5777 78.9206 78.2842Z" fill="#263238"/>
<path d="M92.7243 117.142C92.7243 117.142 93.2181 122.871 94.0782 124.745C94.9946 126.871 96.1678 128.877 97.5716 130.718C97.9167 131.158 98.7024 131.981 98.9785 132.337C99.0455 132.407 99.0961 132.491 99.1267 132.584C99.1573 132.676 99.1671 132.774 99.1554 132.87C99.1437 132.966 99.1109 133.059 99.0592 133.141C99.0075 133.223 98.9382 133.293 98.8564 133.346C98.0813 134.015 94.9276 134.02 93.234 132.608C91.5404 131.195 90.1865 128.944 89.1937 127.829L87.8824 126.337C87.7206 126.152 87.6096 125.928 87.5603 125.687C87.511 125.446 87.525 125.196 87.601 124.962C87.6435 124.831 87.6912 124.672 87.7443 124.485C88.2434 122.807 87.4152 117.938 87.4152 117.938C89.0451 115.921 90.8343 116.68 92.7243 117.142Z" fill="#FFB573"/>
<path d="M87.378 126.693C87.3186 126.978 87.3332 127.275 87.4205 127.553C87.5692 127.951 88.6363 128.71 89.1885 129.018C89.8217 129.404 90.319 129.977 90.6113 130.659C91.2325 131.976 92.2253 133.084 93.4677 133.844C95.1651 134.672 97.0734 134.966 98.9414 134.688C101.262 134.391 101.516 133.043 101.516 133.043C101.516 133.043 101.702 131.774 101.139 131.545C100.577 131.317 87.378 126.693 87.378 126.693Z" fill="#263238"/>
<path d="M87.5692 122.754C87.5681 122.959 87.545 123.164 87.5002 123.364C87.3993 123.996 87.3197 124.389 87.24 125.111C87.1699 125.645 87.217 126.189 87.3781 126.704C88.0098 127.675 89.5973 128.068 90.4574 129.395C91.3175 130.723 92.3156 132.756 95.2993 133.51C98.2831 134.264 100.608 133.414 101.214 132.586C101.819 131.758 101.346 130.924 99.4723 129.783C97.4761 128.572 95.1878 125.493 95.1878 125.493C94.9595 125.185 94.7631 124.84 94.5614 124.511C94.3019 124.152 94.1011 123.754 93.9667 123.332C93.8565 122.884 93.8065 122.424 93.8181 121.962C93.8285 121.926 93.8285 121.887 93.8181 121.851C93.7883 121.825 93.7513 121.808 93.7119 121.803C92.5947 121.625 91.45 121.811 90.4468 122.334C90.3406 122.379 90.2462 122.448 90.1707 122.536C90.1173 122.616 90.0761 122.704 90.0486 122.796L89.799 123.507C89.7353 123.693 89.6451 123.906 89.4592 123.969C89.2734 124.033 89.0027 123.879 88.8222 123.72C88.6416 123.561 88.5355 123.189 88.339 123.03C88.2353 122.935 88.1139 122.862 87.9817 122.814C87.8496 122.767 87.7094 122.746 87.5692 122.754Z" fill="#2196F3"/>
<path opacity="0.5" d="M87.5692 122.754C87.5681 122.959 87.545 123.164 87.5002 123.364C87.3993 123.996 87.3197 124.389 87.24 125.111C87.1699 125.645 87.217 126.189 87.3781 126.704C88.0098 127.675 89.5973 128.068 90.4574 129.395C91.3175 130.723 92.3156 132.756 95.2993 133.51C98.2831 134.264 100.608 133.414 101.214 132.586C101.819 131.758 101.346 130.924 99.4723 129.783C97.4761 128.572 95.1878 125.493 95.1878 125.493C94.9595 125.185 94.7631 124.84 94.5614 124.511C94.3019 124.152 94.1011 123.754 93.9667 123.332C93.8565 122.884 93.8065 122.424 93.8181 121.962C93.8285 121.926 93.8285 121.887 93.8181 121.851C93.7883 121.825 93.7513 121.808 93.7119 121.803C92.5947 121.625 91.45 121.811 90.4468 122.334C90.3406 122.379 90.2462 122.448 90.1707 122.536C90.1173 122.616 90.0761 122.704 90.0486 122.796L89.799 123.507C89.7353 123.693 89.6451 123.906 89.4592 123.969C89.2734 124.033 89.0027 123.879 88.8222 123.72C88.6416 123.561 88.5355 123.189 88.339 123.03C88.2353 122.935 88.1139 122.862 87.9817 122.814C87.8496 122.767 87.7094 122.746 87.5692 122.754Z" fill="black"/>
<path d="M60.3173 74.3872C59.7864 76.9197 58.6714 84.2092 61.2888 87.4743C62.9984 89.598 64.1505 90.8191 69.38 93.4365C74.2538 95.8734 83.3325 99.8075 83.3325 99.8075C83.1042 101.836 82.5998 104.087 84.1501 109.629C85.1217 113.112 86.0136 115.156 87.2188 119.393C88.2435 120.088 92.1988 119.844 93.0589 118.74C93.0589 116.149 92.4324 96.4415 91.2803 93.8612C90.1282 91.281 76.4146 83.3438 76.4146 83.3438C76.4146 83.3438 75.2307 79.1389 75.9687 76.0596L60.3173 74.3872Z" fill="#455A64"/>
<path d="M106.178 111.371C106.178 111.371 106.799 117.296 107.574 119.207C108.395 121.371 109.477 123.427 110.797 125.328C111.121 125.785 111.859 126.64 112.135 127.011C112.198 127.085 112.244 127.171 112.269 127.264C112.295 127.357 112.3 127.455 112.284 127.55C112.268 127.646 112.231 127.736 112.175 127.816C112.12 127.895 112.048 127.961 111.965 128.01C111.158 128.647 108.009 128.509 106.38 127.022C104.75 125.536 103.497 123.226 102.557 122.069C102.079 121.485 101.638 120.932 101.315 120.524C101.16 120.331 101.059 120.101 101.02 119.858C100.981 119.614 101.005 119.364 101.092 119.133C101.139 119 101.198 118.846 101.262 118.66C101.83 117.009 100.343 112.417 100.343 112.417C102.084 110.484 104.309 110.84 106.178 111.371Z" fill="#FFB573"/>
<path d="M100.794 120.863C100.722 121.145 100.722 121.441 100.794 121.723C100.927 122.127 101.957 122.934 102.499 123.268C103.113 123.682 103.584 124.275 103.847 124.967C104.408 126.307 105.352 127.452 106.56 128.259C108.216 129.164 110.109 129.544 111.986 129.347C114.322 129.156 114.641 127.818 114.641 127.818C114.641 127.818 114.885 126.56 114.333 126.305C113.781 126.05 100.794 120.863 100.794 120.863Z" fill="#263238"/>
<path d="M101.161 116.935C101.15 117.141 101.118 117.346 101.065 117.545C100.932 118.166 100.837 118.559 100.731 119.276C100.634 119.805 100.656 120.349 100.794 120.869C101.384 121.867 102.95 122.329 103.746 123.693C104.543 125.058 105.456 127.139 108.402 128.02C111.349 128.902 113.711 128.169 114.354 127.367C114.996 126.566 114.561 125.711 112.735 124.484C110.797 123.189 108.652 120.009 108.652 120.009C108.434 119.69 108.254 119.34 108.068 119C107.829 118.628 107.65 118.222 107.537 117.795C107.445 117.343 107.416 116.88 107.452 116.42C107.465 116.384 107.465 116.344 107.452 116.308C107.439 116.294 107.424 116.282 107.407 116.274C107.389 116.265 107.37 116.261 107.351 116.26C106.244 116.027 105.09 116.159 104.065 116.637C103.956 116.678 103.858 116.744 103.778 116.829C103.721 116.905 103.677 116.989 103.645 117.078C103.555 117.312 103.459 117.545 103.364 117.779C103.268 118.013 103.199 118.166 103.008 118.225C102.817 118.283 102.552 118.113 102.382 117.943C102.212 117.774 102.116 117.413 101.93 117.237C101.723 117.04 101.447 116.931 101.161 116.935Z" fill="#2196F3"/>
<path opacity="0.5" d="M101.161 116.935C101.15 117.141 101.118 117.346 101.065 117.545C100.932 118.166 100.837 118.559 100.731 119.276C100.634 119.805 100.656 120.349 100.794 120.869C101.384 121.867 102.95 122.329 103.746 123.693C104.543 125.058 105.456 127.139 108.402 128.02C111.349 128.902 113.711 128.169 114.354 127.367C114.996 126.566 114.561 125.711 112.735 124.484C110.797 123.189 108.652 120.009 108.652 120.009C108.434 119.69 108.254 119.34 108.068 119C107.829 118.628 107.65 118.222 107.537 117.795C107.445 117.343 107.416 116.88 107.452 116.42C107.465 116.384 107.465 116.344 107.452 116.308C107.439 116.294 107.424 116.282 107.407 116.274C107.389 116.265 107.37 116.261 107.351 116.26C106.244 116.027 105.09 116.159 104.065 116.637C103.956 116.678 103.858 116.744 103.778 116.829C103.721 116.905 103.677 116.989 103.645 117.078C103.555 117.312 103.459 117.545 103.364 117.779C103.268 118.013 103.199 118.166 103.008 118.225C102.817 118.283 102.552 118.113 102.382 117.943C102.212 117.774 102.116 117.413 101.93 117.237C101.723 117.04 101.447 116.931 101.161 116.935Z" fill="black"/>
<path d="M60.7313 76.1229C60.2004 79.2076 74.6732 85.4246 74.6732 85.4246C76.6336 86.4355 78.6449 87.3446 80.6991 88.1482C86.64 90.5585 97.5397 93.6485 97.5397 93.6485C97.1407 95.3742 97.0794 97.1608 97.3592 98.9099C97.6831 100.922 97.8211 101.495 98.8617 106.136C99.6528 109.661 99.9235 111.291 100.614 113.781C101.92 114.009 105.392 113.903 106.454 113.053C106.252 110.123 106.926 90.909 105.753 88.3128C103.725 83.8265 81.9998 73.686 81.9998 73.686L60.7313 76.1229Z" fill="#455A64"/>
<path d="M87.7497 90.612L76.4147 83.3597C76.4147 83.3597 81.108 81.0608 81.9203 76.9197C81.914 78.1674 81.6329 79.3985 81.0971 80.5253C80.5612 81.6521 79.7836 82.647 78.8197 83.4393L87.7497 90.612Z" fill="#37474F"/>
<path d="M107.85 43.9709C107.651 43.2867 107.274 42.668 106.755 42.1789C106.237 41.6897 105.598 41.348 104.904 41.1889C104.701 41.132 104.485 41.1548 104.298 41.2526C104.142 41.3912 104.038 41.5782 104.001 41.7835C103.693 42.9037 103.343 44.008 102.939 45.0964C102.755 45.6382 102.542 46.1699 102.302 46.6892C102.233 46.8166 101.771 47.3794 101.739 47.4378C101.792 46.8555 101.775 46.269 101.686 45.691C101.656 45.4303 101.524 45.1919 101.319 45.0271C101.115 44.8623 100.854 44.7843 100.593 44.8097C100.364 44.8522 100.497 45.4044 100.237 46.3016C99.9077 47.4537 99.5254 48.2023 99.4882 49.4871C99.4722 49.9717 99.284 50.4348 98.9573 50.7931C97.3964 52.5027 93.0854 55.9483 90.0698 57.9764C88.339 56.3837 86.3534 53.4477 83.9377 50.4799C80.9858 46.8166 79.1595 45.5796 75.0077 45.6698L76.0695 52.7947C78.7931 56.1501 81.2194 58.3906 86.5392 63.859C87.7709 65.1279 88.7 65.6323 89.5336 65.7066C90.6538 65.8075 91.7103 64.9049 92.7191 64.0342C95.0285 62.0857 97.3168 60.063 99.4723 57.9499C102.419 55.067 106.252 51.5046 107.542 48.0961C108.096 46.7923 108.204 45.3424 107.85 43.9709Z" fill="#FFB573"/>
<path d="M74.3121 45.6964C75.8236 45.527 77.3535 45.6477 78.8196 46.0522C80.2318 46.5247 81.4105 47.2786 83.8633 50.2145C86.3161 53.1505 89.0663 56.6917 89.0663 56.6917C89.0663 56.6917 88.7371 59.925 84.288 62.2292L74.8006 53.1664L74.3121 45.6964Z" fill="#2196F3"/>
<path opacity="0.3" d="M74.3121 45.6964C75.8236 45.527 77.3535 45.6477 78.8196 46.0522C80.2318 46.5247 81.4105 47.2786 83.8633 50.2145C86.3161 53.1505 89.0663 56.6917 89.0663 56.6917C89.0663 56.6917 88.7371 59.925 84.288 62.2292L74.8006 53.1664L74.3121 45.6964Z" fill="black"/>
<path d="M67.6598 45.9723C67.6598 45.9723 62.6426 46.6519 61.2888 47.3898L58.8997 59.3408L60.5508 68.584L59.5314 78.9847C62.6798 82.4038 80.577 81.2145 82.5095 73.9463C82.5095 73.9463 81.5857 57.302 81.3839 53.8139C81.161 50.0657 78.5011 46.0626 74.7263 45.6697L67.6598 45.9723Z" fill="#F0F0F0"/>
<path d="M80.5508 32.029C82.0401 30.3673 81.9004 27.813 80.2388 26.3237C78.5772 24.8343 76.0229 24.974 74.5335 26.6356C73.0442 28.2973 73.1839 30.8516 74.8455 32.341C76.5071 33.8303 79.0615 33.6906 80.5508 32.029Z" fill="#263238"/>
<path d="M62.3241 28.707C62.6567 28.3538 63.0908 28.1126 63.5665 28.0168L61.9419 27.1567C62.0159 26.9962 62.1218 26.8524 62.2533 26.7342C62.3847 26.616 62.5388 26.5259 62.7063 26.4692C62.8737 26.4126 63.0509 26.3907 63.2271 26.4048C63.4033 26.4189 63.5748 26.4688 63.7311 26.5515C64.0361 26.7215 64.2676 26.9981 64.3812 27.3283C64.4949 27.6584 64.4827 28.0189 64.3469 28.3407L64.9522 34.632L65.4831 34.5736L65.7273 38.2369L65.8122 41.7569C64.3416 41.7569 63.232 39.8191 62.3666 34.9028C61.6658 31.2023 61.4747 29.6095 62.3241 28.707Z" fill="#263238"/>
<path d="M65.5946 35.2002C65.2017 35.4391 64.6389 34.6692 64.1505 34.1861C63.662 33.703 62.0852 33.0022 61.3048 34.6639C60.5243 36.3257 61.8357 38.4653 62.9719 39.1183C64.4425 39.9625 65.4778 39.3254 65.4778 39.3254V47.1564C65.4778 47.1564 66.9537 49.6889 70.9834 49.9225C74.8113 50.1454 74.1689 47.7351 72.9 46.206V43.8541C73.5586 44.0144 74.2302 44.1157 74.9068 44.1567C76.5633 44.2151 77.9755 43.87 78.91 40.7748C79.6132 38.2524 79.909 35.6338 79.786 33.0181C79.7907 31.3541 79.6629 29.6924 79.4037 28.0487C78.671 23.5996 71.5249 24.0456 67.8297 26.4029C64.1346 28.7601 65.5946 35.2002 65.5946 35.2002Z" fill="#FFB573"/>
<path d="M64.1504 34.186C63.4708 33.5755 64.3097 27.9956 64.3097 27.9956C64.3097 27.9956 63.6142 25.8719 64.9415 24.4756C66.2687 23.0793 68.8649 23.2916 70.7815 23.212C73.1081 23.2104 75.4098 22.7334 77.5454 21.8104C80.2265 20.6264 80.4283 20.4884 80.7681 21.667C80.9782 22.354 81.0504 23.0757 80.9804 23.7907C80.9489 24.4323 80.8726 25.071 80.7521 25.702C80.5473 26.5031 80.1582 27.2453 79.6158 27.8695C79.0734 28.4936 78.3928 28.9824 77.6281 29.297C76.8633 29.6115 76.0357 29.7431 75.2111 29.6812C74.3866 29.6194 73.5879 29.3657 72.8787 28.9406C72.6527 29.3465 72.3122 29.6769 71.8995 29.8903C71.4868 30.1037 71.0204 30.1907 70.5585 30.1405C69.6386 30.0362 68.7487 29.7492 67.9411 29.2963C67.9411 31.4996 67.0917 33.602 66.2422 35.6354C65.7856 36.7451 64.4902 34.4887 64.1504 34.186Z" fill="#263238"/>
<path d="M72.884 43.8541C72.884 43.8541 69.364 43.1692 68.1323 42.5215C67.4053 42.1513 66.8089 41.5678 66.4227 40.8491C66.6104 41.5687 66.9428 42.2426 67.3996 42.8294C68.3022 43.9709 72.8893 44.7885 72.8893 44.7885L72.884 43.8541Z" fill="#F28F8F"/>
<path d="M72.4221 34.9186C72.425 35.0183 72.4081 35.1176 72.3726 35.2108C72.337 35.304 72.2834 35.3892 72.2149 35.4617C72.1463 35.5342 72.0642 35.5925 71.9731 35.6332C71.8821 35.6739 71.7839 35.6963 71.6842 35.699C71.4818 35.6948 71.2893 35.6112 71.1482 35.4661C71.0071 35.321 70.9288 35.1262 70.9303 34.9239C70.9215 34.8206 70.9344 34.7167 70.9679 34.6187C71.0014 34.5206 71.0549 34.4306 71.125 34.3543C71.1952 34.278 71.2804 34.2171 71.3752 34.1755C71.4701 34.1338 71.5726 34.1123 71.6762 34.1123C71.7798 34.1123 71.8823 34.1338 71.9772 34.1755C72.072 34.2171 72.1572 34.278 72.2274 34.3543C72.2975 34.4306 72.351 34.5206 72.3845 34.6187C72.418 34.7167 72.4309 34.8206 72.4221 34.9239V34.9186Z" fill="#263238"/>
<path d="M71.5196 31.9932L69.9268 32.8798C69.8124 32.6624 69.786 32.4093 69.8533 32.1731C69.9205 31.9368 70.0761 31.7355 70.2878 31.6109C70.393 31.5516 70.5092 31.5144 70.6293 31.5016C70.7494 31.4888 70.8708 31.5006 70.9861 31.5364C71.1015 31.5722 71.2083 31.6312 71.3 31.7097C71.3917 31.7883 71.4664 31.8847 71.5196 31.9932Z" fill="#263238"/>
<path d="M71.7638 39.5591L73.6539 40.2546C73.6138 40.3812 73.5487 40.4984 73.4623 40.5992C73.3759 40.7 73.27 40.7824 73.1511 40.8413C73.0321 40.9003 72.9025 40.9347 72.77 40.9424C72.6374 40.9502 72.5047 40.9311 72.3797 40.8864C72.1264 40.7863 71.9213 40.5928 71.8066 40.3457C71.692 40.0987 71.6767 39.8171 71.7638 39.5591Z" fill="#F28F8F"/>
<path d="M78.6286 32.8907L77.1686 31.7811C77.2362 31.6823 77.3232 31.5983 77.4244 31.5342C77.5256 31.4701 77.6387 31.4274 77.757 31.4085C77.8752 31.3896 77.9961 31.395 78.1122 31.4244C78.2282 31.4538 78.3371 31.5065 78.4322 31.5794C78.6271 31.7309 78.7562 31.9516 78.7928 32.1957C78.8294 32.4399 78.7706 32.6888 78.6286 32.8907Z" fill="#263238"/>
<path d="M78.1931 34.7223C78.1967 34.8222 78.1803 34.9218 78.145 35.0153C78.1097 35.1088 78.0562 35.1943 77.9875 35.267C77.9188 35.3396 77.8364 35.3978 77.745 35.4383C77.6536 35.4788 77.5551 35.5007 77.4552 35.5027C77.2528 35.4986 77.0603 35.4149 76.9192 35.2698C76.7781 35.1247 76.6998 34.93 76.7013 34.7276C76.6925 34.6243 76.7054 34.5204 76.7389 34.4224C76.7724 34.3243 76.8259 34.2343 76.896 34.158C76.9662 34.0817 77.0514 34.0208 77.1462 33.9792C77.2411 33.9375 77.3436 33.916 77.4472 33.916C77.5508 33.916 77.6533 33.9375 77.7482 33.9792C77.843 34.0208 77.9282 34.0817 77.9984 34.158C78.0685 34.2343 78.122 34.3243 78.1555 34.4224C78.189 34.5204 78.2019 34.6243 78.1931 34.7276V34.7223Z" fill="#263238"/>
<path d="M74.3971 33.873L74.6679 38.354L77.0039 37.5417L74.3971 33.873Z" fill="#F28F8F"/>
<path d="M50.0546 68.8656C50.8351 64.5599 53.771 56.9253 54.9815 53.469C56.7441 48.505 58.9315 47.4856 61.9684 47.1511C63.2107 48.3457 63.6248 53.2991 61.1136 58.6508C59.919 61.5867 57.3653 70.6176 57.3653 70.6176C57.5511 71.3609 61.9365 80.3228 63.4921 82.7597C63.7879 83.1979 64.2334 83.5132 64.7451 83.6463C66.1573 84.0498 67.3094 85.0161 68.4615 85.6744C69.3693 86.2053 70.0277 86.2053 69.9905 86.4495C69.9533 86.6938 69.5498 87.3309 68.5995 87.2937C67.9285 87.2209 67.2678 87.0731 66.6298 86.853C67.3345 87.7663 68.1847 88.5573 69.1464 89.1944C71.3709 90.6916 71.4027 92.1197 67.9412 92.9639C65.775 93.4948 63.6938 92.6931 60.9278 88.7537C59.9532 87.3588 59.0512 85.9146 58.2254 84.4268C56.2292 80.8112 54.2223 78.3478 52.9162 75.9321C50.3838 71.4193 49.7307 70.5221 50.0546 68.8656Z" fill="#FFB573"/>
<path d="M62.1914 47.0027C62.1914 47.0027 59.6589 46.7956 57.8697 47.9796C56.0806 49.1635 55.3532 51.4199 54.1162 54.7116C52.8791 58.0033 51.005 63.1425 51.005 63.1425C51.005 63.1425 53.2349 66.9864 58.8148 66.328C58.8148 66.328 62.0321 56.9414 62.6161 55.5823C63.2001 54.2231 63.8001 49.7847 62.1914 47.0027Z" fill="#2196F3"/>
<path opacity="0.3" d="M62.1914 47.0027C62.1914 47.0027 59.6589 46.7956 57.8697 47.9796C56.0806 49.1635 55.3532 51.4199 54.1162 54.7116C52.8791 58.0033 51.005 63.1425 51.005 63.1425C51.005 63.1425 53.2349 66.9864 58.8148 66.328C58.8148 66.328 62.0321 56.9414 62.6161 55.5823C63.2001 54.2231 63.8001 49.7847 62.1914 47.0027Z" fill="black"/>
</g>
<defs>
<clipPath id="clip0_573_128">
<rect width="134" height="134" fill="white"/>
</clipPath>
</defs>
</svg>
