<svg width="134" height="134" viewBox="0 0 134 134" fill="none" xmlns="http://www.w3.org/2000/svg">
<path d="M48.2431 28.9549C57.7094 27.3385 64.4649 20.6493 63.3319 14.0141C62.1989 7.37897 53.6065 3.31046 44.1402 4.92687C34.6739 6.54328 27.9185 13.2325 29.0514 19.8677C30.1844 26.5028 38.7768 30.5713 48.2431 28.9549Z" fill="#2196F3"/>
<path opacity="0.3" d="M48.2431 28.9549C57.7094 27.3385 64.4649 20.6493 63.3319 14.0141C62.1989 7.37897 53.6065 3.31046 44.1402 4.92687C34.6739 6.54328 27.9185 13.2325 29.0514 19.8677C30.1844 26.5028 38.7768 30.5713 48.2431 28.9549Z" fill="white"/>
<path d="M77.1526 17.3143C78.2018 19.4791 76.5231 22.4308 73.4316 23.9101C70.34 25.3894 67.0001 24.8264 65.9649 22.6616C64.9298 20.4968 66.5979 17.5416 69.686 16.0658C72.7741 14.5899 76.1035 15.1635 77.1526 17.3143Z" fill="#2196F3"/>
<path opacity="0.5" d="M77.1526 17.3143C78.2018 19.4791 76.5231 22.4308 73.4316 23.9101C70.34 25.3894 67.0001 24.8264 65.9649 22.6616C64.9298 20.4968 66.5979 17.5416 69.686 16.0658C72.7741 14.5899 76.1035 15.1635 77.1526 17.3143Z" fill="white"/>
<path d="M82.6817 25.8792C82.9825 27.1767 81.72 28.5756 79.8664 29.0022C78.0129 29.4289 76.2677 28.7224 75.9705 27.4215C75.6732 26.1205 76.9322 24.7251 78.7683 24.2984C80.6043 23.8718 82.3984 24.5782 82.6817 25.8792Z" fill="#2196F3"/>
<path opacity="0.6" d="M82.6817 25.8792C82.9825 27.1767 81.72 28.5756 79.8664 29.0022C78.0129 29.4289 76.2677 28.7224 75.9705 27.4215C75.6732 26.1205 76.9322 24.7251 78.7683 24.2984C80.6043 23.8718 82.3984 24.5782 82.6817 25.8792Z" fill="white"/>
<path d="M42.9075 27.0158C42.6907 27.0158 42.4738 27.0158 42.2605 26.9843C41.6368 26.9666 41.0346 26.7524 40.5399 26.3723C40.2534 26.1191 40.0611 25.7765 39.9943 25.4001C39.5991 25.4001 39.2039 25.3721 38.8052 25.3511C37.9309 25.2987 37.0251 25.2007 36.3886 24.6132C36.1978 24.4326 36.0445 24.216 35.9377 23.9759C35.8309 23.7358 35.7726 23.477 35.7661 23.2143C35.4104 23.123 35.0795 22.9535 34.7976 22.7182C34.5156 22.4828 34.2898 22.1876 34.1364 21.8539C34.0266 21.5628 33.9799 21.2518 33.9992 20.9413C34.0185 20.6309 34.1034 20.328 34.2483 20.0528C33.8651 19.7606 33.5228 19.4183 33.2306 19.0351C32.611 18.2003 32.2885 17.1822 32.3143 16.1429C32.1394 16.0612 31.9992 15.9199 31.9191 15.7442C31.7792 15.3944 31.9576 15.0028 32.4227 14.6216C32.5172 14.5411 32.6186 14.4607 32.7165 14.3837C32.9947 13.7783 33.3992 13.2394 33.9029 12.8033C34.4065 12.3672 34.9977 12.0439 35.6367 11.8552C36.6859 11.5545 37.7805 11.6384 38.8437 11.7223H38.8962C39.6717 11.5778 40.4554 11.4809 41.2428 11.4321C41.6838 11.3297 42.1381 11.2966 42.5892 11.3341C43.044 11.1252 43.4333 10.7963 43.7154 10.3829C43.8574 10.16 43.9813 9.92609 44.0861 9.68344C44.1945 9.42362 44.3243 9.17329 44.4743 8.93502C45.1248 7.95929 46.3873 7.40323 48.2338 7.28082C50.4231 7.14093 52.1962 7.51864 53.5042 8.40344C53.9984 8.73397 54.4207 9.16103 54.7457 9.65895C55.4011 9.69597 56.0494 9.81343 56.6762 10.0087C57.561 10.264 59.6209 11.0404 59.6104 12.7295C59.5709 13.266 59.4094 13.7863 59.1382 14.2508L58.4073 15.7547C58.4447 15.9458 58.46 16.1406 58.4528 16.3352C58.5923 16.3924 58.7279 16.459 58.8585 16.5345C59.453 16.8843 60.0685 17.5103 60.0195 18.2832C59.9881 18.7868 59.6698 19.2729 59.0928 19.759C58.3628 20.3499 57.534 20.8069 56.6447 21.109C56.3635 21.6504 56.0359 22.1664 55.6655 22.6512C54.9485 23.5885 53.7525 24.7986 52.1262 25.2357C51.0978 25.5214 50 25.4154 49.0452 24.9384C48.7339 25.1448 48.4227 25.3266 48.1394 25.4805C46.2509 26.5017 44.5057 27.0158 42.9075 27.0158ZM40.3055 25.4001C40.3704 25.6858 40.5233 25.9439 40.7427 26.138C41.1884 26.4763 41.7291 26.6659 42.2885 26.6801C43.9951 26.834 45.9046 26.3303 47.968 25.2147C48.2058 25.0853 48.4646 24.9384 48.7234 24.7706C48.4375 24.5856 48.1816 24.358 47.9645 24.0956C47.8449 23.9608 47.7576 23.8006 47.7092 23.627C47.2511 23.6969 46.7894 23.7494 46.3278 23.7878C45.6084 24.1184 44.8489 24.3535 44.0686 24.4873C43.7038 24.7205 43.3114 24.9072 42.9005 25.0434C42.0599 25.2989 41.184 25.4193 40.3055 25.4001ZM40.8511 24.3229C40.6577 24.4137 40.4967 24.5613 40.3895 24.7461C40.3305 24.8541 40.2947 24.9732 40.2846 25.0958C41.1381 25.1113 41.9889 24.9933 42.8061 24.7461C42.9495 24.6971 43.0963 24.6412 43.2467 24.5747C42.4395 24.6367 41.6278 24.5514 40.8511 24.3229ZM36.0774 23.3087C36.1104 23.7213 36.2962 24.1066 36.5985 24.3894C37.158 24.907 37.9974 24.9944 38.8227 25.0434C39.2109 25.0643 39.5956 25.0853 39.9768 25.0923C39.9871 24.9193 40.0361 24.7508 40.1202 24.5992C40.2052 24.4397 40.3247 24.3011 40.4699 24.1935C40.3335 24.1411 40.2006 24.0851 40.0712 24.0222V24.0676C40.0372 24.1807 39.975 24.2832 39.8907 24.3658C39.8063 24.4483 39.7024 24.5082 39.5886 24.5398C39.4333 24.5901 39.2682 24.6027 39.1071 24.5765C38.9459 24.5504 38.7933 24.4862 38.6618 24.3894C38.3316 24.0933 38.109 23.696 38.0288 23.2598C37.6157 23.3664 37.1892 23.4123 36.7628 23.3962C36.5322 23.3868 36.3029 23.3576 36.0774 23.3087ZM49.3075 24.7426C50.1615 25.1221 51.121 25.1925 52.0213 24.9419C53.5636 24.5293 54.7072 23.3682 55.3962 22.4694C55.69 22.084 55.9565 21.6785 56.1936 21.2558C55.7879 21.3817 55.3752 21.4902 54.9555 21.5811C54.367 22.0722 53.6708 22.4173 52.9236 22.5883C52.2598 22.7675 51.5844 22.9007 50.9022 22.987C50.7918 23.1856 50.6691 23.3771 50.535 23.5605C50.1886 24.0149 49.7746 24.4136 49.3075 24.7426ZM48.0135 23.5745C48.0532 23.6959 48.1175 23.8078 48.2023 23.9033C48.4274 24.1747 48.6985 24.4043 49.0032 24.5817C49.4928 24.2522 49.9262 23.846 50.2867 23.3787C50.3706 23.2668 50.4476 23.1513 50.521 23.0289L49.86 23.0919C49.259 23.3038 48.6413 23.4653 48.0135 23.5745ZM38.3331 23.1723C38.3985 23.5463 38.5839 23.8888 38.8612 24.1481C38.9534 24.2133 39.0595 24.2564 39.1711 24.274C39.2827 24.2916 39.3968 24.2832 39.5047 24.2495C39.5694 24.2313 39.6288 24.1976 39.6775 24.1513C39.7263 24.105 39.763 24.0474 39.7845 23.9837C39.7951 23.9484 39.8022 23.912 39.8054 23.8753C39.4882 23.7034 39.1894 23.4995 38.9136 23.2668C38.8262 23.1933 38.7423 23.1164 38.6618 23.0394C38.5429 23.0884 38.431 23.1304 38.3331 23.1723ZM41.4387 24.1376C42.2841 24.3026 43.1521 24.3156 44.0021 24.176C44.1233 24.0949 44.24 24.0073 44.3519 23.9137H44.2434C43.481 23.9522 42.6942 23.9907 41.9353 24.0641C41.7637 24.0781 41.5932 24.1026 41.4247 24.1376H41.4387ZM44.831 23.8893L44.6736 24.0396C44.8799 23.9872 45.0898 23.9312 45.2926 23.8648L44.831 23.8893ZM40.1202 23.6864C40.3605 23.8055 40.6095 23.906 40.8651 23.9872C41.2022 23.8617 41.5555 23.7852 41.9143 23.7599C42.6767 23.6864 43.4706 23.648 44.2365 23.613L44.7086 23.5885C44.8364 23.4472 44.9533 23.2964 45.0583 23.1374C43.5803 23.083 42.1004 23.1216 40.6273 23.2528C40.5447 23.249 40.4621 23.2619 40.3846 23.2908C40.3071 23.3196 40.2362 23.3638 40.1761 23.4206C40.1288 23.5011 40.1046 23.5931 40.1062 23.6864H40.1202ZM45.4185 23.1444C45.3287 23.2908 45.2306 23.4321 45.1248 23.5675C45.5025 23.5465 45.8802 23.5221 46.2544 23.4871C46.4712 23.3892 46.6775 23.2842 46.8804 23.1688C46.4327 23.1688 45.9886 23.1688 45.5444 23.1478L45.4185 23.1444ZM38.9486 22.8891L39.1095 23.0289C39.3274 23.216 39.5615 23.3833 39.8089 23.529C39.8195 23.4289 39.8543 23.3329 39.9104 23.2493C39.992 23.152 40.0944 23.0743 40.21 23.0216C40.3255 22.969 40.4514 22.9428 40.5783 22.945C42.1226 22.8117 43.6737 22.7743 45.2227 22.8331C45.2961 22.6954 45.3569 22.5515 45.4045 22.4029C45.0777 22.5058 44.7394 22.5681 44.3973 22.5883C42.819 22.7296 41.2285 22.6401 39.676 22.3225C39.4512 22.5388 39.2024 22.7289 38.9346 22.8891H38.9486ZM47.4644 23.1723L47.412 23.2073L47.0902 23.4031C47.3035 23.3787 47.5134 23.3472 47.7232 23.3122C47.7348 23.2641 47.7512 23.2172 47.7722 23.1723H47.4644ZM48.1639 23.1723C48.138 23.1971 48.1156 23.2254 48.0974 23.2563L48.5451 23.1653L48.1639 23.1723ZM36.1018 22.9975C36.3314 23.0515 36.5656 23.0832 36.8013 23.0919C37.2005 23.1079 37.5999 23.0655 37.9869 22.966C37.9134 22.6407 37.84 22.2665 37.777 21.8923L37.7141 21.7839C37.3644 21.665 37.0391 21.5391 36.7069 21.3992C36.3662 21.8457 36.1577 22.3789 36.1053 22.938C36.1053 22.938 36.0704 22.973 36.0704 22.994L36.1018 22.9975ZM34.4861 20.2346C34.3697 20.4662 34.3024 20.7193 34.2886 20.9781C34.2747 21.2369 34.3146 21.4958 34.4057 21.7385C34.5352 22.0207 34.7246 22.2714 34.9608 22.4731C35.1969 22.6748 35.4741 22.8227 35.7731 22.9065C35.8246 22.316 36.0375 21.751 36.3886 21.2733C36.2347 21.2069 36.0879 21.1369 35.9375 21.0635C35.4312 20.8287 34.9456 20.5514 34.4861 20.2346ZM38.1722 22.5079C38.1967 22.6303 38.2247 22.7492 38.2492 22.8576L38.417 22.7911C38.3331 22.7107 38.2492 22.6163 38.1722 22.5079ZM45.5619 22.8331C46.1564 22.8331 46.758 22.8576 47.3595 22.8576C47.977 22.4452 48.5554 21.977 49.0871 21.4587C48.8177 21.4092 48.5515 21.3438 48.2898 21.2628C47.7352 21.0967 47.2084 20.8492 46.7265 20.5284C46.7205 20.8428 46.645 21.1521 46.5053 21.4338C46.3656 21.7156 46.1653 21.963 45.9186 22.1581L45.7717 22.256C45.7208 22.4627 45.6505 22.6641 45.5619 22.8576V22.8331ZM49.4718 21.5146C48.9854 22.0038 48.4603 22.4529 47.9016 22.8576H48.0065C48.2146 22.6965 48.4522 22.5777 48.7059 22.5079C49.4741 22.272 50.2568 22.0863 51.0491 21.9518C51.1365 21.7385 51.217 21.5146 51.2974 21.2838C50.7215 21.5264 50.0907 21.6086 49.4718 21.5216V21.5146ZM50.9022 22.2805C50.187 22.4065 49.4803 22.5771 48.7864 22.7911L48.643 22.8436C49.0277 22.8436 49.4089 22.8121 49.7936 22.7841C50.1738 22.6448 50.5431 22.4777 50.8987 22.284L50.9022 22.2805ZM38.1372 21.9308C38.3033 22.1933 38.4942 22.4392 38.7073 22.6652C38.9215 22.546 39.123 22.4054 39.3088 22.2456C38.9136 22.1581 38.5219 22.0462 38.1372 21.9273V21.9308ZM51.14 22.5079L51.0701 22.6547C51.6667 22.5752 52.2577 22.4584 52.8397 22.305C53.3287 22.1797 53.7991 21.9904 54.2386 21.742C53.672 21.8469 53.1055 21.9378 52.5389 22.0287L51.7031 22.1616L51.5177 22.2875C51.3953 22.3575 51.2729 22.4344 51.14 22.5079ZM39.9313 22.0602C41.393 22.3411 42.8868 22.4165 44.3693 22.284C44.7578 22.2676 45.1403 22.1823 45.499 22.0322C45.5717 21.5401 45.5846 21.0411 45.5374 20.5459C45.5374 20.378 45.5374 20.1962 45.5129 20.0423C45.2502 20.2836 44.9517 20.483 44.6281 20.6333C44.1137 20.8525 43.5589 20.961 42.9998 20.952C42.4407 20.943 41.8898 20.8165 41.3827 20.5809C41.2567 20.5635 41.1317 20.539 41.0085 20.5074L40.8861 20.7208C40.617 21.2003 40.2969 21.6494 39.9313 22.0602ZM38.0078 21.5636C38.5238 21.7312 39.0479 21.8724 39.5781 21.9868C39.986 21.5593 40.3385 21.0823 40.6273 20.5669L40.7112 20.42C40.3618 20.2967 40.0319 20.1235 39.732 19.9059C39.0991 19.9994 38.4823 20.1807 37.8994 20.4445C37.9134 20.8327 37.9554 21.2069 38.0078 21.5636ZM51.6471 21.1754C51.6296 21.2174 51.6156 21.2628 51.5982 21.3083C51.5282 21.5076 51.4618 21.7 51.3883 21.8888L51.5807 21.8574C51.817 21.6828 52.0318 21.4809 52.2207 21.2558L51.6471 21.1754ZM45.8172 19.738V19.8464C45.8172 20.0738 45.8172 20.3011 45.8417 20.5459C45.8767 20.973 45.8767 21.4023 45.8417 21.8294C46.0405 21.6321 46.196 21.3955 46.2983 21.1348C46.4007 20.8741 46.4476 20.5949 46.4362 20.3151C46.2201 20.1355 46.0294 19.9272 45.8697 19.6961L45.8172 19.738ZM52.5844 21.2908C52.4628 21.4594 52.3258 21.6162 52.1752 21.7594L52.4935 21.7105C53.2838 21.5846 54.0567 21.4622 54.8051 21.3013C54.8261 21.3013 54.8436 21.2628 54.8646 21.2418C54.4921 21.3106 54.1138 21.3434 53.735 21.3398C53.3503 21.3398 52.9656 21.3258 52.5844 21.2908ZM36.8817 21.1509L37.4868 21.3852C37.4028 21.1964 37.3294 21.004 37.2629 20.8117C37.1261 20.9133 36.9985 21.0268 36.8817 21.1509ZM49.7516 21.2384C50.1851 21.2673 50.6199 21.2053 51.0281 21.0565L50.6784 20.9796C50.4825 20.9341 50.2972 20.8816 50.1153 20.8292C50.0011 20.9667 49.8798 21.1031 49.7516 21.2384ZM46.7265 20.1542C47.2205 20.5236 47.7757 20.803 48.3667 20.9796C48.6862 21.0809 49.0138 21.1546 49.3459 21.1999C49.4998 21.046 49.6467 20.8851 49.7936 20.7243C48.9138 20.4501 48.1118 19.9706 47.4539 19.3254C47.1445 19.0052 46.884 18.641 46.681 18.2447C46.612 18.4337 46.5314 18.6182 46.4397 18.7973C46.5446 19.091 46.6253 19.3927 46.681 19.6996C46.7074 19.8498 46.7226 20.0017 46.7265 20.1542ZM55.3612 21.109L55.3087 21.1789C55.6841 21.088 56.0478 20.9831 56.3999 20.8641C56.841 19.9977 57.1622 19.0753 57.3546 18.1223C57.2166 18.2179 57.0703 18.301 56.9175 18.3706C57.0006 18.6854 57.0161 19.0143 56.9631 19.3356C56.91 19.6568 56.7896 19.9632 56.6097 20.2346C56.2991 20.6535 55.861 20.9603 55.3612 21.109ZM52.7697 20.99C53.088 21.0145 53.4097 21.0285 53.7315 21.0285C54.2144 21.0347 54.6958 20.9735 55.1619 20.8467C55.1898 20.7977 55.2178 20.7487 55.2423 20.6963C55.3832 20.381 55.4542 20.039 55.4506 19.6938C55.447 19.3485 55.3688 19.0081 55.2213 18.6958C54.6538 18.6776 54.0893 18.605 53.5356 18.479L53.2349 19.0281C53.1404 19.1995 53.046 19.3778 52.9481 19.5457C52.9864 19.6779 53.0099 19.814 53.018 19.9514C53.035 20.3163 52.9489 20.6787 52.7697 20.997V20.99ZM34.6295 19.9409C35.0836 20.2575 35.5646 20.5336 36.0669 20.7662C36.2382 20.8502 36.4166 20.9271 36.581 21.0005C36.7483 20.81 36.9386 20.6408 37.1475 20.4969H37.172C36.9994 19.8415 36.9461 19.1603 37.0146 18.486C36.4515 18.59 35.9144 18.8039 35.4339 19.1155C35.1087 19.3373 34.8344 19.6258 34.6295 19.9619V19.9409ZM51.8919 20.8816L52.434 20.9481C52.6263 20.6534 52.7228 20.3065 52.7103 19.9549V19.9269C52.4887 20.2919 52.2128 20.6209 51.8919 20.9026V20.8816ZM37.5532 20.6088C37.5742 20.6788 37.5987 20.7522 37.6232 20.8222C37.6232 20.7417 37.6232 20.6613 37.6232 20.5774L37.5532 20.6088ZM50.3636 20.5529L50.7728 20.6613C51.0001 20.7138 51.2275 20.7627 51.4723 20.8047C51.7054 20.1332 51.9316 19.4559 52.1507 18.7728C52.0738 18.6958 51.9969 18.6224 51.9199 18.5595C51.4058 19.2659 50.8987 19.9409 50.3531 20.5739L50.3636 20.5529ZM57.7288 17.8145C57.5609 18.8118 57.2573 19.7813 56.8266 20.6963C57.5753 20.4127 58.2732 20.01 58.8934 19.5037C59.4145 19.0736 59.6803 18.6609 59.7048 18.2447C59.7468 17.6117 59.2117 17.0731 58.7011 16.7794C58.606 16.7248 58.5079 16.6758 58.4073 16.6325C58.4073 16.6779 58.3863 16.7269 58.3723 16.7724C58.256 17.18 58.0297 17.5478 57.7183 17.8355L57.7288 17.8145ZM55.5605 18.6749C55.8254 19.3133 55.8367 20.0288 55.592 20.6753C55.9013 20.5367 56.1689 20.3197 56.3684 20.0458C56.5193 19.8168 56.6213 19.5592 56.6683 19.289C56.7152 19.0189 56.706 18.742 56.6412 18.4755C56.5118 18.5175 56.3789 18.556 56.246 18.5874C56.0175 18.643 55.7847 18.6793 55.5501 18.6958L55.5605 18.6749ZM42.3235 20.5389C43.0539 20.7109 43.8205 20.6384 44.5057 20.3326C44.889 20.1538 45.2344 19.9033 45.5234 19.5946C45.5295 19.4177 45.547 19.2413 45.5759 19.0666C45.5584 19.0106 45.5374 18.9546 45.5234 18.8987C45.5022 18.8312 45.4858 18.7622 45.4745 18.6924C45.1562 18.8008 44.8345 18.9022 44.5127 18.9931C44.0693 19.7013 43.387 20.2273 42.5892 20.476C42.4989 20.5093 42.4066 20.5374 42.313 20.5599L42.3235 20.5389ZM52.3676 19.0421C52.2137 19.5247 52.0563 20.0003 51.8919 20.476C52.1779 20.1847 52.4237 19.8565 52.6229 19.5002C52.5544 19.3432 52.465 19.1961 52.3571 19.0631L52.3676 19.0421ZM46.9958 18.1118C47.177 18.4734 47.413 18.8049 47.6952 19.0945C48.353 19.7331 49.1577 20.2003 50.0384 20.455C50.6138 19.7847 51.1532 19.0842 51.6541 18.3566C51.5492 18.2867 51.4548 18.2237 51.3708 18.1748C50.8937 18.0534 50.4383 17.8588 50.0209 17.5977C49.5474 17.4586 49.059 17.3764 48.566 17.3529L48.3912 17.4438C47.9226 17.7131 47.4574 17.9334 46.9853 18.1328L46.9958 18.1118ZM37.3469 18.4091C37.2755 19.042 37.317 19.6826 37.4693 20.3011L37.5847 20.2381C37.5501 19.6141 37.5677 18.9882 37.6371 18.3671C37.5287 18.3986 37.4343 18.4126 37.3364 18.4301L37.3469 18.4091ZM41.4561 20.2591C41.8075 20.3023 42.164 20.2762 42.5053 20.1822C43.1108 20.0006 43.6441 19.6336 44.0301 19.133C43.2242 19.3449 42.4068 19.5107 41.582 19.6296H41.4526L41.1973 20.1297L41.4561 20.2591ZM37.9589 18.3286C37.889 18.9087 37.8668 19.4936 37.8924 20.0773C38.3848 19.865 38.9 19.7102 39.4277 19.6156L39.2843 19.4757C38.9397 19.1355 38.6516 18.7423 38.431 18.3112L37.9589 18.3286ZM40.5573 19.759C40.6832 19.8429 40.8091 19.9234 40.935 19.9933C40.991 19.8919 41.0435 19.7905 41.0959 19.6891L40.9211 19.7135L40.5573 19.759ZM46.09 19.4093C46.1902 19.5652 46.3075 19.7095 46.4397 19.8394C46.4397 19.808 46.4397 19.7765 46.4397 19.745C46.4023 19.5445 46.3544 19.346 46.2963 19.1505L46.09 19.4093ZM32.6221 16.2618C32.6236 17.1901 32.9226 18.0934 33.4754 18.8392C33.7408 19.1899 34.0526 19.5028 34.4022 19.7695C34.6272 19.407 34.9249 19.095 35.2765 18.8532C35.8216 18.4997 36.4334 18.2616 37.0741 18.1538C37.1206 17.8762 37.1884 17.6026 37.2769 17.3354C35.6841 17.1598 34.1166 16.8031 32.6046 16.2723L32.6221 16.2618ZM39.0011 18.2587C39.3412 18.7306 39.7462 19.1521 40.2041 19.5107C40.4279 19.4757 40.6553 19.4478 40.8826 19.4198L41.2603 19.3673C41.3617 19.1645 41.4596 18.9616 41.5576 18.7623L41.659 18.556C41.2611 18.4799 40.8834 18.3214 40.5503 18.0908C40.0317 18.1785 39.5087 18.2381 38.9836 18.2692L39.0011 18.2587ZM41.9877 18.5839C41.9353 18.6854 41.8863 18.7903 41.8338 18.8952C41.7814 19.0001 41.6974 19.175 41.6275 19.3184C42.5387 19.1829 43.4404 18.9902 44.3274 18.7413C44.7549 18.0495 45.0822 17.3007 45.2996 16.5171L45.422 16.1044C45.608 15.4273 45.8334 14.7617 46.097 14.111C46.0585 14.0375 46.0166 13.9641 45.9711 13.8941C45.7309 14.0258 45.4975 14.1694 45.2716 14.3243C45.2437 14.3593 45.2157 14.3977 45.1842 14.4327C45.1842 15.0075 45.0713 15.5766 44.852 16.1079C44.3379 17.3774 43.2712 18.5839 41.9912 18.5839H41.9877ZM52.4795 18.6993C52.615 18.8443 52.7325 19.0052 52.8292 19.1785C52.8817 19.0771 52.9376 18.9791 52.9936 18.8777C53.0495 18.7763 53.1509 18.5839 53.2349 18.4371C53.109 18.4371 52.9831 18.4371 52.8572 18.4371H52.5914L52.4795 18.6993ZM45.8941 19.0491C45.9013 19.0721 45.9107 19.0943 45.9221 19.1155C45.9956 19.0071 46.0655 18.8917 46.132 18.7658C46.104 18.6819 46.0725 18.6014 46.0445 18.5175C45.9708 18.6904 45.9168 18.8711 45.8837 19.0561L45.8941 19.0491ZM45.5444 16.7584C45.3509 17.4038 45.0883 18.0264 44.761 18.6154C44.9884 18.5455 45.2122 18.472 45.436 18.3951C45.4141 18.0181 45.475 17.6409 45.6144 17.29C45.5588 17.1206 45.5304 16.9436 45.5304 16.7654L45.5444 16.7584ZM52.1332 18.3601L52.2417 18.4545L52.2661 18.3776L52.1332 18.3601ZM55.2808 18.1188C55.3367 18.2058 55.3881 18.2957 55.4346 18.3881C55.6812 18.3841 55.927 18.3583 56.1691 18.3112C56.2999 18.2834 56.4285 18.246 56.5538 18.1992C56.4841 17.969 56.3939 17.7455 56.2845 17.5313C55.9813 17.7892 55.6342 17.9906 55.2598 18.1258L55.2808 18.1188ZM54.5079 18.3321C54.698 18.3595 54.8895 18.3771 55.0814 18.3846C55.0499 18.3286 55.015 18.2727 54.98 18.2202C54.8179 18.2688 54.6533 18.3085 54.4869 18.3391L54.5079 18.3321ZM45.7927 17.825C45.7613 17.978 45.7472 18.134 45.7508 18.2902L45.8382 18.2552C45.8592 18.2132 45.8802 18.1713 45.9046 18.1293L45.7927 17.825ZM42.7466 17.1256C42.5333 17.4963 42.3374 17.8775 42.1451 18.2622C43.2153 18.1678 44.114 17.1011 44.5652 15.9855C44.7173 15.6104 44.8173 15.2162 44.8625 14.8139C44.438 15.3416 43.9559 15.8202 43.4251 16.2408C43.4041 16.2862 43.3831 16.3282 43.3586 16.3702C43.1974 16.6649 42.9828 16.9269 42.7256 17.1431L42.7466 17.1256ZM40.998 17.9894C41.2358 18.1242 41.4968 18.2131 41.7674 18.2517H41.8129C41.9318 18.0069 42.0542 17.7656 42.1626 17.5243C42.0198 17.6069 41.8714 17.6794 41.7184 17.7411C41.4763 17.8492 41.2261 17.9381 40.97 18.0069L40.998 17.9894ZM52.7033 17.9614C52.9376 18.0314 53.1684 18.0873 53.3853 18.1363C53.5531 17.8506 53.7475 17.5812 53.9658 17.3319L54.0148 17.276C53.7344 17.0749 53.4358 16.9004 53.123 16.7549L53.0215 16.9123C52.9166 17.262 52.8117 17.6117 52.7033 17.9614ZM54.2596 17.4648L54.1931 17.5348C54.035 17.7198 53.8889 17.9149 53.756 18.1188C54.0984 18.0998 54.4381 18.0471 54.7702 17.9614C54.6151 17.7821 54.4442 17.617 54.2596 17.4683V17.4648ZM37.5742 17.3809C37.4909 17.6191 37.4266 17.8635 37.3818 18.1118C37.4763 18.1118 37.5742 18.0838 37.6686 18.0698C37.7036 17.846 37.7456 17.6257 37.7945 17.4019L37.5742 17.3809ZM46.5062 17.8495C46.4237 17.9197 46.3487 17.9982 46.2823 18.0838L46.4537 18.0174L46.5062 17.8495ZM56.5188 17.3039C56.6498 17.551 56.7575 17.8098 56.8405 18.0768C57.0564 17.9719 57.2575 17.8391 57.4386 17.6816C57.47 17.4753 57.498 17.2655 57.519 17.0591C57.4487 17.0937 57.373 17.1161 57.2952 17.1256C57.2232 17.1317 57.1509 17.118 57.0862 17.086C57.0214 17.0539 56.9667 17.0047 56.928 16.9437L56.886 16.8843L56.9769 16.601C56.8737 16.833 56.737 17.0486 56.5713 17.241L56.5188 17.3039ZM38.1023 17.4438C38.0568 17.6397 38.0183 17.839 37.9869 18.0384L38.3016 18.0104C38.227 17.8285 38.1594 17.6397 38.0988 17.4438H38.1023ZM51.4897 17.9265C51.6296 17.9614 51.7695 17.9929 51.9094 18.0209C51.2105 17.7531 50.6376 17.2326 50.3042 16.5625C50.2422 16.4227 50.1931 16.2776 50.1573 16.1289C49.9659 16.3721 49.745 16.5905 49.4998 16.7794C49.6826 17.0011 49.8985 17.1934 50.1398 17.3494C50.5831 17.4836 51.0109 17.6641 51.4163 17.888L51.4897 17.9265ZM38.487 17.4543C38.5784 17.633 38.6788 17.8069 38.7877 17.9754H38.8157C39.2669 17.9474 39.7215 17.916 40.1726 17.8495L39.9104 17.6572L39.6481 17.4613C39.2774 17.4718 38.8892 17.4718 38.4835 17.4543H38.487ZM52.392 17.86H52.4165L52.441 17.7796C52.42 17.811 52.4025 17.8355 52.3885 17.86H52.392ZM54.4904 17.255C54.7083 17.4377 54.9064 17.6428 55.0814 17.867C55.4694 17.7353 55.8264 17.5259 56.1306 17.2515C56.0084 17.0405 55.8717 16.8384 55.7214 16.6465L55.662 16.5695C55.2282 16.7224 54.828 16.9575 54.4834 17.262L54.4904 17.255ZM46.8419 17.811L46.8629 17.8565C47.2126 17.7096 47.5448 17.5557 47.8771 17.3914C47.5376 17.4066 47.2036 17.4824 46.8909 17.6152C46.8664 17.6816 46.8524 17.7446 46.8349 17.811H46.8419ZM45.9361 17.3284C45.9851 17.4963 46.0445 17.6782 46.104 17.8285C46.1694 17.7485 46.2433 17.6758 46.3243 17.6117L46.4117 17.5383C46.3343 17.2884 46.2792 17.032 46.2474 16.7724C46.1205 16.945 46.0137 17.1316 45.9291 17.3284H45.9361ZM40.1202 17.4228C40.2811 17.5453 40.4419 17.6677 40.6028 17.7726C40.943 17.7088 41.2758 17.6103 41.596 17.4788C41.9216 17.3467 42.2248 17.165 42.4948 16.9402L42.5997 16.7584C41.8202 17.1346 40.9765 17.3601 40.1132 17.4228H40.1202ZM50.4441 15.9505C50.4727 16.118 50.522 16.2813 50.591 16.4366C50.9099 17.0489 51.4501 17.5166 52.1018 17.7446C52.3186 17.4263 52.5319 17.1046 52.7453 16.7829L52.7977 16.608L52.6194 16.5345C51.9175 16.2544 51.185 16.0584 50.4371 15.9505H50.4441ZM57.8512 16.7829C57.8512 16.9472 57.8268 17.1116 57.8058 17.276C57.927 17.1055 58.017 16.9149 58.0716 16.7129C58.0881 16.6555 58.101 16.5971 58.11 16.538L58.0296 16.5136C57.9798 16.611 57.9175 16.7016 57.8442 16.7829H57.8512ZM46.9783 16.0379C46.9783 16.1394 46.9958 16.2373 46.9993 16.3387C47.01 16.6463 46.9925 16.9541 46.9468 17.2585C47.2908 17.1429 47.6506 17.0815 48.0135 17.0766C48.1697 17.0766 48.3271 17.0766 48.4856 17.0766C48.6886 16.9704 48.8858 16.8537 49.0766 16.7269C48.9413 16.5109 48.841 16.2748 48.7794 16.0274C48.7794 15.9715 48.7514 15.9155 48.7409 15.8631C48.1493 15.8672 47.5592 15.9257 46.9783 16.0379ZM46.5202 16.4226C46.5348 16.6941 46.5758 16.9635 46.6426 17.227C46.6853 16.9365 46.7017 16.6427 46.6915 16.3492C46.6915 16.3177 46.6915 16.2827 46.6915 16.2478C46.6286 16.3037 46.5726 16.3632 46.5202 16.4226ZM49.0207 17.1221C49.1641 17.1221 49.3075 17.1606 49.4508 17.185C49.381 17.1158 49.3156 17.0422 49.255 16.9647L49.0207 17.1221ZM38.3331 17.1396C38.6339 17.1559 38.9241 17.1629 39.2039 17.1606C38.9306 16.9878 38.6267 16.8691 38.3086 16.8108H38.2771C38.2771 16.8108 38.2771 16.8423 38.2771 16.8598C38.2771 16.9472 38.3156 17.0347 38.3366 17.1186C38.3331 17.1116 38.3331 17.1256 38.3331 17.1396ZM38.3821 16.4961C38.8749 16.6077 39.3362 16.8289 39.732 17.1431C40.8657 17.1232 41.9737 16.8021 42.9425 16.2128C43.0369 16.0729 43.1383 15.9365 43.2432 15.8036C43.3736 15.2753 43.4336 14.732 43.4216 14.1879C43.4264 13.6932 43.4791 13.2001 43.579 12.7156C43.2388 12.6517 42.891 12.6399 42.5473 12.6806C42.1707 12.8149 41.8037 12.9749 41.4491 13.1597C40.7688 13.5034 40.1516 13.9599 39.6236 14.5096C39.0846 15.0835 38.665 15.7587 38.3891 16.4961H38.3821ZM37.6826 17.0871H37.8575L37.9204 16.8703C37.9188 16.8482 37.9188 16.826 37.9204 16.8038C37.9 16.8109 37.8811 16.8215 37.8645 16.8353C37.7856 16.9021 37.7263 16.9892 37.6931 17.0871H37.6826ZM53.2838 16.4996C53.6153 16.6577 53.9314 16.8462 54.2281 17.0626C54.5806 16.7442 54.9899 16.495 55.4346 16.3282C55.0849 15.9785 54.5254 15.5588 53.9763 15.7896C53.6868 15.9575 53.4504 16.2035 53.2943 16.4996H53.2838ZM32.6151 15.947L32.6955 15.9785C34.2074 16.5165 35.7764 16.878 37.3713 17.0556C37.4283 16.8882 37.5299 16.7395 37.6651 16.6255C37.7191 16.5865 37.7778 16.5548 37.84 16.5311C37.826 16.4285 37.8155 16.327 37.8085 16.2268C37.8028 16.0597 37.811 15.8924 37.833 15.7267C37.8193 15.1748 37.9009 14.6246 38.0743 14.1005C38.3746 13.2761 38.939 12.574 39.6795 12.1035C39.4277 12.1035 39.1724 12.0721 38.9241 12.0546C36.7635 12.4251 34.7179 13.2905 32.9473 14.5831C32.903 14.688 32.8611 14.7964 32.8214 14.9083C32.7095 15.2446 32.6402 15.5935 32.6151 15.947ZM55.9802 16.4751C56.1157 16.6494 56.2406 16.8315 56.3544 17.0207C56.5209 16.8224 56.6532 16.5978 56.7461 16.3562C56.4874 16.3696 56.2308 16.4094 55.9802 16.4751ZM57.2287 16.8248C57.2413 16.8282 57.2546 16.8282 57.2672 16.8248C57.3762 16.8029 57.4748 16.745 57.547 16.6604V16.4086L57.3616 16.3842L57.2287 16.8248ZM46.2054 16.2827C46.0643 16.3463 45.9503 16.4578 45.8837 16.5975C45.853 16.6695 45.8364 16.7466 45.8347 16.8248C45.9436 16.6444 46.0676 16.4736 46.2054 16.3142V16.2827ZM49.0557 15.8491C49.0593 15.8801 49.0663 15.9106 49.0766 15.94C49.1277 16.1494 49.2102 16.3499 49.3215 16.5345C49.5566 16.3502 49.767 16.1363 49.9475 15.898C49.6502 15.8631 49.3529 15.8421 49.0557 15.8386V15.8491ZM46.2579 14.5026C46.0375 15.0517 45.8662 15.6358 45.6948 16.2128L45.6458 16.3807C45.7801 16.176 45.978 16.0212 46.2089 15.94C46.2089 15.8596 46.2089 15.7826 46.2334 15.7022C46.2645 15.4274 46.3243 15.1567 46.4117 14.8943C46.3768 14.751 46.3173 14.6181 46.2614 14.4922L46.2579 14.5026ZM50.4546 15.6532C51.2334 15.7653 51.9963 15.9683 52.7278 16.2583L52.8747 16.3212L52.9376 16.1114C52.9986 15.9615 53.0097 15.7959 52.9691 15.6393C52.8852 15.4574 52.6194 15.3979 52.3711 15.363C52.0493 15.321 51.7171 15.272 51.3778 15.2336L51.2834 15.272L51.2659 15.2231C51.0491 15.1986 50.8288 15.1811 50.6084 15.1671C50.5761 15.3312 50.5244 15.4908 50.4546 15.6428V15.6532ZM54.3015 15.4259C54.9031 15.4259 55.4416 15.8946 55.7494 16.2303C56.1006 16.1263 56.4639 16.0686 56.83 16.0589C56.9221 15.6129 56.9251 15.153 56.8386 14.7059C56.7522 14.2587 56.5781 13.8331 56.3264 13.4535C55.9015 13.1574 55.4481 12.9043 54.973 12.6981L54.8576 12.6771C54.6133 13.1365 54.2833 13.5449 53.8854 13.8801C53.308 14.3451 52.6629 14.719 51.9724 14.9888L52.413 15.0482C52.58 15.0481 52.7441 15.0908 52.8899 15.1722C53.0356 15.2536 53.158 15.3711 53.2454 15.5134C53.3091 15.6674 53.3214 15.8379 53.2803 15.9995C53.4315 15.79 53.6338 15.6226 53.8679 15.5134C54.0085 15.4495 54.1611 15.4161 54.3155 15.4154L54.3015 15.4259ZM38.1338 15.7407C38.1338 15.8946 38.1338 16.0484 38.1617 16.2093C38.4452 15.5114 38.8542 14.8714 39.3683 14.3208C39.9196 13.7511 40.5627 13.2783 41.2708 12.9219C40.619 13.0665 40.0014 13.3361 39.4522 13.7158C38.7712 14.1913 38.303 14.9142 38.1477 15.7302L38.1338 15.7407ZM57.8128 15.0692C57.8128 15.1287 57.8128 15.1881 57.8128 15.2441C57.8373 15.5413 57.8442 15.8351 57.8442 16.1289L58.0401 15.7232C57.9975 15.4935 57.9258 15.2703 57.8268 15.0587L57.8128 15.0692ZM57.4631 16.0904H57.5575C57.5575 15.9925 57.5575 15.8911 57.5575 15.7931L57.4631 16.0904ZM56.921 13.9256C57.2094 14.594 57.2899 15.3337 57.1518 16.0484L57.5015 14.9993C57.4815 14.8114 57.4464 14.6254 57.3966 14.4432C57.3476 14.3802 57.2917 14.3173 57.2357 14.2543C57.1798 14.1914 57.0364 14.0165 56.928 13.9151L56.921 13.9256ZM46.5726 15.4854C46.5726 15.5693 46.5446 15.6532 46.5341 15.7407V15.8351L46.6321 15.8106C46.6206 15.6978 46.6031 15.5858 46.5796 15.4749L46.5726 15.4854ZM32.4822 14.9608C32.2968 15.1391 32.094 15.3979 32.1884 15.6288C32.2162 15.6951 32.2623 15.7521 32.3213 15.7931C32.3489 15.5113 32.4028 15.2326 32.4822 14.9608ZM48.7129 15.2441C48.438 15.2965 48.1678 15.3714 47.9051 15.4679C47.7862 15.5134 47.6673 15.5693 47.5553 15.6288C47.9404 15.5763 48.328 15.5448 48.7164 15.5343C48.7083 15.4378 48.7071 15.3408 48.7129 15.2441ZM49.0137 15.5308C49.3634 15.5308 49.7341 15.5553 50.0908 15.5938C50.0886 15.4407 50.0968 15.2876 50.1153 15.1356C49.7507 15.1291 49.386 15.149 49.0242 15.1951C49.0137 15.3067 49.0102 15.4188 49.0137 15.5308ZM46.7265 14.8873C46.7952 15.0933 46.8501 15.3036 46.8909 15.5168L46.9748 15.4049C47.1194 15.1917 47.215 14.9491 47.2549 14.6946C47.2948 14.4401 47.278 14.1799 47.2056 13.9326C47.008 14.2304 46.8472 14.551 46.7265 14.8873ZM57.9177 14.6425C58.0522 14.8508 58.1625 15.0737 58.2464 15.307L58.827 14.1179C59.0732 13.689 59.2235 13.2117 59.2676 12.719C59.2676 11.2397 57.3686 10.5298 56.5503 10.292C56.0087 10.124 55.4506 10.015 54.8856 9.96671C55.0831 10.3528 55.1919 10.7782 55.2038 11.2117C55.2116 11.4471 55.1868 11.6825 55.1304 11.9112C55.3157 12.0148 55.4934 12.1317 55.662 12.2609L56.309 12.3029C56.9455 12.3448 57.8233 12.4847 58.0891 13.1807C58.2025 13.5909 58.1678 14.028 57.9911 14.4152L57.9177 14.6425ZM43.8587 12.81C43.7766 13.2622 43.738 13.7213 43.7433 14.1809C43.7393 14.5526 43.716 14.9238 43.6734 15.293C44.0298 14.9057 44.4234 14.5543 44.8485 14.2439C44.8395 14.0071 44.78 13.7751 44.6738 13.5633C44.5676 13.3516 44.4173 13.1651 44.233 13.0163C44.1182 12.9308 43.9923 12.8613 43.8587 12.81ZM47.4259 13.6283C47.6164 14.132 47.6164 14.6879 47.4259 15.1916C47.9395 14.9983 48.4327 14.7547 48.8983 14.4642C49.0631 14.0734 49.3004 13.7174 49.5977 13.415C49.3481 13.2001 49.0705 13.02 48.7724 12.8799C48.5206 12.9359 48.2583 13.0058 47.996 13.0828C47.7889 13.2459 47.598 13.4286 47.4259 13.6283ZM48.7479 14.9013L48.6885 14.9363H48.7444L48.7479 14.9013ZM50.6224 14.8489C50.8602 14.8489 51.0946 14.8873 51.3219 14.9118C52.1755 14.6234 52.9738 14.1917 53.6825 13.6353C54.0225 13.346 54.3089 12.9991 54.5289 12.6106C53.4263 12.3805 52.2847 12.4176 51.1995 12.719C51.112 12.9184 51.0281 13.1247 50.9442 13.3311C50.8078 13.6808 50.6714 14.0305 50.57 14.3802C50.599 14.503 50.6154 14.6284 50.6189 14.7544L50.6224 14.8489ZM49.1361 14.6565C49.1081 14.73 49.0871 14.8034 49.0662 14.8769C49.4249 14.8361 49.7859 14.8198 50.1468 14.8279C50.1748 14.6775 50.2133 14.5236 50.2552 14.3698C50.2001 14.1825 50.1151 14.0053 50.0034 13.8452C49.7609 14.1565 49.4733 14.43 49.1501 14.6565H49.1361ZM40.2496 12.1035C39.3703 12.5307 38.6918 13.2832 38.3576 14.2019C38.3154 14.3162 38.2803 14.433 38.2527 14.5516C38.5155 14.1194 38.8628 13.7447 39.2739 13.45C40.1629 12.855 41.1878 12.4941 42.2535 12.4008L42.4494 12.3798C42.885 12.2291 43.3317 12.1122 43.7853 12.0301L43.8063 11.9916C43.6322 11.9113 43.4521 11.8446 43.2677 11.7923C43.1628 11.7608 43.0544 11.7363 42.946 11.7153H42.5298C41.8057 11.9867 41.0367 12.1184 40.2636 12.1035H40.2496ZM46.4187 14.1145C46.4747 14.2264 46.5272 14.3383 46.5761 14.4642C46.7136 14.149 46.8873 13.8509 47.0937 13.5759C47.0692 13.5199 47.0412 13.4675 47.0133 13.4115L46.73 13.5304C46.6156 13.7192 46.5116 13.9142 46.4187 14.1145ZM57.6834 14.2753C57.6953 14.2923 57.7082 14.3086 57.7218 14.3243C57.868 14.0046 57.9037 13.6453 57.8233 13.3031C57.6204 12.768 56.8615 12.6561 56.309 12.6036H56.0642L56.1691 12.7156C56.6761 12.9003 57.1135 13.2375 57.4211 13.6808C57.5348 13.8663 57.623 14.0663 57.6834 14.2753ZM43.9357 12.5267C44.2534 12.6389 44.5333 12.8381 44.7435 13.1014C44.9537 13.3648 45.0858 13.6818 45.1248 14.0165C45.2856 13.8207 45.45 13.6213 45.6179 13.4255C45.2688 12.9667 44.84 12.5746 44.3519 12.2679C44.24 12.2679 44.1245 12.2994 44.0021 12.3204C43.9847 12.3658 43.9602 12.4428 43.9287 12.5127L43.9357 12.5267ZM37.3294 11.9671C36.782 11.9563 36.2358 12.0222 35.7067 12.163C34.7071 12.4572 33.846 13.0999 33.2796 13.9746C34.6575 13.0478 36.1883 12.3717 37.8015 11.9776C37.6453 11.9613 37.4879 11.9532 37.3294 11.9532V11.9671ZM49.8181 13.6108C49.7166 13.7206 49.6231 13.8375 49.5383 13.9606C49.6407 13.8517 49.7343 13.7347 49.8181 13.6108ZM50.1993 13.5899C50.28 13.7003 50.3514 13.8173 50.4126 13.9396C50.4965 13.7053 50.584 13.4745 50.6784 13.2401L50.8148 12.8904C50.676 12.9562 50.5416 13.031 50.4126 13.1142C50.3572 13.2749 50.2857 13.4295 50.1993 13.5759V13.5899ZM46.2264 13.7647V13.7857L46.2439 13.7472L46.2264 13.7647ZM46.027 13.415C46.0445 13.4395 46.062 13.464 46.076 13.4884C46.2299 13.4115 46.3803 13.3381 46.5306 13.2716C46.6006 13.1597 46.6705 13.0548 46.7475 12.9534C46.7055 12.9009 46.66 12.8484 46.6146 12.7995C46.3943 13.0023 46.1984 13.2122 46.027 13.415ZM47.314 13.2786L47.335 13.2541L47.314 13.2786ZM44.845 12.198C45.2186 12.4742 45.5527 12.8001 45.8382 13.1667C46.0166 12.9674 46.1879 12.775 46.3908 12.5896C46.3573 12.5609 46.3223 12.5341 46.2858 12.5092C46.1104 12.3739 45.9218 12.2568 45.7228 12.1595C45.4237 12.1594 45.1248 12.1757 44.8275 12.2085L44.845 12.198ZM49.2515 12.74C49.4587 12.863 49.6542 13.0046 49.8355 13.1632C49.9408 13.069 50.0517 12.9814 50.1678 12.9009C50.1958 12.796 50.2202 12.6911 50.2377 12.5862C50.0244 12.6141 49.8146 12.6421 49.6047 12.6771L49.2515 12.74ZM47.1287 12.9604L47.1602 13.0093C47.398 12.9219 47.6288 12.8415 47.8596 12.7715C47.9435 12.7016 48.031 12.6351 48.1219 12.5722H48.0904C47.947 12.5267 47.8001 12.4847 47.6533 12.4463C47.4552 12.6022 47.2735 12.778 47.1112 12.9709L47.1287 12.9604ZM46.8419 12.6106L46.9398 12.726C47.0474 12.6008 47.1643 12.4839 47.2896 12.3763L47.1741 12.3518C47.0459 12.4288 46.9293 12.5127 46.8244 12.6036L46.8419 12.6106ZM50.5525 12.5687C50.5525 12.6106 50.5525 12.6491 50.5525 12.6911C50.6273 12.6495 50.7044 12.6122 50.7833 12.5792L50.8672 12.5407L50.5525 12.5687ZM47.975 12.2189L48.1814 12.2819C48.4009 12.3497 48.6158 12.4314 48.8248 12.5267C49.0766 12.4707 49.3215 12.4253 49.5558 12.3868C49.7901 12.3483 50.0279 12.3134 50.2552 12.2854C50.2601 12.1184 50.2436 11.9516 50.2063 11.7888C50.1956 11.7328 50.1804 11.6779 50.1608 11.6244C49.3853 11.6134 48.6222 11.8193 47.9575 12.2189H47.975ZM43.537 12.4043L43.6594 12.4288C43.6594 12.4078 43.6594 12.3903 43.6594 12.3728L43.537 12.4043ZM46.4117 12.2294L46.4677 12.2714L46.6181 12.3903L46.758 12.2714C46.6251 12.2574 46.5097 12.2399 46.3943 12.2294H46.4117ZM50.4895 11.6244C50.4997 11.6565 50.5079 11.6892 50.514 11.7223C50.552 11.8958 50.5708 12.0729 50.57 12.2504L51.1295 12.205C51.2135 12.0301 51.2974 11.8552 51.3883 11.6978C51.0845 11.6567 50.7786 11.6321 50.472 11.6244H50.4895ZM55.0779 12.2329H55.1129L55.0814 12.2119L55.0779 12.2329ZM54.6373 12.2085H54.7527C54.7737 12.156 54.7912 12.1035 54.8086 12.0546C53.9236 11.6174 52.9583 11.3663 51.9724 11.3167L51.8814 11.453C52.2032 11.509 52.5074 11.5789 52.7907 11.6454C53.4111 11.7964 54.0219 11.9844 54.6198 12.2085H54.6373ZM51.7136 11.7468C51.6331 11.8867 51.5562 12.0336 51.4828 12.184C52.1612 12.149 52.8432 12.1455 53.5216 12.163C53.2489 12.086 52.9831 12.0161 52.7278 11.9566C52.3571 11.8692 52.0178 11.7993 51.6961 11.7468H51.7136ZM47.5169 12.0965H47.5798C47.7253 11.9888 47.8784 11.8918 48.038 11.8063C47.9261 11.8599 47.8095 11.9158 47.6882 11.9741C47.6288 12.0161 47.5658 12.0616 47.4994 12.1035L47.5169 12.0965ZM45.7927 11.8727C46.2234 11.8898 46.6524 11.9377 47.0762 12.0161C47.2275 11.9077 47.3852 11.8084 47.5483 11.7188C48.2557 11.3516 49.0278 11.1259 49.8216 11.0544C49.7307 10.9585 49.6258 10.8771 49.5103 10.813C49.128 10.6375 48.7103 10.5525 48.2898 10.5647C47.0343 10.5123 45.4675 10.6557 44.5547 11.5195C44.975 11.5882 45.385 11.7092 45.7752 11.8797L45.7927 11.8727ZM44.2784 11.8517L44.4323 11.9392C44.5792 11.9228 44.7261 11.9089 44.8729 11.8972C44.6911 11.8552 44.5232 11.8203 44.3204 11.7923L44.2784 11.8517ZM52.1997 11.0404C53.1312 11.107 54.0415 11.3503 54.8821 11.7573C54.9171 11.5835 54.9335 11.4065 54.931 11.2292C54.9133 10.7837 54.7872 10.3491 54.5638 9.96321C54.0725 9.95585 53.5862 10.0636 53.1439 10.278C52.7765 10.4634 52.4514 10.723 52.1892 11.0404H52.1997ZM43.1068 11.3901C43.4703 11.3947 43.8334 11.418 44.1945 11.46C45.1562 10.3724 46.9188 10.194 48.3177 10.25C48.7849 10.241 49.2478 10.3391 49.6712 10.5368C49.8817 10.6536 50.0633 10.8161 50.2028 11.0124C50.472 10.9949 50.7204 10.9879 50.9477 10.9844C51.2531 10.9844 51.5469 10.9914 51.829 11.0054C52.1401 10.5835 52.5431 10.2378 53.0076 9.99469C53.4325 9.78332 53.8973 9.66414 54.3715 9.64497C54.0845 9.25042 53.7292 8.91048 53.3223 8.64125C52.0703 7.79142 50.3636 7.43121 48.2408 7.5711C46.4922 7.68301 45.3136 8.19361 44.7191 9.0889C44.5795 9.31265 44.4568 9.54644 44.3519 9.78835C44.2435 10.0482 44.1136 10.2985 43.9637 10.5368C43.7379 10.8822 43.441 11.1756 43.0929 11.3971L43.1068 11.3901ZM50.4511 11.3062C50.8247 11.3137 51.1974 11.3464 51.5667 11.4041C51.5877 11.3691 51.6087 11.3341 51.6331 11.2992C51.4128 11.2992 51.189 11.2992 50.9617 11.2992C50.7798 11.3166 50.6084 11.3167 50.4266 11.3167L50.4511 11.3062Z" fill="white"/>
<path d="M81.2794 53.3571C80.7575 53.1071 80.1914 52.9625 79.6136 52.9314C79.0358 52.9004 78.4575 52.9835 77.9118 53.1761C77.3661 53.3687 76.8638 53.667 76.4335 54.0539C76.0032 54.4408 75.6533 54.9087 75.404 55.4309L75.2886 55.6757L75.1242 56.0255L74.9249 56.4277L74.5052 57.2495C74.2149 57.7951 73.9282 58.3442 73.6169 58.8687C73.8582 58.0609 74.1205 57.2495 74.3898 56.4416C74.6591 55.6338 74.9494 54.7455 75.2466 53.8991C75.8237 52.21 76.4497 50.4928 77.0337 48.8246L77.0547 48.7687C77.2313 48.2688 77.2214 47.722 77.0269 47.2288C76.8324 46.7356 76.4663 46.3293 75.996 46.0846C75.5257 45.8398 74.9828 45.7732 74.4673 45.8969C73.9518 46.0206 73.4983 46.3263 73.1902 46.7578C72.0676 48.3245 71.0919 49.9053 70.1162 51.521C69.1404 53.1367 68.2661 54.8119 67.4233 56.5291C66.5662 58.2794 65.8107 60.0776 65.1606 61.9148C64.8388 62.8661 64.5345 63.8453 64.2827 64.8875C64.0049 66.013 63.8409 67.1635 63.7931 68.3218C63.757 69.2343 64.0512 70.1291 64.6217 70.8422C65.1921 71.5552 66.0006 72.0387 66.8987 72.2038L67.1855 72.2562C68.3966 72.474 69.6382 72.4585 70.8436 72.2107C71.947 71.9745 73.0082 71.5725 73.9911 71.0182C75.635 70.0743 77.1063 68.8573 78.3417 67.4195C78.9081 66.7867 79.4382 66.1224 79.9294 65.4296C80.4086 64.7546 80.8667 64.0796 81.2759 63.3837C81.6851 62.6877 82.0837 61.9848 82.437 61.2853C82.6153 60.9356 82.7867 60.5684 82.9581 60.1977L83.1994 59.6346L83.4617 58.9981C83.8846 57.9568 83.8943 56.7933 83.4888 55.745C83.0832 54.6967 82.293 53.8427 81.2794 53.3571Z" fill="#263238"/>
<path d="M73.0956 42.3128L73.0012 44.0614C72.9713 44.7582 73.0905 45.4533 73.351 46.1003L74.0504 47.8944C74.2117 48.3028 74.4857 48.657 74.8404 48.9158C75.1952 49.1746 75.6162 49.3273 76.0543 49.3562C76.6497 49.3966 77.2375 49.2045 77.694 48.8203C78.1506 48.4361 78.4404 47.8898 78.5024 47.2964C78.5552 46.3987 78.4739 45.4981 78.2611 44.6245L78.0652 42.4037C78.0322 42.0397 77.871 41.6992 77.6103 41.443C77.3496 41.1868 77.0064 41.0315 76.6419 41.0048L74.7499 40.8614C74.5457 40.8472 74.3408 40.8735 74.147 40.9389C73.9531 41.0043 73.7741 41.1074 73.6203 41.2424C73.4665 41.3773 73.3409 41.5414 73.2509 41.7251C73.1609 41.9088 73.1081 42.1086 73.0956 42.3128Z" fill="#FFB573"/>
<path opacity="0.2" d="M78.2646 44.6209L78.0688 42.4037C78.0352 42.0404 77.8743 41.7008 77.6144 41.4448C77.3546 41.1888 77.0126 41.0329 76.6489 41.0048L74.8164 40.8649C74.61 43.7256 76.0754 46.9081 77.6806 48.8386C77.914 48.6498 78.1071 48.4159 78.2483 48.151C78.3895 47.886 78.4759 47.5954 78.5025 47.2963C78.5581 46.3976 78.4779 45.4957 78.2646 44.6209Z" fill="black"/>
<path d="M94.0058 49.4857C88.9558 49.8634 82.6328 50.276 78.0969 52.4338C75.8586 53.5005 75.2571 55.7422 75.5893 58.2008C76.1174 62.1037 76.5721 65.2198 77.5443 68.5142C79.7965 76.1137 75.2816 81.5554 80.3421 87.4413C82.5628 89.9663 96.1776 92.3374 105.82 89.1689C107.218 83.416 105.41 69.1087 103.476 56.085C102.801 51.4861 98.6467 49.1394 94.0058 49.4857Z" fill="#2196F3"/>
<path d="M87.7387 43.369C87.9835 45.5093 89.0432 48.6499 90.8548 49.6291C91.0514 49.7369 91.2192 49.8905 91.344 50.0768C91.4689 50.2631 91.5471 50.4766 91.5722 50.6995C91.5972 50.9223 91.5683 51.1479 91.4879 51.3573C91.4074 51.5666 91.2779 51.7535 91.1101 51.9023C90.0434 52.8361 88.3962 53.6509 86.186 54.1091C83.3042 54.6966 82.6887 53.8258 82.7307 52.9305C82.7736 52.4984 82.9496 52.0903 83.2343 51.7624C84.1645 50.6153 83.2343 49.7235 82.6572 49.0521L87.7387 43.369Z" fill="#FFB573"/>
<path opacity="0.2" d="M86.4448 46.5969C86.3885 46.4769 86.3254 46.3601 86.2559 46.2472L82.6608 49.0625C83.0105 49.4996 83.5561 50.0347 83.6225 50.6677C85.4796 49.5521 86.9904 47.758 86.4448 46.5969Z" fill="black"/>
<path d="M64.0413 120.399C64.7407 119.682 69.1892 118.301 69.1892 118.301C70.3546 121.649 71.3169 125.063 72.0709 128.527L66.311 129.115C66.311 129.115 65.3562 123.278 64.0413 120.399Z" fill="#FFB573"/>
<path d="M89.5154 84.6261C72.858 84.8639 50.9372 83.9721 56.0992 99.1537C58.3094 105.652 58.1311 108.04 60.7155 115.912C61.8277 119.301 62.2054 120.298 63.0132 122.645C63.898 124.743 69.1999 124.358 71.1583 123.537C73.512 122.284 71.508 118.903 71.2458 117C69.9063 107.711 72.6866 104.162 69.7629 98.073C75.0787 98.8424 90.0225 98.3038 92.2467 89.169C92.2467 89.169 95.3103 85.5284 89.5154 84.6261Z" fill="#263238"/>
<path d="M64.3702 123.764L65.0696 125.163C65.1118 125.246 65.1797 125.314 65.2635 125.357C65.3472 125.399 65.4423 125.413 65.5348 125.397C66.479 125.233 69.2908 124.781 70.9275 124.981C70.9865 124.987 71.0462 124.981 71.1029 124.964C71.1597 124.947 71.2123 124.918 71.2577 124.88C71.3031 124.841 71.3403 124.794 71.3671 124.742C71.3939 124.689 71.4097 124.631 71.4136 124.572C71.4451 124.019 71.4381 123.302 71.4311 122.851C71.4275 122.736 71.3796 122.627 71.2974 122.547C71.2153 122.467 71.1053 122.422 70.9905 122.421C68.8601 122.443 66.7373 122.677 64.6534 123.12C64.5871 123.136 64.5254 123.167 64.473 123.21C64.4207 123.254 64.3791 123.309 64.3517 123.371C64.3242 123.434 64.3116 123.502 64.3148 123.57C64.318 123.638 64.337 123.704 64.3702 123.764Z" fill="#2196F3"/>
<path d="M73.3056 132.185L72.704 128.125C72.6818 128.03 72.6266 127.947 72.5483 127.89C72.47 127.833 72.3739 127.806 72.2774 127.814L66.3705 127.838C65.8967 127.805 65.4251 127.928 65.0276 128.188C63.6986 129.286 61.6387 130.339 58.6451 130.919C57.6973 131.104 58.0995 132.986 60.3203 132.975C63.9924 132.958 63.8385 132.843 66.9651 132.832C69.644 132.832 70.3154 132.954 72.4418 132.975C72.5511 132.984 72.661 132.969 72.7646 132.933C72.8682 132.897 72.9634 132.841 73.0443 132.767C73.1252 132.693 73.1901 132.603 73.235 132.503C73.28 132.403 73.304 132.295 73.3056 132.185Z" fill="#263238"/>
<path d="M85.6857 37.7524C87.249 41.3336 88.3471 43.348 87.5113 46.1458C86.2593 50.374 81.1813 51.3252 78.5828 48.3665C76.2467 45.7016 74.0819 40.2879 76.7573 36.9026C79.3942 33.5732 84.1225 34.1677 85.6857 37.7524Z" fill="#FFB573"/>
<path d="M82.8111 46.3626C83.004 46.3581 83.1969 46.3686 83.3882 46.3941C83.4014 46.3957 83.4142 46.4001 83.4257 46.4069C83.4372 46.4137 83.4472 46.4228 83.4551 46.4336C83.463 46.4444 83.4685 46.4567 83.4715 46.4698C83.4744 46.4828 83.4746 46.4963 83.4721 46.5095C83.4709 46.5226 83.4669 46.5353 83.4605 46.5468C83.4541 46.5583 83.4453 46.5683 83.4348 46.5762C83.4242 46.5841 83.4121 46.5897 83.3993 46.5927C83.3865 46.5957 83.3731 46.5959 83.3602 46.5934C82.9358 46.5215 82.5005 46.5515 82.09 46.681C81.6795 46.8105 81.3058 47.0358 80.9996 47.3383C80.9805 47.3573 80.9548 47.368 80.9279 47.368C80.901 47.368 80.8752 47.3573 80.8562 47.3383C80.8469 47.3292 80.8395 47.3183 80.8344 47.3063C80.8294 47.2943 80.8268 47.2814 80.8268 47.2684C80.8268 47.2553 80.8294 47.2424 80.8344 47.2304C80.8395 47.2184 80.8469 47.2075 80.8562 47.1984C81.3742 46.6759 82.0755 46.3761 82.8111 46.3626Z" fill="#263238"/>
<path d="M81.199 42.0924C81.0206 42.1938 81.0066 42.4981 81.164 42.7708L81.8075 42.3966C81.6501 42.1239 81.3773 41.9875 81.199 42.0924Z" fill="#263238"/>
<path d="M77.852 43.9913C77.6736 44.0927 77.6562 44.397 77.817 44.6698L78.4605 44.2956C78.2822 44.0228 78.0129 43.8864 77.852 43.9913Z" fill="#263238"/>
<path d="M80.3245 40.3928C80.3466 40.3641 80.3766 40.3426 80.4107 40.3308C80.4449 40.319 80.4818 40.3174 80.5169 40.3263C80.74 40.3898 80.9751 40.3991 81.2026 40.3535C81.4301 40.3079 81.6434 40.2086 81.8248 40.064C81.842 40.0468 81.8625 40.0331 81.885 40.0238C81.9075 40.0144 81.9316 40.0096 81.956 40.0096C81.9803 40.0096 82.0045 40.0144 82.027 40.0238C82.0495 40.0331 82.0699 40.0468 82.0871 40.064C82.1044 40.0812 82.118 40.1017 82.1274 40.1242C82.1367 40.1467 82.1415 40.1708 82.1415 40.1952C82.1415 40.2195 82.1367 40.2436 82.1274 40.2661C82.118 40.2886 82.1044 40.3091 82.0871 40.3263C81.8601 40.5126 81.5917 40.6416 81.3044 40.7025C81.0171 40.7633 80.7195 40.7543 80.4364 40.676C80.3893 40.6637 80.3489 40.6333 80.3241 40.5914C80.2992 40.5495 80.2918 40.4995 80.3035 40.4522C80.3073 40.4314 80.3144 40.4113 80.3245 40.3928Z" fill="#263238"/>
<path d="M77.4149 42.0365C77.4501 42.0105 77.494 41.9992 77.5373 42.0051C77.5859 42.0095 77.6308 42.0329 77.6622 42.0702C77.6936 42.1076 77.7091 42.1558 77.7052 42.2044C77.6875 42.4976 77.5995 42.7823 77.4485 43.0343C77.2975 43.2864 77.0881 43.4983 76.8379 43.6523C76.7947 43.6746 76.7444 43.679 76.698 43.6646C76.6515 43.6502 76.6126 43.6182 76.5896 43.5753C76.5779 43.5542 76.5706 43.531 76.568 43.5071C76.5654 43.4831 76.5675 43.4589 76.5744 43.4358C76.5812 43.4127 76.5926 43.3912 76.6078 43.3725C76.623 43.3538 76.6418 43.3384 76.663 43.327C76.8585 43.2018 77.0214 43.0318 77.1382 42.8311C77.255 42.6304 77.3223 42.4048 77.3345 42.1729C77.3372 42.1457 77.3458 42.1194 77.3597 42.0959C77.3736 42.0723 77.3924 42.0521 77.4149 42.0365Z" fill="#263238"/>
<path opacity="0.2" d="M78.5829 44.1909C78.5967 44.462 78.5421 44.7321 78.4241 44.9766C78.3062 45.221 78.1287 45.4319 77.908 45.5898C79.5377 45.324 78.5829 44.1909 78.5829 44.1909Z" fill="black"/>
<path opacity="0.2" d="M80.7582 42.9807C80.9911 43.1135 81.2534 43.1862 81.5214 43.1923C81.7894 43.1984 82.0548 43.1377 82.2935 43.0157C81.4052 44.1383 80.7582 42.9807 80.7582 42.9807Z" fill="black"/>
<path d="M88.641 37.8712C88.4662 36.2554 88.0395 35.0489 87.473 34.2305C87.7203 34.3095 87.9743 34.3657 88.2319 34.3984C86.791 32.2126 84.4408 32.6218 83.6854 33.5066C82.7657 31.4957 81.4647 32.8386 79.9853 33.0939C78.506 33.3492 75.7537 32.2791 75.7537 32.2791C75.7537 32.2791 76.3587 33.3282 77.3449 33.4891C75.4319 34.3529 74.7255 35.8393 74.2184 36.9863C73.7113 38.1334 72.1725 39.5079 72.1725 39.5079C72.8145 39.5146 73.4366 39.2857 73.9211 38.8644C73.7288 40.0325 72.9209 42.2112 72.5222 42.7113C73.5714 42.3616 74.5541 41.0781 74.5541 41.0781C74.5541 41.0781 74.743 43.1765 75.7292 44.5964C75.5263 42.7813 78.4326 39.1477 78.4326 39.1477C78.3035 39.9269 78.3035 40.7221 78.4326 41.5013C79.744 40.3927 81.8809 36.7625 81.8809 36.7625C81.9079 37.8172 82.0569 38.8652 82.325 39.8856C82.4491 39.2749 82.7044 38.6985 83.0734 38.1964C82.6887 39.4974 83.668 42.505 83.668 42.505C83.6188 41.7196 83.6693 40.9311 83.8183 40.1584C84.0946 41.0537 85.7908 42.0399 86.4867 42.1413C86.4797 42.1483 89.1342 42.3546 88.641 37.8712Z" fill="#263238"/>
<path d="M88.6061 41.1307C88.5509 42.0839 88.1209 42.9764 87.4101 43.6138C86.4588 44.4496 85.4376 43.7327 85.2453 42.5646C85.0704 41.498 85.3537 39.7668 86.5253 39.3996C87.6969 39.0324 88.6621 39.9627 88.6061 41.1307Z" fill="#FFB573"/>
<path d="M79.5096 43.8026C79.5096 43.8026 80.0377 45.6876 79.9363 46.8627C80.7022 46.9431 81.3352 46.1842 81.3352 46.1842L79.5096 43.8026Z" fill="#ED893E"/>
<path opacity="0.2" d="M77.5862 98.1218C77.3834 95.8102 77.0896 93.4985 76.6979 91.2113C76.5225 90.1663 76.185 89.1551 75.6977 88.2141C64.5065 86.7243 63.5168 96.027 70.9135 113.713C70.5218 106.767 72.3124 103.385 69.7664 98.0729C72.3625 98.3885 74.9863 98.4049 77.5862 98.1218Z" fill="black"/>
<path opacity="0.2" d="M87.2947 40.5746L88.0396 42.1239C88.33 42.712 88.4786 43.36 88.4733 44.0159L88.4348 45.7645C88.4172 46.17 88.2644 46.558 88.0007 46.8667C87.7371 47.1753 87.3778 47.3869 86.98 47.4677C86.3669 47.6144 85.723 47.5608 85.1427 47.3147C84.5623 47.0686 84.0762 46.6429 83.7555 46.1002C83.3719 45.3306 83.1156 44.5038 82.9966 43.6522L82.3636 41.6238C82.3108 41.464 82.2925 41.2948 82.31 41.1274C82.3275 40.9601 82.3803 40.7983 82.4649 40.6529C82.5495 40.5074 82.664 40.3816 82.8009 40.2837C82.9378 40.1858 83.0939 40.1181 83.2589 40.085L85.0949 39.5884C85.519 39.4864 85.965 39.5279 86.363 39.7063C86.761 39.8847 87.0887 40.1901 87.2947 40.5746Z" fill="black"/>
<path d="M87.7213 40.781L88.2949 42.4352C88.5254 43.091 88.6101 43.7892 88.5432 44.4811L88.3578 46.4046C88.3168 46.8414 88.1523 47.2575 87.8835 47.6043C87.6147 47.9511 87.2528 48.2143 86.84 48.363C86.2782 48.5703 85.6578 48.5508 85.1101 48.3087C84.5624 48.0665 84.1305 47.6206 83.9058 47.0656C83.6043 46.2184 83.4322 45.3306 83.3952 44.4321L82.9686 42.2428C82.8973 41.883 82.9563 41.5095 83.135 41.1892C83.3138 40.8688 83.6006 40.6225 83.9443 40.4942L85.7244 39.8332C85.9176 39.762 86.1231 39.73 86.3288 39.7392C86.5345 39.7485 86.7362 39.7987 86.9223 39.887C87.1083 39.9753 87.2748 40.0998 87.412 40.2533C87.5492 40.4069 87.6544 40.5863 87.7213 40.781Z" fill="#FFB573"/>
<path d="M99.5104 51.4894C98.3797 51.2058 97.1827 51.3828 96.1826 51.9816C95.1824 52.5804 94.461 53.5519 94.1771 54.6824L94.0896 55.0322L93.9288 55.6896L93.7294 56.4311C93.586 56.9382 93.4461 57.4488 93.2818 57.9524C92.9705 58.9596 92.5998 59.9318 92.2116 60.8516L92.1906 60.9005C91.8024 59.729 91.4422 58.5084 91.1205 57.2669C90.8827 56.3891 90.6553 55.4973 90.4455 54.602C90.2357 53.7067 90.0118 52.8044 89.8125 51.8951C89.3998 50.0905 89.0151 48.237 88.6234 46.4394V46.387C88.5084 45.8686 88.2097 45.4094 87.7826 45.094C87.3554 44.7787 86.8286 44.6284 86.2994 44.671C85.7702 44.7137 85.2742 44.9462 84.903 45.3259C84.5319 45.7055 84.3105 46.2066 84.2799 46.7367C84.1609 48.7231 84.1644 50.6396 84.2134 52.5981C84.2624 54.5565 84.3988 56.501 84.6121 58.47C84.717 59.4562 84.8604 60.4459 85.0213 61.4426C85.1821 62.4393 85.371 63.45 85.6333 64.4712C85.8916 65.5404 86.2186 66.5918 86.6125 67.6188C86.8359 68.202 87.0976 68.7697 87.3959 69.3184C87.7568 69.9861 88.1895 70.6123 88.6864 71.186C89.2887 71.8722 90.1155 72.3218 91.0189 72.4545C91.9222 72.5871 92.8434 72.394 93.6175 71.9099L93.8553 71.7595C94.58 71.3031 95.2655 70.7872 95.9047 70.2172C96.5052 69.6762 97.0651 69.0917 97.5799 68.4686C98.0699 67.8714 98.5287 67.2492 98.9543 66.6046C99.3635 65.9646 99.7272 65.3211 100.07 64.6706C100.409 64.0312 100.716 63.3752 100.99 62.7051C101.262 62.0441 101.525 61.3832 101.742 60.7117C101.958 60.0402 102.168 59.3722 102.336 58.6868C102.42 58.3371 102.508 57.9873 102.577 57.6376L102.682 57.1305L102.787 56.515C102.976 55.4184 102.743 54.2911 102.135 53.3591C101.527 52.4271 100.59 51.7592 99.5104 51.4894Z" fill="#263238"/>
<path d="M80.6777 120.081C81.2898 119.298 85.5739 117.483 85.5739 117.483C87.0711 120.696 88.3733 123.996 89.4733 127.366L83.8008 128.523C83.8008 128.523 82.2795 122.819 80.6777 120.081Z" fill="#FFB573"/>
<path d="M91.6522 83.5104C75.2815 84.626 62.625 84.661 69.8433 98.9787C72.9349 105.106 73.5469 108.39 76.9148 115.958C78.3626 119.217 78.8417 120.172 79.8804 122.428C80.9751 124.432 86.2105 123.505 88.0745 122.491C90.2882 121.004 87.9661 117.843 87.5009 115.979C85.2312 106.886 87.5464 103.637 84.0771 97.8421C89.4384 98.1184 103.602 98.3037 105.827 89.1689C105.83 89.1689 103.162 83.5104 91.6522 83.5104Z" fill="#263238"/>
<path d="M81.3493 123.4L82.1991 124.729C82.2502 124.808 82.3253 124.869 82.4134 124.902C82.5015 124.936 82.598 124.94 82.6887 124.914C83.6085 124.656 86.3608 123.925 88.0115 123.953C88.0707 123.953 88.1294 123.942 88.1841 123.919C88.2387 123.896 88.2881 123.862 88.3293 123.82C88.3705 123.777 88.4027 123.727 88.4238 123.671C88.4449 123.616 88.4546 123.557 88.4522 123.498C88.4277 122.945 88.3508 122.232 88.2948 121.788C88.2816 121.673 88.2235 121.568 88.133 121.496C88.0425 121.424 87.9272 121.39 87.8122 121.403C85.6949 121.64 83.607 122.09 81.5801 122.746C81.5164 122.767 81.4583 122.802 81.4103 122.849C81.3623 122.896 81.3258 122.953 81.3035 123.016C81.2812 123.079 81.2737 123.147 81.2816 123.213C81.2896 123.28 81.3127 123.344 81.3493 123.4Z" fill="#2196F3"/>
<path d="M91.0996 130.615L89.921 126.513C89.8863 126.422 89.8194 126.347 89.7331 126.301C89.6467 126.256 89.5469 126.244 89.4524 126.268L83.6119 127.149C83.1372 127.188 82.6884 127.382 82.3354 127.702C80.8511 129.421 78.8124 130.568 76.572 130.944C75.6277 131.129 76.0299 133.011 78.2472 133C81.9228 132.983 81.7619 132.514 84.8605 132.063C87.2036 131.713 88.1968 131.713 90.3162 131.51C90.4283 131.509 90.5388 131.483 90.6406 131.436C90.7424 131.389 90.8331 131.321 90.907 131.237C90.9808 131.152 91.0361 131.053 91.0693 130.946C91.1025 130.839 91.1128 130.726 91.0996 130.615Z" fill="#263238"/>
</svg>
